<?xml version="1.0" encoding="utf-8"?>
<!-- Generator: Adobe Illustrator 24.0.0, SVG Export Plug-In . SVG Version: 6.00 Build 0)  -->
<svg version="1.1" id="Layer_1" xmlns="http://www.w3.org/2000/svg" xmlns:xlink="http://www.w3.org/1999/xlink" x="0px" y="0px"
	 viewBox="0 0 400 100" enable-background="new 0 0 400 100" xml:space="preserve">
<g>
	<g>
		<g>
			<path d="M66.4,43.3c-0.06,1.05-0.27,2.3-0.62,3.76c-0.35,1.46-0.84,2.69-1.47,3.71c-0.63,1.01-1.54,2.09-2.71,3.23
				c-1.17,1.14-2.6,2.04-4.28,2.71c-1.68,0.67-3.77,1.22-6.28,1.66c-2.5,0.44-5.34,0.67-8.51,0.67H27.42v21.39H20V19.57h21.68
				c4.37,0,8.16,0.44,11.36,1.33c3.2,0.89,5.64,1.97,7.32,3.23c1.68,1.27,3.01,2.87,3.99,4.8c0.98,1.93,1.58,3.68,1.81,5.23
				c0.22,1.55,0.33,3.34,0.33,5.37C66.49,41,66.46,42.25,66.4,43.3z M58.65,34.74c-0.35-1.36-1.06-2.8-2.14-4.33
				c-1.08-1.52-2.84-2.69-5.28-3.52c-2.44-0.82-5.5-1.24-9.17-1.24H27.42v27.29h14.93c3.68,0,6.72-0.38,9.13-1.14
				c2.41-0.76,4.14-1.87,5.18-3.33c1.05-1.46,1.73-2.84,2.04-4.14c0.32-1.3,0.48-2.9,0.48-4.8C59.17,37.7,59,36.1,58.65,34.74z"/>
			<path d="M130.19,62.03c-0.86,3.45-2.31,6.67-4.37,9.65c-2.06,2.98-5.06,5.28-8.98,6.89c-3.93,1.62-8.68,2.42-14.26,2.42
				c-5.58,0-10.32-0.81-14.21-2.42c-3.9-1.62-6.88-3.91-8.94-6.89c-2.06-2.98-3.52-6.21-4.37-9.7c-0.86-3.49-1.28-7.48-1.28-11.98
				s0.44-8.49,1.33-11.98s2.36-6.72,4.42-9.7c2.06-2.98,5.04-5.28,8.94-6.89c3.9-1.62,8.6-2.42,14.12-2.42
				c5.58,0,10.33,0.81,14.26,2.42c3.93,1.62,6.93,3.91,8.98,6.89c2.06,2.98,3.52,6.23,4.37,9.75c0.86,3.52,1.28,7.53,1.28,12.03
				S131.05,58.57,130.19,62.03z M123.01,40.25c-0.63-2.82-1.71-5.42-3.23-7.8c-1.52-2.38-3.72-4.18-6.61-5.42
				c-2.88-1.24-6.42-1.85-10.6-1.85c-7.92,0-13.45,2.2-16.59,6.61C82.84,36.2,81.27,42.27,81.27,50s1.57,13.8,4.71,18.21
				c3.14,4.41,8.67,6.61,16.59,6.61c4.18,0,7.72-0.62,10.6-1.85c2.88-1.24,5.09-3.04,6.61-5.42c1.52-2.38,2.6-4.96,3.23-7.75
				c0.63-2.79,0.95-6.02,0.95-9.7C123.96,46.36,123.65,43.07,123.01,40.25z"/>
			<path d="M141.42,80.43V19.57h7.42v54.77h25.58v6.09H141.42z"/>
			<path d="M232.67,80.43l-5.13-12.93h-33.37l-5.23,12.93h-7.89l25.01-60.85h9.79l24.53,60.85H232.67z M210.9,25.18l-14.64,36.61
				h29.19L210.9,25.18z"/>
			<path d="M267.23,55.61l30.05,24.82h-10.93l-29-25.67v25.67h-7.42V19.57h21.2c4.31,0,8.05,0.4,11.22,1.19
				c3.17,0.79,5.59,1.77,7.27,2.95c1.68,1.17,3.03,2.65,4.04,4.42c1.01,1.77,1.65,3.41,1.9,4.9c0.25,1.49,0.38,3.15,0.38,4.99
				c0,3.04-0.48,5.66-1.43,7.84c-0.95,2.19-2.16,3.9-3.61,5.13c-1.46,1.24-3.31,2.22-5.56,2.95c-2.25,0.73-4.41,1.19-6.47,1.38
				c-2.06,0.19-4.42,0.29-7.08,0.29H267.23z M287.86,33.65c-0.38-1.27-1.11-2.55-2.19-3.85c-1.08-1.3-2.82-2.31-5.23-3.04
				c-2.41-0.73-5.45-1.09-9.13-1.09h-13.98V50h14.45c3.61,0,6.61-0.33,8.98-1c2.38-0.67,4.07-1.65,5.09-2.95
				c1.01-1.3,1.7-2.54,2.04-3.71c0.35-1.17,0.52-2.61,0.52-4.33C288.43,36.37,288.24,34.91,287.86,33.65z"/>
			<path d="M309.39,80.43V19.57h7.42v60.85H309.39z"/>
			<path d="M374.15,75.67c-3.9,3.55-10.28,5.32-19.16,5.32c-9.63,0-16.58-1.77-20.82-5.32c-4.25-3.55-6.37-8.75-6.37-15.59h7.32
				c0.13,4.69,1.7,8.26,4.71,10.7c3.01,2.44,8,3.66,14.98,3.66c11.79,0,17.75-3.61,17.87-10.84c0.06-2.6-0.95-4.69-3.04-6.28
				c-2.09-1.58-4.74-2.68-7.94-3.28c-3.2-0.6-6.66-1.28-10.36-2.04c-3.71-0.76-7.16-1.55-10.36-2.38c-3.2-0.82-5.86-2.3-7.99-4.42
				c-2.12-2.12-3.19-4.83-3.19-8.13c0-5.77,2.04-10.22,6.13-13.36c4.09-3.14,10.09-4.71,18.02-4.71c16.73,0,25.13,6.62,25.2,19.87
				h-7.23c-0.25-5.01-1.89-8.53-4.9-10.55c-3.01-2.03-7.46-3.04-13.36-3.04c-5.32,0-9.43,0.97-12.31,2.9
				c-2.88,1.93-4.33,4.71-4.33,8.32c0,2.73,1.47,4.83,4.42,6.32c2.95,1.49,6.53,2.58,10.74,3.28c4.22,0.7,8.43,1.51,12.65,2.42
				c4.22,0.92,7.8,2.55,10.74,4.9s4.42,5.51,4.42,9.51C380,67.88,378.05,72.12,374.15,75.67z"/>
		</g>
	</g>
</g>
</svg>
