<?xml version="1.0" encoding="utf-8"?>
<!-- Generator: Adobe Illustrator 24.0.0, SVG Export Plug-In . SVG Version: 6.00 Build 0)  -->
<svg version="1.1" id="Layer_1" xmlns="http://www.w3.org/2000/svg" xmlns:xlink="http://www.w3.org/1999/xlink" x="0px" y="0px"
	 viewBox="0 0 200 200" enable-background="new 0 0 200 200" xml:space="preserve">
<g>
	<linearGradient id="SVGID_1_" gradientUnits="userSpaceOnUse" x1="66.7476" y1="62.4503" x2="121.979" y2="62.4503">
		<stop  offset="0" style="stop-color:#202A5F"/>
		<stop  offset="0.1126" style="stop-color:#243162"/>
		<stop  offset="0.2714" style="stop-color:#2E436A"/>
		<stop  offset="0.4577" style="stop-color:#3F6177"/>
		<stop  offset="0.6648" style="stop-color:#578B89"/>
		<stop  offset="0.8865" style="stop-color:#76C1A0"/>
		<stop  offset="1" style="stop-color:#87DFAD"/>
	</linearGradient>
	<path fill="url(#SVGID_1_)" d="M95.69,76.85l17.12-7.02c4.51-1.86,9.17-3.77,9.17-11.59V48.05L95.7,58.84l-19.22-7.89v5.56
		l19.22,7.89l21.14-8.67v2.51c0,4.18-1.34,4.92-5.98,6.83L95.7,71.29L66.75,59.4v5.56L95.69,76.85z"/>
	<linearGradient id="SVGID_2_" gradientUnits="userSpaceOnUse" x1="70.1387" y1="93.7207" x2="113.1591" y2="93.7207">
		<stop  offset="0" style="stop-color:#202A5F"/>
		<stop  offset="0.1126" style="stop-color:#243162"/>
		<stop  offset="0.2714" style="stop-color:#2E436A"/>
		<stop  offset="0.4577" style="stop-color:#3F6177"/>
		<stop  offset="0.6648" style="stop-color:#578B89"/>
		<stop  offset="0.8865" style="stop-color:#76C1A0"/>
		<stop  offset="1" style="stop-color:#87DFAD"/>
	</linearGradient>
	<polygon fill="url(#SVGID_2_)" points="113.16,94.58 113.16,89.02 95.7,96.19 70.14,85.69 70.14,91.25 95.7,101.75 	"/>
	<linearGradient id="SVGID_3_" gradientUnits="userSpaceOnUse" x1="70.1387" y1="106.1708" x2="113.1591" y2="106.1708">
		<stop  offset="0" style="stop-color:#202A5F"/>
		<stop  offset="0.1126" style="stop-color:#243162"/>
		<stop  offset="0.2714" style="stop-color:#2E436A"/>
		<stop  offset="0.4577" style="stop-color:#3F6177"/>
		<stop  offset="0.6648" style="stop-color:#578B89"/>
		<stop  offset="0.8865" style="stop-color:#76C1A0"/>
		<stop  offset="1" style="stop-color:#87DFAD"/>
	</linearGradient>
	<polygon fill="url(#SVGID_3_)" points="70.14,98.14 70.14,103.7 95.7,114.2 113.16,107.03 113.16,101.47 95.7,108.64 	"/>
	<linearGradient id="SVGID_4_" gradientUnits="userSpaceOnUse" x1="66.7476" y1="60.1245" x2="133.2524" y2="60.1245">
		<stop  offset="0" style="stop-color:#202A5F"/>
		<stop  offset="0.1126" style="stop-color:#243162"/>
		<stop  offset="0.2714" style="stop-color:#2E436A"/>
		<stop  offset="0.4577" style="stop-color:#3F6177"/>
		<stop  offset="0.6648" style="stop-color:#578B89"/>
		<stop  offset="0.8865" style="stop-color:#76C1A0"/>
		<stop  offset="1" style="stop-color:#87DFAD"/>
	</linearGradient>
	<path fill="url(#SVGID_4_)" d="M133.25,30.95l-3.08,1.28L95.7,46.39L66.75,34.5v5.56L95.7,51.95l32.41-13.31
		c0,5.44,0,14.74,0,14.83c0,10.66-2.73,14.88-4.79,17.12c-3.01,3.28-7.47,5.02-12.65,7.04c-1.2,0.47-2.44,0.95-3.7,1.47L95.7,83.74
		l-15.97-6.56v5.56L95.7,89.3l13.23-5.43c1.23-0.5,2.44-0.98,3.62-1.44c11.11-4.34,20.71-8.09,20.71-28.96l0-9.38l0-8.71
		L133.25,30.95z"/>
</g>
<g>
	<g>
		<g>
			<path d="M40.62,152.29c-0.03,0.46-0.12,1.02-0.27,1.67c-0.15,0.65-0.37,1.2-0.65,1.65c-0.28,0.45-0.68,0.93-1.2,1.44
				c-0.52,0.51-1.16,0.91-1.9,1.2c-0.75,0.3-1.68,0.54-2.79,0.74c-1.11,0.2-2.37,0.3-3.78,0.3H23.3v9.51H20v-27.04h9.63
				c1.94,0,3.63,0.2,5.05,0.59c1.42,0.39,2.51,0.87,3.25,1.44c0.75,0.56,1.34,1.27,1.77,2.13c0.44,0.86,0.7,1.63,0.8,2.32
				c0.1,0.69,0.15,1.49,0.15,2.39C40.66,151.27,40.65,151.83,40.62,152.29z M37.18,148.49c-0.16-0.61-0.47-1.25-0.95-1.92
				c-0.48-0.68-1.26-1.2-2.35-1.56c-1.08-0.37-2.44-0.55-4.08-0.55H23.3v12.13h6.63c1.63,0,2.99-0.17,4.06-0.51
				c1.07-0.34,1.84-0.83,2.3-1.48c0.46-0.65,0.77-1.26,0.91-1.84c0.14-0.58,0.21-1.29,0.21-2.13
				C37.41,149.81,37.33,149.1,37.18,148.49z"/>
			<path d="M68.97,160.62c-0.38,1.54-1.03,2.97-1.94,4.29c-0.92,1.32-2.25,2.35-3.99,3.06c-1.75,0.72-3.86,1.08-6.34,1.08
				c-2.48,0-4.58-0.36-6.32-1.08c-1.73-0.72-3.06-1.74-3.97-3.06s-1.56-2.76-1.94-4.31c-0.38-1.55-0.57-3.32-0.57-5.32
				c0-2,0.2-3.78,0.59-5.32c0.39-1.55,1.05-2.99,1.96-4.31c0.92-1.32,2.24-2.35,3.97-3.06c1.73-0.72,3.82-1.08,6.28-1.08
				c2.48,0,4.59,0.36,6.34,1.08c1.75,0.72,3.08,1.74,3.99,3.06c0.92,1.32,1.56,2.77,1.94,4.33c0.38,1.56,0.57,3.35,0.57,5.35
				C69.54,157.32,69.35,159.08,68.97,160.62z M65.78,150.94c-0.28-1.25-0.76-2.41-1.44-3.47c-0.68-1.06-1.66-1.86-2.94-2.41
				c-1.28-0.55-2.85-0.82-4.71-0.82c-3.52,0-5.98,0.98-7.37,2.94c-1.39,1.96-2.09,4.66-2.09,8.09s0.7,6.13,2.09,8.09
				c1.39,1.96,3.85,2.94,7.37,2.94c1.86,0,3.43-0.27,4.71-0.82c1.28-0.55,2.26-1.35,2.94-2.41c0.68-1.06,1.16-2.2,1.44-3.44
				c0.28-1.24,0.42-2.68,0.42-4.31C66.21,153.65,66.07,152.2,65.78,150.94z"/>
			<path d="M73.96,168.8v-27.04h3.3v24.34h11.37v2.7H73.96z"/>
			<path d="M114.52,168.8l-2.28-5.75H97.41l-2.32,5.75h-3.51l11.11-27.04h4.35l10.9,27.04H114.52z M104.84,144.24l-6.51,16.27h12.97
				L104.84,144.24z"/>
			<path d="M129.88,157.77l13.35,11.03h-4.86l-12.89-11.41v11.41h-3.3v-27.04h9.42c1.92,0,3.58,0.18,4.99,0.53s2.49,0.79,3.23,1.31
				c0.75,0.52,1.35,1.18,1.8,1.96c0.45,0.79,0.73,1.51,0.85,2.18c0.11,0.66,0.17,1.4,0.17,2.22c0,1.35-0.21,2.51-0.63,3.49
				c-0.42,0.97-0.96,1.73-1.61,2.28c-0.65,0.55-1.47,0.99-2.47,1.31c-1,0.32-1.96,0.53-2.87,0.61c-0.92,0.08-1.96,0.13-3.15,0.13
				H129.88z M139.05,148c-0.17-0.56-0.49-1.13-0.97-1.71c-0.48-0.58-1.25-1.03-2.32-1.35c-1.07-0.32-2.42-0.49-4.06-0.49h-6.21
				v10.82h6.42c1.61,0,2.94-0.15,3.99-0.44s1.81-0.73,2.26-1.31c0.45-0.58,0.75-1.13,0.91-1.65c0.15-0.52,0.23-1.16,0.23-1.92
				C139.3,149.22,139.22,148.57,139.05,148z"/>
			<path d="M148.62,168.8v-27.04h3.3v27.04H148.62z"/>
			<path d="M177.4,166.68c-1.73,1.58-4.57,2.37-8.51,2.37c-4.28,0-7.37-0.79-9.25-2.37c-1.89-1.58-2.83-3.89-2.83-6.93h3.25
				c0.06,2.08,0.75,3.67,2.09,4.75c1.34,1.08,3.56,1.63,6.66,1.63c5.24,0,7.89-1.61,7.94-4.82c0.03-1.15-0.42-2.08-1.35-2.79
				c-0.93-0.7-2.11-1.19-3.53-1.46c-1.42-0.27-2.96-0.57-4.61-0.91c-1.65-0.34-3.18-0.69-4.61-1.06s-2.61-1.02-3.55-1.96
				c-0.94-0.94-1.42-2.15-1.42-3.61c0-2.56,0.91-4.54,2.73-5.94c1.82-1.39,4.49-2.09,8.01-2.09c7.44,0,11.17,2.94,11.2,8.83h-3.21
				c-0.11-2.23-0.84-3.79-2.18-4.69c-1.34-0.9-3.32-1.35-5.94-1.35c-2.37,0-4.19,0.43-5.47,1.29c-1.28,0.86-1.92,2.09-1.92,3.7
				c0,1.21,0.65,2.15,1.96,2.81c1.31,0.66,2.9,1.15,4.78,1.46c1.87,0.31,3.75,0.67,5.62,1.08c1.87,0.41,3.47,1.13,4.78,2.18
				s1.96,2.45,1.96,4.23C180,163.22,179.13,165.1,177.4,166.68z"/>
		</g>
	</g>
</g>
</svg>
