<svg xmlns="http://www.w3.org/2000/svg" viewBox="0 0 32 32"><defs><style>.cls-1{fill:#5db18c;}</style></defs><title>polaris-icons</title><g id="Path"><path class="cls-1" d="M16,18a2,2,0,1,1,2-2A2,2,0,0,1,16,18Zm0-3a1,1,0,1,0,1,1A1,1,0,0,0,16,15Z"/><rect x="15.5" y="8" width="1" height="3.5"/><rect x="15.5" y="20.5" width="1" height="3.5"/><rect x="20.42" y="15.5" width="3.58" height="1"/><rect x="9.25" y="14.25" width="1" height="3.5" transform="translate(-6.26 25.73) rotate(-89.92)"/><path d="M16,6a2,2,0,1,1,2-2A2,2,0,0,1,16,6Zm0-3a1,1,0,1,0,1,1A1,1,0,0,0,16,3Z"/><path d="M16,30a2,2,0,1,1,2-2A2,2,0,0,1,16,30Zm0-3a1,1,0,1,0,1,1A1,1,0,0,0,16,27Z"/><path d="M4,18a2,2,0,1,1,2-2A2,2,0,0,1,4,18Zm0-3a1,1,0,1,0,1,1A1,1,0,0,0,4,15Z"/><path d="M28,18a2,2,0,1,1,2-2A2,2,0,0,1,28,18Zm0-3a1,1,0,1,0,1,1A1,1,0,0,0,28,15Z"/><rect x="22.04" y="4.94" width="1" height="9.2" transform="translate(-0.15 18.73) rotate(-45)"/><rect x="17.4" y="21.5" width="9.2" height="1" transform="translate(-9.11 22) rotate(-45)"/><rect x="9.5" y="17.4" width="1" height="9.2" transform="translate(-12.63 13.52) rotate(-45)"/><rect x="4.86" y="9.04" width="9.2" height="1" transform="translate(-3.98 9.48) rotate(-45)"/></g></svg>