<svg xmlns="http://www.w3.org/2000/svg" viewBox="0 0 32 32"><defs><style>.cls-1{fill:#5db18c;}</style></defs><title>polaris-icons</title><g id="Path"><path class="cls-1" d="M3,8.15A2.88,2.88,0,0,1,5.86,5.27H8v2H9v-2H21v2h1v-2h5v14h1v-15H22v-2H21v2H9v-2H8v2H5.86A3.88,3.88,0,0,0,2,8.15V26.27H19v-1H3Z"/><rect class="cls-1" x="4.98" y="9.77" width="20" height="1"/><rect class="cls-1" x="4.98" y="12.27" width="20" height="1"/><polygon class="cls-1" points="24.99 26.89 23.55 25.48 22.85 26.19 25 28.3 28.19 25.11 27.48 24.41 24.99 26.89"/><path class="cls-1" d="M28.37,22.25A4.5,4.5,0,0,0,21,26.17a4.49,4.49,0,0,0,4.47,4.06l.45,0a4.5,4.5,0,0,0,2.41-8Zm-2.51,7a3.44,3.44,0,0,1-2.56-.77,3.5,3.5,0,0,1,1.88-6.19A3.5,3.5,0,0,1,29,25.39,3.49,3.49,0,0,1,25.86,29.21Z"/></g></svg>