<svg xmlns="http://www.w3.org/2000/svg" viewBox="0 0 32 32"><title>polaris-icons</title><g id="Path"><path d="M16,10a6,6,0,1,0,6,6A6,6,0,0,0,16,10Zm0,11a5,5,0,1,1,5-5A5,5,0,0,1,16,21Z"/><path d="M9.79,6,6,9.79V22.21L9.79,26H22.21L26,22.21V9.79L22.21,6ZM25,21.79,21.79,25H10.21L7,21.79V10.21L10.21,7H21.79L25,10.21Z"/><rect x="11" y="2" width="1" height="3"/><rect x="15.5" y="2" width="1" height="3"/><rect x="20" y="2" width="1" height="3"/><rect x="11" y="27" width="1" height="3"/><rect x="15.5" y="27" width="1" height="3"/><rect x="20" y="27" width="1" height="3"/><rect x="27" y="11" width="3" height="1"/><rect x="27" y="15.5" width="3" height="1"/><rect x="27" y="20" width="3" height="1"/><rect x="2" y="11" width="3" height="1"/><rect x="2" y="15.5" width="3" height="1"/><rect x="2" y="20" width="3" height="1"/></g></svg>