<svg xmlns="http://www.w3.org/2000/svg" viewBox="0 0 32 32"><defs><style>.cls-1{fill:#5db18c;}</style></defs><title>polaris-icons</title><g id="Path"><path class="cls-1" d="M16,6A10,10,0,1,0,26,16,10,10,0,0,0,16,6Zm0,19a9,9,0,1,1,9-9A9,9,0,0,1,16,25Z"/><path class="cls-1" d="M16.43,12.58A3.42,3.42,0,0,1,19,13.72l.74-.67c-.11-.12-.22-.24-.34-.35A4.54,4.54,0,0,0,18,11.87V10.15H17v1.48a3.66,3.66,0,0,0-.57-.05,4.08,4.08,0,0,0-.93.1V10.15h-1V12a4.39,4.39,0,0,0,0,7.92v2h1V20.32a4.73,4.73,0,0,0,.93.1,5.48,5.48,0,0,0,.57-.05V22h1V20.13a4.38,4.38,0,0,0,1.38-.84A3.22,3.22,0,0,0,19.7,19L19,18.3l-.25.25a3.42,3.42,0,1,1-2.28-6Z"/><path d="M28.94,9.78a2,2,0,0,0,.81-1.6,2,2,0,1,0-2,2,2.3,2.3,0,0,0,.26,0A13.37,13.37,0,0,1,9.58,27.74l-.49.87A14.35,14.35,0,0,0,28.94,9.78Zm-2.19-1.6a1,1,0,1,1,1,1A1,1,0,0,1,26.75,8.18Z"/><path d="M6.25,24.11a1.94,1.94,0,0,0-.76.15c-.14-.18-.27-.35-.4-.54s-.15-.19-.21-.29c-.22-.33-.43-.66-.62-1h0a13.88,13.88,0,0,1-1-2.27A13.38,13.38,0,0,1,24.41,5.6L25,4.82A14.38,14.38,0,0,0,1.62,16a14.24,14.24,0,0,0,.7,4.42s0,.12.05.18.12.33.19.49a14.53,14.53,0,0,0,1.37,2.73l0,.05c.18.28.37.54.57.8l.12.18h0l0,0a2,2,0,0,0-.44,1.23,2,2,0,1,0,2-2Zm0,3a1,1,0,1,1,1-1A1,1,0,0,1,6.25,27.11Z"/></g></svg>