<svg xmlns="http://www.w3.org/2000/svg" viewBox="0 0 32 32"><defs><style>.cls-1{fill:#5db18c;}</style></defs><title>polaris-icons</title><g id="Path"><path d="M23.31,9H8.69A1.69,1.69,0,0,1,7,7.31V3.69A1.69,1.69,0,0,1,8.69,2H23.31A1.69,1.69,0,0,1,25,3.69V7.31A1.69,1.69,0,0,1,23.31,9ZM8.69,3A.69.69,0,0,0,8,3.69V7.31A.69.69,0,0,0,8.69,8H23.31A.69.69,0,0,0,24,7.31V3.69A.69.69,0,0,0,23.31,3Z"/><path d="M23.31,18H8.69A1.69,1.69,0,0,1,7,16.31V12.69A1.69,1.69,0,0,1,8.69,11H23.31A1.69,1.69,0,0,1,25,12.69v3.62A1.69,1.69,0,0,1,23.31,18ZM8.69,12a.69.69,0,0,0-.69.69v3.62a.69.69,0,0,0,.69.69H23.31a.69.69,0,0,0,.69-.69V12.69a.69.69,0,0,0-.69-.69Z"/><path d="M20,27H8.69A1.82,1.82,0,0,1,7,25.07V21.93A1.82,1.82,0,0,1,8.69,20H20v1H8.69c-.37,0-.69.42-.69.92v3.14c0,.5.32.92.69.92H20Z"/><polygon points="30 15 27 15 27 14 29 14 29 6 27 6 27 5 30 5 30 15"/><polygon points="5 24 2 24 2 14 5 14 5 15 3 15 3 23 5 23 5 24"/><rect x="10" y="14" width="7" height="1"/><rect x="10" y="5" width="7" height="1"/><rect x="10" y="23.01" width="7" height="1"/><path class="cls-1" d="M22,20v5h0v.13A6,6,0,0,0,26,30a6,6,0,0,0,4-4.85V20Z"/></g></svg>