<svg xmlns="http://www.w3.org/2000/svg" viewBox="0 0 32 32"><defs><style>.cls-1{fill:#5db18c;}</style></defs><title>polaris-icons</title><g id="Path"><rect class="cls-1" x="8.5" y="21.5" width="15" height="1"/><path class="cls-1" d="M11.5,24a2,2,0,1,0,2,2A2,2,0,0,0,11.5,24Zm0,3a1,1,0,1,1,1-1A1,1,0,0,1,11.5,27Z"/><path class="cls-1" d="M21.5,24a2,2,0,1,0,2,2A2,2,0,0,0,21.5,24Zm0,3a1,1,0,1,1,1-1A1,1,0,0,1,21.5,27Z"/><path class="cls-1" d="M6.92,8l-.3-1.62A1.67,1.67,0,0,0,5,5H2V6H5a.68.68,0,0,1,.67.56l.68,3.76L8.08,20H22.59a6,6,0,0,0,5.88-4.69L30.13,8Zm20.57,7.09A5,5,0,0,1,22.59,19H8.92L7.59,11.67h0l-.07-.37L7.1,9H28.87Z"/></g></svg>