<svg xmlns="http://www.w3.org/2000/svg" viewBox="0 0 32 32"><defs><style>.cls-1{fill:none;}.cls-2{fill:#5db18c;}</style></defs><title>polaris-icons</title><g id="Path"><path class="cls-1" d="M20,24.5v5h5.8a3.91,3.91,0,0,0,3.9-3.9V15.5A5.5,5.5,0,0,0,24.2,10H19.72v1.22a3.86,3.86,0,0,1-3.85,3.85h0A3.85,3.85,0,0,1,12,11.22V10H7.53A5.49,5.49,0,0,0,2,15.5V25.6a3.9,3.9,0,0,0,3.9,3.9H12v-5"/><path d="M25.79,30H19.5V24.5h1V29h5.29a3.41,3.41,0,0,0,3.41-3.4V15.5a5,5,0,0,0-5-5h-4v.72a4.35,4.35,0,0,1-8.7,0V10.5h-4a5,5,0,0,0-5,5V25.6A3.4,3.4,0,0,0,5.94,29h5.58V24.5h1V30H5.94a4.41,4.41,0,0,1-4.4-4.4V15.5a6,6,0,0,1,6-6h5v1.72a3.35,3.35,0,0,0,6.7,0V9.5h5a6,6,0,0,1,6,6V25.6A4.42,4.42,0,0,1,25.79,30Z"/><circle cx="23.6" cy="15.98" r="1"/><circle cx="23.6" cy="19.98" r="1"/><circle cx="21.6" cy="17.98" r="1"/><circle cx="25.6" cy="17.98" r="1"/><circle class="cls-2" cx="16" cy="10.5" r="1"/><rect x="5.5" y="17.5" width="6" height="1"/><rect x="8" y="15" width="1" height="6"/><path class="cls-2" d="M19,8.33a4,4,0,0,0-6,0l-.75-.66a5,5,0,0,1,7.46,0Z"/><path class="cls-2" d="M22.07,5.66A8.06,8.06,0,0,0,10,5.62L9.22,5A9.06,9.06,0,0,1,22.83,5Z"/><rect x="11.5" y="21.5" width="9" height="1"/></g></svg>