<?xml version="1.0" encoding="utf-8"?>
<!-- Generator: Adobe Illustrator 24.0.0, SVG Export Plug-In . SVG Version: 6.00 Build 0)  -->
<svg version="1.1" id="Layer_1" xmlns="http://www.w3.org/2000/svg" xmlns:xlink="http://www.w3.org/1999/xlink" x="0px" y="0px"
	 viewBox="0 0 32 32" style="enable-background:new 0 0 32 32;" xml:space="preserve">
<title>polaris-icons</title>
<g>
	<path d="M19.5,26.2c-0.5,0.2-1,0.3-1.5,0.4c1.7-2,2.9-6.2,3-11.2h6.4c-0.1,1.7-0.5,3.2-1.2,4.6c0.3,0.1,0.7,0.2,1,0.3
		c0.8-1.7,1.2-3.5,1.2-5.4c0-7-5.6-12.7-12.6-13c-0.1,0-0.1,0-0.1,0c0,0,0,0-0.1,0c-0.1,0-0.1,0-0.2,0c-7.2,0-13,5.8-13,13
		c0,7.2,5.8,13,13,13c0.1,0,0.1,0,0.2,0c0,0,0,0,0.1,0c0.1,0,0.1,0,0.1,0c1.4,0,2.6-0.3,3.9-0.7C19.6,26.9,19.5,26.6,19.5,26.2z
		 M19.4,21c-1.2-0.6-2.5-1-3.9-1c-1.3,0-2.5,0.3-3.6,0.8c-0.3-1.6-0.5-3.3-0.6-5.3H20C20,17.5,19.8,19.4,19.4,21z M11.3,14.5
		c0-2.1,0.2-3.9,0.6-5.5c1.2,0.6,2.6,1,4,1c1.2,0,2.4-0.3,3.5-0.8c0.3,1.5,0.5,3.3,0.5,5.3H11.3z M27.4,14.5H21c0-2.1-0.3-4-0.6-5.8
		c1.1-0.7,2.1-1.7,2.8-2.8C25.6,8,27.2,11.1,27.4,14.5z M22.4,5.3c-0.6,1-1.4,1.8-2.3,2.4c-0.5-1.9-1.2-3.4-2.1-4.4
		C19.6,3.7,21.1,4.3,22.4,5.3z M15.6,3c0.1,0,0.1,0,0.2,0c1.3,0.1,2.6,2,3.5,5.2C18.2,8.7,17.1,9,16,9c-1.4,0-2.6-0.4-3.8-1
		C13,4.9,14.4,3.1,15.6,3z M13.4,3.2c-0.8,0.9-1.6,2.4-2.1,4.2c-0.9-0.7-1.6-1.6-2.1-2.6C10.5,4,11.9,3.4,13.4,3.2z M8.4,5.3
		C9,6.6,9.9,7.6,11.1,8.4c-0.4,1.8-0.7,3.8-0.7,6.1H3.5C3.6,10.7,5.5,7.4,8.4,5.3z M3.5,15.5h6.9c0,2.1,0.3,4.1,0.7,5.8
		c-1.2,0.8-2.2,1.8-2.9,3.1C5.4,22.3,3.6,19.1,3.5,15.5z M8.7,24.9L8.9,25c0.6-1.1,1.4-2,2.4-2.6c0.5,1.9,1.3,3.5,2.2,4.4
		C11.7,26.5,10.1,25.8,8.7,24.9z M15.8,26.9c-0.1,0-0.1,0-0.2,0c-1.3,0-2.7-2-3.5-5.1c1-0.5,2.2-0.8,3.4-0.8c1.3,0,2.5,0.3,3.7,1
		C18.4,25,17.1,26.8,15.8,26.9z"/>
	<g>
		<path d="M24.9,30c-1,0-2-0.4-2.8-1c-0.9-0.8-1.5-1.8-1.6-3c-0.1-1.2,0.2-2.4,1-3.3s1.8-1.5,3-1.6c2.5-0.2,4.7,1.6,4.9,4
			c0.1,1.2-0.2,2.4-1,3.3c-0.8,0.9-1.8,1.5-3,1.6C25.2,30,25.1,30,24.9,30z M25,22c-0.1,0-0.2,0-0.3,0c-0.9,0.1-1.8,0.5-2.4,1.3
			c-0.6,0.7-0.9,1.6-0.8,2.6l0,0c0.2,1.9,1.9,3.3,3.8,3.1c0.9-0.1,1.8-0.5,2.4-1.3c0.6-0.7,0.9-1.6,0.8-2.6C28.3,23.3,26.7,22,25,22
			z"/>
	</g>
	<g>
		<rect x="24.5" y="23" width="1" height="3"/>
	</g>
	<circle cx="25" cy="27.5" r="0.5"/>
</g>
</svg>
