<svg xmlns="http://www.w3.org/2000/svg" viewBox="0 0 32 32"><defs><style>.cls-1{fill:#5db18c;}</style></defs><title>polaris-icons</title><g id="Path"><circle cx="6" cy="16" r="1"/><circle cx="26" cy="16" r="1"/><polygon class="cls-1" points="19.49 15.5 16.49 15.5 16.49 12.5 15.49 12.5 15.49 15.5 12.49 15.5 12.49 16.5 15.49 16.5 15.49 19.5 16.49 19.5 16.49 16.5 19.49 16.5 19.49 15.5"/><path d="M26.24,24H2V11.76A3.77,3.77,0,0,1,5.76,8H30V20.24A3.77,3.77,0,0,1,26.24,24ZM3,23H26.24A2.77,2.77,0,0,0,29,20.24V9H5.76A2.77,2.77,0,0,0,3,11.76Z"/><path class="cls-1" d="M16,22a6,6,0,1,1,6-6A6,6,0,0,1,16,22Zm0-11a5,5,0,1,0,5,5A5,5,0,0,0,16,11Z"/></g></svg>