<svg xmlns="http://www.w3.org/2000/svg" viewBox="0 0 32 32"><defs><style>.cls-1{fill:#5db18c;}</style></defs><title>polaris-icons</title><g id="Path"><path d="M22,15.49H15.72a3.57,3.57,0,0,0,.57-2V10c0-1.09.57-2,1.24-2h4.38V7H17.53c-1.26,0-2.24,1.32-2.24,3v3.5c0,1.08-.57,2-1.24,2H11v1h3.05c.67,0,1.24.91,1.24,2V22c0,1.68,1,3,2.24,3H22V24H17.53c-.67,0-1.24-.91-1.24-2V18.5a3.66,3.66,0,0,0-.57-2H22Z"/><path class="cls-1" d="M9,19.5H2v-7H9Zm-6-1H8v-5H3Z"/><path d="M26,9.5a2,2,0,1,1,2-2A2,2,0,0,1,26,9.5Zm0-3a1,1,0,1,0,1,1A1,1,0,0,0,26,6.5Z"/><path d="M26,18a2,2,0,1,1,2-2A2,2,0,0,1,26,18Zm0-3a1,1,0,1,0,1,1A1,1,0,0,0,26,15Z"/><path d="M26,26.49a2,2,0,1,1,2-2A2,2,0,0,1,26,26.49Zm0-3a1,1,0,1,0,1,1A1,1,0,0,0,26,23.49Z"/></g></svg>