<svg xmlns="http://www.w3.org/2000/svg" viewBox="0 0 32 32"><defs><style>.cls-1{fill:#5db18c;}</style></defs><title>polaris-icons</title><g id="Path"><path d="M5.55,6A3.55,3.55,0,0,0,2,9.57V26H26.45A3.55,3.55,0,0,0,30,22.45V6Zm0,1H29v3H3V9.57A2.55,2.55,0,0,1,5.55,7Zm20.9,18H3V11H29V22.45A2.55,2.55,0,0,1,26.45,25Z"/><path d="M5.5,9A.5.5,0,1,0,5,8.5.5.5,0,0,0,5.5,9Z"/><path d="M7.5,9A.5.5,0,1,0,7,8.5.5.5,0,0,0,7.5,9Z"/><path d="M9.5,9A.5.5,0,1,0,9,8.5.5.5,0,0,0,9.5,9Z"/><polygon class="cls-1" points="15.48 19.62 13.33 17.51 14.03 16.8 15.47 18.21 17.96 15.73 18.67 16.44 15.48 19.62"/><path d="M16,22a4.48,4.48,0,1,1,.45,0Zm0-8-.34,0a3.48,3.48,0,0,0-3.14,3.82h0A3.5,3.5,0,1,0,16,14Z"/></g></svg>