<svg xmlns="http://www.w3.org/2000/svg" viewBox="0 0 32 32"><defs><style>.cls-1{fill:#5db18c;}</style></defs><title>polaris-icons</title><g id="Path"><path class="cls-1" d="M8,13a8,8,0,0,0,6.52,7.86c-.61,4.19-1.74,4.6-1.9,4.64H10v1H22v-1H19.89c-.17,0-1.31-.46-1.92-4.76A8,8,0,0,0,24,13V3H8ZM18.41,25.5H14.09A11,11,0,0,0,15.51,21L16,21a8.09,8.09,0,0,0,1-.07A11,11,0,0,0,18.41,25.5ZM9,4H23v9A7,7,0,0,1,9,13Z"/><path class="cls-1" d="M2,5.51C2,5.82,2.29,13,7,13V12C3.89,12,3.2,7.54,3.06,6H7V5H2Z"/><path class="cls-1" d="M25,5V6h3.94c-.14,1.54-.83,6-3.94,6v1c4.71,0,5-7.18,5-7.49V5Z"/><rect class="cls-1" x="10" y="28" width="12" height="1"/></g></svg>