<svg xmlns="http://www.w3.org/2000/svg" viewBox="0 0 32 32"><title>polaris-icons</title><g id="Path"><polygon points="16.5 22.97 15.5 22.97 15.5 26.97 2 26.97 2 27.97 30 27.97 30 26.97 16.5 26.97 16.5 22.97"/><circle cx="5.5" cy="8.47" r="0.5"/><circle cx="8.5" cy="8.47" r="0.5"/><circle cx="11.5" cy="8.47" r="0.5"/><path d="M28.53,5H3.47A1.47,1.47,0,0,0,2,6.44V10.5A1.47,1.47,0,0,0,3.47,12H28.53A1.47,1.47,0,0,0,30,10.5V6.44A1.47,1.47,0,0,0,28.53,5ZM29,10.5a.47.47,0,0,1-.47.47H3.47A.47.47,0,0,1,3,10.5V6.44A.47.47,0,0,1,3.47,6H28.53a.47.47,0,0,1,.47.47Z"/><path d="M28.53,14H3.47A1.47,1.47,0,0,0,2,15.43V19.5A1.47,1.47,0,0,0,3.47,21H28.53A1.47,1.47,0,0,0,30,19.5V15.43A1.47,1.47,0,0,0,28.53,14ZM29,19.5a.47.47,0,0,1-.47.47H3.47A.47.47,0,0,1,3,19.5V15.43A.47.47,0,0,1,3.47,15H28.53a.47.47,0,0,1,.47.46Z"/><circle cx="5.5" cy="17.47" r="0.5"/><circle cx="8.5" cy="17.47" r="0.5"/><circle cx="11.5" cy="17.47" r="0.5"/></g></svg>