<svg xmlns="http://www.w3.org/2000/svg" viewBox="0 0 32 32"><defs><style>.cls-1{fill:#5db18c;}</style></defs><title>polaris-icons</title><g id="Path"><rect x="4.54" y="20.95" width="13.86" height="1" transform="translate(-11.81 14.4) rotate(-45)"/><rect x="11.31" y="23.65" width="2" height="1" transform="translate(-13.47 15.78) rotate(-45)"/><path class="cls-1" d="M23.94,11.06a2,2,0,0,1-1.41-.59,2,2,0,0,1,0-2.82,2,2,0,0,1,2.82,0,2,2,0,0,1,0,2.82A2,2,0,0,1,23.94,11.06Zm0-3a1,1,0,0,0-.71.29,1,1,0,0,0,0,1.42,1,1,0,0,0,1.42,0,1,1,0,0,0,0-1.42A1,1,0,0,0,23.94,8.06Z"/><path d="M5.18,29.42a3.39,3.39,0,0,1-2.37-1L1.52,27.16,14.07,14.62l-.51-2.45a6.46,6.46,0,0,1,1.76-5.88L19.62,2,28.4,4.52l2.53,8.79-4.3,4.3a6.44,6.44,0,0,1-5.87,1.76l-2.46-.5L15,22.2l-.71-.7L18,17.78l3,.61a5.47,5.47,0,0,0,5-1.49L29.81,13,27.6,5.33,19.91,3.12,16,7a5.44,5.44,0,0,0-1.49,5l.62,3L2.94,27.16l.58.58a2.34,2.34,0,0,0,2.6.48l2.19-1a2.2,2.2,0,0,0,.63-.43L10,25.74l.71.71L9.64,27.53a2.94,2.94,0,0,1-.93.63l-2.18,1A3.33,3.33,0,0,1,5.18,29.42Z"/></g></svg>