<svg xmlns="http://www.w3.org/2000/svg" viewBox="0 0 32 32"><title>polaris-icons</title><g id="Path"><path d="M21,16.18a2.51,2.51,0,1,1,.53-.06A2.46,2.46,0,0,1,21,16.18Zm0-4-.32,0A1.52,1.52,0,0,0,19.53,14a1.5,1.5,0,0,0,2.94-.64h0a1.44,1.44,0,0,0-.65-.94A1.45,1.45,0,0,0,21,12.18Z"/><path d="M12,12.1a2.5,2.5,0,1,1,2.5-2.5A2.5,2.5,0,0,1,12,12.1Zm0-4a1.5,1.5,0,1,0,1.5,1.5A1.5,1.5,0,0,0,12,8.1Z"/><path d="M24.56,26.52H14.44V23.09c0-2.77,1.44-5.56,4.64-5.56h5.48Zm-9.12-1h8.12v-7H19.08c-2.69,0-3.64,2.45-3.64,4.56Z"/><path d="M12.08,22.52H5.44V19.09c0-3.48,1.74-5.56,4.64-5.56h5.48v3.38h-1V14.53H10.08c-3.17,0-3.64,2.85-3.64,4.56v2.43h5.64Z"/></g></svg>