<?xml version="1.0" encoding="utf-8"?>
<!-- Generator: Adobe Illustrator 24.0.0, SVG Export Plug-In . SVG Version: 6.00 Build 0)  -->
<svg version="1.1" id="Layer_1" xmlns="http://www.w3.org/2000/svg" xmlns:xlink="http://www.w3.org/1999/xlink" x="0px" y="0px"
	 viewBox="0 0 32 32" style="enable-background:new 0 0 32 32;" xml:space="preserve">
<style type="text/css">
	.st0{fill:#FFFFFF;}
	.st1{fill:url(#SVGID_1_);}
</style>
<title>polaris-icons</title>
<g>
	<polygon class="st0" points="10,3.5 10,2.5 2,2.5 2,10.5 3,10.5 3,4.2 10.7,11.9 11.4,11.2 3.7,3.5 	"/>
	<polygon class="st0" points="29,28.8 21.4,21.1 20.6,21.9 28.3,29.5 22,29.5 22,30.5 30,30.5 30,22.5 29,22.5 	"/>
	<polygon class="st0" points="22,2.5 22,3.5 28.3,3.5 20.6,11.2 21.3,11.9 29,4.2 29,10.5 30,10.5 30,2.5 	"/>
	<polygon class="st0" points="10.6,21.1 3,28.8 3,22.5 2,22.5 2,30.5 10,30.5 10,29.5 3.7,29.5 11.3,21.9 	"/>
	<linearGradient id="SVGID_1_" gradientUnits="userSpaceOnUse" x1="12.4374" y1="20.0348" x2="19.505" y2="12.9672">
		<stop  offset="0" style="stop-color:#28726E"/>
		<stop  offset="0.1014" style="stop-color:#2E7970"/>
		<stop  offset="0.2444" style="stop-color:#3D8B77"/>
		<stop  offset="0.4114" style="stop-color:#56A983"/>
		<stop  offset="0.4162" style="stop-color:#57AA83"/>
		<stop  offset="0.6542" style="stop-color:#69BD93"/>
		<stop  offset="1" style="stop-color:#8BDFAF"/>
	</linearGradient>
	<path class="st1" d="M16,21.5c-2.8,0-5-2.2-5-5s2.2-5,5-5s5,2.2,5,5S18.7,21.5,16,21.5z M16,12.5c-2.2,0-4,1.8-4,4s1.8,4,4,4
		s4-1.8,4-4S18.2,12.5,16,12.5z"/>
</g>
</svg>
