<?xml version="1.0" encoding="utf-8"?>
<!-- Generator: Adobe Illustrator 24.0.0, SVG Export Plug-In . SVG Version: 6.00 Build 0)  -->
<svg version="1.1" id="Layer_1" xmlns="http://www.w3.org/2000/svg" xmlns:xlink="http://www.w3.org/1999/xlink" x="0px" y="0px"
	 viewBox="0 0 32 32" style="enable-background:new 0 0 32 32;" xml:space="preserve">
<style type="text/css">
	.st0{fill:url(#SVGID_1_);}
	.st1{fill:url(#SVGID_2_);}
	.st2{fill:url(#SVGID_3_);}
	.st3{fill:url(#SVGID_4_);}
	.st4{fill:url(#SVGID_5_);}
</style>
<title>polaris-icons</title>
<g>
	<g>
		<linearGradient id="SVGID_1_" gradientUnits="userSpaceOnUse" x1="1.69" y1="26.3372" x2="25.69" y2="2.3372">
			<stop  offset="0" style="stop-color:#28726E"/>
			<stop  offset="0.1014" style="stop-color:#2E7970"/>
			<stop  offset="0.2444" style="stop-color:#3D8B77"/>
			<stop  offset="0.4114" style="stop-color:#56A983"/>
			<stop  offset="0.4162" style="stop-color:#57AA83"/>
			<stop  offset="0.6542" style="stop-color:#69BD93"/>
			<stop  offset="1" style="stop-color:#8BDFAF"/>
		</linearGradient>
		<path class="st0" d="M2.9,8.4c0-1.6,1.3-2.9,2.9-2.9h2.1v2h1v-2h12v2h1v-2h5v14h1v-15h-6v-2h-1v2h-12v-2h-1v2H5.8
			c-2.1,0-3.9,1.7-3.9,3.9v18.1h17v-1h-16V8.4z"/>
		<linearGradient id="SVGID_2_" gradientUnits="userSpaceOnUse" x1="9.6208" y1="14.7681" x2="20.1208" y2="4.2681">
			<stop  offset="0" style="stop-color:#28726E"/>
			<stop  offset="0.1014" style="stop-color:#2E7970"/>
			<stop  offset="0.2444" style="stop-color:#3D8B77"/>
			<stop  offset="0.4114" style="stop-color:#56A983"/>
			<stop  offset="0.4162" style="stop-color:#57AA83"/>
			<stop  offset="0.6542" style="stop-color:#69BD93"/>
			<stop  offset="1" style="stop-color:#8BDFAF"/>
		</linearGradient>
		<rect x="4.9" y="9" class="st1" width="20" height="1"/>
		<linearGradient id="SVGID_3_" gradientUnits="userSpaceOnUse" x1="9.6208" y1="17.2681" x2="20.1208" y2="6.7681">
			<stop  offset="0" style="stop-color:#28726E"/>
			<stop  offset="0.1014" style="stop-color:#2E7970"/>
			<stop  offset="0.2444" style="stop-color:#3D8B77"/>
			<stop  offset="0.4114" style="stop-color:#56A983"/>
			<stop  offset="0.4162" style="stop-color:#57AA83"/>
			<stop  offset="0.6542" style="stop-color:#69BD93"/>
			<stop  offset="1" style="stop-color:#8BDFAF"/>
		</linearGradient>
		<rect x="4.9" y="11.5" class="st2" width="20" height="1"/>
		<linearGradient id="SVGID_4_" gradientUnits="userSpaceOnUse" x1="23.8036" y1="27.5021" x2="27.0109" y2="24.2948">
			<stop  offset="0" style="stop-color:#28726E"/>
			<stop  offset="0.1014" style="stop-color:#2E7970"/>
			<stop  offset="0.2444" style="stop-color:#3D8B77"/>
			<stop  offset="0.4114" style="stop-color:#56A983"/>
			<stop  offset="0.4162" style="stop-color:#57AA83"/>
			<stop  offset="0.6542" style="stop-color:#69BD93"/>
			<stop  offset="1" style="stop-color:#8BDFAF"/>
		</linearGradient>
		<polygon class="st3" points="24.9,27.1 23.4,25.7 22.7,26.4 24.9,28.5 28.1,25.4 27.4,24.7 		"/>
		<linearGradient id="SVGID_5_" gradientUnits="userSpaceOnUse" x1="22.2259" y1="29.1645" x2="28.5911" y2="22.7993">
			<stop  offset="0" style="stop-color:#28726E"/>
			<stop  offset="0.1014" style="stop-color:#2E7970"/>
			<stop  offset="0.2444" style="stop-color:#3D8B77"/>
			<stop  offset="0.4114" style="stop-color:#56A983"/>
			<stop  offset="0.4162" style="stop-color:#57AA83"/>
			<stop  offset="0.6542" style="stop-color:#69BD93"/>
			<stop  offset="1" style="stop-color:#8BDFAF"/>
		</linearGradient>
		<path class="st4" d="M28.3,22.5c-0.9-0.8-2.1-1.1-3.3-1c-2.5,0.2-4.3,2.4-4,4.9c0.1,1.2,0.7,2.3,1.6,3c0.8,0.7,1.8,1,2.8,1
			c0.1,0,0.3,0,0.4,0c2.5-0.2,4.3-2.4,4-4.9C29.8,24.3,29.2,23.3,28.3,22.5z M25.8,29.5c-0.9,0.1-1.8-0.2-2.6-0.8s-1.2-1.4-1.3-2.4
			c-0.2-1.9,1.2-3.6,3.1-3.8c0.9-0.1,1.8,0.2,2.6,0.8c0.7,0.6,1.2,1.4,1.3,2.4C29.1,27.6,27.7,29.3,25.8,29.5z"/>
	</g>
</g>
</svg>
