<?xml version="1.0" encoding="utf-8"?>
<!-- Generator: Adobe Illustrator 24.0.0, SVG Export Plug-In . SVG Version: 6.00 Build 0)  -->
<svg version="1.1" id="Layer_1" xmlns="http://www.w3.org/2000/svg" xmlns:xlink="http://www.w3.org/1999/xlink" x="0px" y="0px"
	 viewBox="0 0 32 32" style="enable-background:new 0 0 32 32;" xml:space="preserve">
<style type="text/css">
	.st0{fill:#FFFFFF;}
	.st1{fill:url(#SVGID_1_);}
</style>
<title>polaris-icons</title>
<g>
	<path class="st0" d="M23.3,9H8.7C7.8,9,7,8.2,7,7.3V3.7C7,2.8,7.8,2,8.7,2h14.6C24.2,2,25,2.8,25,3.7v3.6C25,8.2,24.2,9,23.3,9z
		 M8.7,3C8.3,3,8,3.3,8,3.7v3.6C8,7.7,8.3,8,8.7,8h14.6C23.7,8,24,7.7,24,7.3V3.7C24,3.3,23.7,3,23.3,3H8.7z"/>
	<path class="st0" d="M23.3,18H8.7C7.8,18,7,17.2,7,16.3v-3.6C7,11.8,7.8,11,8.7,11h14.6c0.9,0,1.7,0.8,1.7,1.7v3.6
		C25,17.2,24.2,18,23.3,18z M8.7,12C8.3,12,8,12.3,8,12.7v3.6C8,16.7,8.3,17,8.7,17h14.6c0.4,0,0.7-0.3,0.7-0.7v-3.6
		c0-0.4-0.3-0.7-0.7-0.7H8.7z"/>
	<path class="st0" d="M20,27H8.7C7.8,27,7,26.1,7,25.1v-3.1C7,20.9,7.8,20,8.7,20H20v1H8.7C8.3,21,8,21.4,8,21.9v3.1
		C8,25.6,8.3,26,8.7,26H20V27z"/>
	<polygon class="st0" points="30,15 27,15 27,14 29,14 29,6 27,6 27,5 30,5 	"/>
	<polygon class="st0" points="5,24 2,24 2,14 5,14 5,15 3,15 3,23 5,23 	"/>
	<rect x="10" y="14" class="st0" width="7" height="1"/>
	<rect x="10" y="5" class="st0" width="7" height="1"/>
	<rect x="10" y="23" class="st0" width="7" height="1"/>
	<linearGradient id="SVGID_1_" gradientUnits="userSpaceOnUse" x1="22.2846" y1="27.146" x2="29.7154" y2="19.7152">
		<stop  offset="0" style="stop-color:#28726E"/>
		<stop  offset="0.1014" style="stop-color:#2E7970"/>
		<stop  offset="0.2444" style="stop-color:#3D8B77"/>
		<stop  offset="0.4114" style="stop-color:#56A983"/>
		<stop  offset="0.4162" style="stop-color:#57AA83"/>
		<stop  offset="0.6542" style="stop-color:#69BD93"/>
		<stop  offset="1" style="stop-color:#8BDFAF"/>
	</linearGradient>
	<path class="st1" d="M22,20v5c0,0,0,0,0,0c0,0,0,0,0,0l0,0.1c0.1,1.7,1.7,4.2,4,4.8c2.3-0.7,3.9-3.2,4-4.8l0-5.2H22z"/>
</g>
</svg>
