<svg xmlns="http://www.w3.org/2000/svg" viewBox="0 0 32 32"><defs><style>.cls-1{fill:#fff;}</style></defs><title>polaris-icons</title><g id="Path"><path class="cls-1" d="M19.05,26.21a10.66,10.66,0,0,1-1.46.44c1.73-2,2.91-6.19,3-11.18h6.35a12,12,0,0,1-1.15,4.63,5.34,5.34,0,0,1,1,.3A12.81,12.81,0,0,0,28,15,13,13,0,0,0,15.38,2l-.15,0H15a13,13,0,1,0,0,26h.25l.15,0a12.76,12.76,0,0,0,3.87-.72A5.43,5.43,0,0,1,19.05,26.21ZM19,20.93a8.38,8.38,0,0,0-7.53-.13,27.73,27.73,0,0,1-.57-5.33h8.69A28.08,28.08,0,0,1,19,20.93Zm-8.1-6.46A27.75,27.75,0,0,1,11.49,9a8.56,8.56,0,0,0,4,1A8.43,8.43,0,0,0,19,9.19a28.28,28.28,0,0,1,.55,5.28Zm16,0H20.58a29.49,29.49,0,0,0-.64-5.76,8.39,8.39,0,0,0,2.81-2.84A12,12,0,0,1,26.93,14.47ZM22,5.26a7.63,7.63,0,0,1-2.27,2.42,11.52,11.52,0,0,0-2.1-4.39A11.8,11.8,0,0,1,22,5.26ZM15.18,3h.17c1.3.1,2.63,2,3.45,5.18A7.56,7.56,0,0,1,15.5,9a7.5,7.5,0,0,1-3.77-1C12.57,4.88,13.9,3.05,15.18,3ZM13,3.17a10.92,10.92,0,0,0-2.1,4.19A7.52,7.52,0,0,1,8.77,4.74,12,12,0,0,1,13,3.17Zm-5,2.13A8.45,8.45,0,0,0,10.6,8.41a29,29,0,0,0-.71,6.06H3A11.93,11.93,0,0,1,7.94,5.3ZM3,15.47H9.89a29.09,29.09,0,0,0,.67,5.82A8.56,8.56,0,0,0,7.64,24.4,11.91,11.91,0,0,1,3,15.47Zm5.24,9.4.19.1a7.49,7.49,0,0,1,2.35-2.64A11.23,11.23,0,0,0,13,26.76,12,12,0,0,1,8.27,24.87Zm7.08,2.06h-.17c-1.31-.05-2.66-2-3.49-5.13a7.42,7.42,0,0,1,7.06.13C17.93,25,16.62,26.82,15.35,26.93Z"/><path class="cls-1" d="M24.49,30A4.5,4.5,0,0,1,21,22.61,4.5,4.5,0,1,1,24.94,30Zm0-8a1.94,1.94,0,0,0-.34,0A3.48,3.48,0,0,0,21,25.81h0A3.5,3.5,0,1,0,24.5,22Z"/><rect class="cls-1" x="24" y="22.97" width="1" height="3"/><circle class="cls-1" cx="24.5" cy="27.47" r="0.5"/></g></svg>