<?xml version="1.0" encoding="utf-8"?>
<!-- Generator: Adobe Illustrator 24.0.0, SVG Export Plug-In . SVG Version: 6.00 Build 0)  -->
<svg version="1.1" id="Layer_1" xmlns="http://www.w3.org/2000/svg" xmlns:xlink="http://www.w3.org/1999/xlink" x="0px" y="0px"
	 viewBox="0 0 32 32" style="enable-background:new 0 0 32 32;" xml:space="preserve">
<style type="text/css">
	.st0{fill:#FFFFFF;}
	.st1{fill:url(#SVGID_1_);}
	.st2{fill:url(#SVGID_2_);}
	.st3{fill:url(#SVGID_3_);}
</style>
<title>polaris-icons</title>
<g>
	<rect x="9" y="4" class="st0" width="1" height="10"/>
	<rect x="15.5" y="4" class="st0" width="1" height="3"/>
	<rect x="22" y="26" class="st0" width="1" height="3"/>
	<rect x="9" y="23" class="st0" width="1" height="6"/>
	<rect x="15.5" y="16" class="st0" width="1" height="13"/>
	<rect x="22" y="4" class="st0" width="1" height="13"/>
	<linearGradient id="SVGID_1_" gradientUnits="userSpaceOnUse" x1="8.0865" y1="19.9135" x2="10.9135" y2="17.0865">
		<stop  offset="0" style="stop-color:#28726E"/>
		<stop  offset="0.1014" style="stop-color:#2E7970"/>
		<stop  offset="0.2444" style="stop-color:#3D8B77"/>
		<stop  offset="0.4114" style="stop-color:#56A983"/>
		<stop  offset="0.4162" style="stop-color:#57AA83"/>
		<stop  offset="0.6542" style="stop-color:#69BD93"/>
		<stop  offset="1" style="stop-color:#8BDFAF"/>
	</linearGradient>
	<path class="st1" d="M9.5,20.5c-1.1,0-2-0.9-2-2s0.9-2,2-2s2,0.9,2,2S10.6,20.5,9.5,20.5z M9.5,17.5c-0.6,0-1,0.4-1,1s0.4,1,1,1
		s1-0.4,1-1S10.1,17.5,9.5,17.5z"/>
	<linearGradient id="SVGID_2_" gradientUnits="userSpaceOnUse" x1="14.5865" y1="12.9135" x2="17.4135" y2="10.0865">
		<stop  offset="0" style="stop-color:#28726E"/>
		<stop  offset="0.1014" style="stop-color:#2E7970"/>
		<stop  offset="0.2444" style="stop-color:#3D8B77"/>
		<stop  offset="0.4114" style="stop-color:#56A983"/>
		<stop  offset="0.4162" style="stop-color:#57AA83"/>
		<stop  offset="0.6542" style="stop-color:#69BD93"/>
		<stop  offset="1" style="stop-color:#8BDFAF"/>
	</linearGradient>
	<path class="st2" d="M16,13.5c-1.1,0-2-0.9-2-2s0.9-2,2-2s2,0.9,2,2S17.1,13.5,16,13.5z M16,10.5c-0.6,0-1,0.4-1,1s0.4,1,1,1
		s1-0.4,1-1S16.6,10.5,16,10.5z"/>
	<linearGradient id="SVGID_3_" gradientUnits="userSpaceOnUse" x1="21.0865" y1="22.9135" x2="23.9135" y2="20.0865">
		<stop  offset="0" style="stop-color:#28726E"/>
		<stop  offset="0.1014" style="stop-color:#2E7970"/>
		<stop  offset="0.2444" style="stop-color:#3D8B77"/>
		<stop  offset="0.4114" style="stop-color:#56A983"/>
		<stop  offset="0.4162" style="stop-color:#57AA83"/>
		<stop  offset="0.6542" style="stop-color:#69BD93"/>
		<stop  offset="1" style="stop-color:#8BDFAF"/>
	</linearGradient>
	<path class="st3" d="M22.5,23.5c-1.1,0-2-0.9-2-2s0.9-2,2-2s2,0.9,2,2S23.6,23.5,22.5,23.5z M22.5,20.5c-0.6,0-1,0.4-1,1s0.4,1,1,1
		s1-0.4,1-1S23.1,20.5,22.5,20.5z"/>
</g>
</svg>
