<?xml version="1.0" encoding="utf-8"?>
<!-- Generator: Adobe Illustrator 24.0.0, SVG Export Plug-In . SVG Version: 6.00 Build 0)  -->
<svg version="1.1" id="Layer_1" xmlns="http://www.w3.org/2000/svg" xmlns:xlink="http://www.w3.org/1999/xlink" x="0px" y="0px"
	 viewBox="0 0 32 32" style="enable-background:new 0 0 32 32;" xml:space="preserve">
<style type="text/css">
	.st0{fill:#FFFFFF;}
	.st1{fill:url(#SVGID_1_);}
</style>
<title>polaris-icons</title>
<g>
	<path class="st0" d="M23,16h-6.3c0.4-0.5,0.6-1.2,0.6-2v-3.5c0-1.1,0.6-2,1.2-2h4.4v-1h-4.4c-1.3,0-2.2,1.3-2.2,3V14
		c0,1.1-0.6,2-1.2,2h-2.8H12v1h0.3h0.3v0h2.5c0.7,0,1.2,0.9,1.2,2v3.5c0,1.7,1,3,2.2,3H23v-1h-4.5c-0.7,0-1.2-0.9-1.2-2V19
		c0-0.8-0.2-1.5-0.6-2H23V16z"/>
	<linearGradient id="SVGID_1_" gradientUnits="userSpaceOnUse" x1="3" y1="20.0044" x2="10" y2="13.0044">
		<stop  offset="0" style="stop-color:#28726E"/>
		<stop  offset="0.1014" style="stop-color:#2E7970"/>
		<stop  offset="0.2444" style="stop-color:#3D8B77"/>
		<stop  offset="0.4114" style="stop-color:#56A983"/>
		<stop  offset="0.4162" style="stop-color:#57AA83"/>
		<stop  offset="0.6542" style="stop-color:#69BD93"/>
		<stop  offset="1" style="stop-color:#8BDFAF"/>
	</linearGradient>
	<path class="st1" d="M10,20H3v-7h7V20z M4,19h5v-5H4V19z"/>
	<path class="st0" d="M27,10c-1.1,0-2-0.9-2-2s0.9-2,2-2s2,0.9,2,2S28.1,10,27,10z M27,7c-0.6,0-1,0.4-1,1s0.4,1,1,1s1-0.4,1-1
		S27.6,7,27,7z"/>
	<path class="st0" d="M27,18.5c-1.1,0-2-0.9-2-2s0.9-2,2-2s2,0.9,2,2S28.1,18.5,27,18.5z M27,15.5c-0.6,0-1,0.4-1,1s0.4,1,1,1
		s1-0.4,1-1S27.6,15.5,27,15.5z"/>
	<path class="st0" d="M27,27c-1.1,0-2-0.9-2-2s0.9-2,2-2s2,0.9,2,2S28.1,27,27,27z M27,24c-0.6,0-1,0.4-1,1s0.4,1,1,1s1-0.4,1-1
		S27.6,24,27,24z"/>
</g>
</svg>
