<?xml version="1.0" encoding="utf-8"?>
<!-- Generator: Adobe Illustrator 24.0.0, SVG Export Plug-In . SVG Version: 6.00 Build 0)  -->
<svg version="1.1" id="Layer_1" xmlns="http://www.w3.org/2000/svg" xmlns:xlink="http://www.w3.org/1999/xlink" x="0px" y="0px"
	 viewBox="0 0 32 32" style="enable-background:new 0 0 32 32;" xml:space="preserve">
<style type="text/css">
	.st0{fill:url(#SVGID_1_);}
	.st1{fill:#FFFFFF;}
</style>
<title>polaris-icons</title>
<g>
	<linearGradient id="SVGID_1_" gradientUnits="userSpaceOnUse" x1="12.2868" y1="22.6393" x2="19.7132" y2="15.2129">
		<stop  offset="0" style="stop-color:#28726E"/>
		<stop  offset="0.1014" style="stop-color:#2E7970"/>
		<stop  offset="0.2444" style="stop-color:#3D8B77"/>
		<stop  offset="0.4114" style="stop-color:#56A983"/>
		<stop  offset="0.4162" style="stop-color:#57AA83"/>
		<stop  offset="0.6542" style="stop-color:#69BD93"/>
		<stop  offset="1" style="stop-color:#8BDFAF"/>
	</linearGradient>
	<path class="st0" d="M20.2,18.5c-0.9-1.9-4.2-7-4.2-7s-3.3,5.2-4.2,7c-0.2,0.5-0.3,1-0.3,1.5c0,2.5,2,4.5,4.5,4.5s4.5-2,4.5-4.5
		C20.5,19.5,20.4,19,20.2,18.5z"/>
	<path class="st1" d="M20,2.5L20,2.5h-1.9h-7.9C7.9,2.5,6,4.4,6,6.7v23.8h20V10.7V8.5v0L20,2.5z M25,29.5H7V6.7
		c0-1.8,1.4-3.2,3.2-3.2h7.9H19v6h6v1.2V29.5z M20,8.5V3.9l4.6,4.6H20z"/>
</g>
</svg>
