<?xml version="1.0" encoding="utf-8"?>
<!-- Generator: Adobe Illustrator 24.0.0, SVG Export Plug-In . SVG Version: 6.00 Build 0)  -->
<svg version="1.1" id="Layer_1" xmlns="http://www.w3.org/2000/svg" xmlns:xlink="http://www.w3.org/1999/xlink" x="0px" y="0px"
	 viewBox="0 0 32 32" style="enable-background:new 0 0 32 32;" xml:space="preserve">
<style type="text/css">
	.st0{fill:#FFFFFF;}
	.st1{fill:url(#SVGID_1_);}
</style>
<title>polaris-icons</title>
<path class="st0" d="M5.5,6.5c-2,0-3.5,1.6-3.5,3.5v16.4h24.5c2,0,3.5-1.6,3.5-3.5V6.5H5.5z M5.5,7.5H29v3H3v-0.4
	C3,8.7,4.1,7.5,5.5,7.5z M26.5,25.5H3v-14h26v11.5C29,24.3,27.9,25.5,26.5,25.5z"/>
<path class="st0" d="M5.5,9.5C5.8,9.5,6,9.3,6,9c0-0.3-0.2-0.5-0.5-0.5S5,8.7,5,9C5,9.3,5.2,9.5,5.5,9.5z"/>
<path class="st0" d="M7.5,9.5C7.8,9.5,8,9.3,8,9c0-0.3-0.2-0.5-0.5-0.5S7,8.7,7,9C7,9.3,7.2,9.5,7.5,9.5z"/>
<path class="st0" d="M9.5,9.5C9.8,9.5,10,9.3,10,9c0-0.3-0.2-0.5-0.5-0.5S9,8.7,9,9C9,9.3,9.2,9.5,9.5,9.5z"/>
<g>
	<g>
		<g>
			<linearGradient id="SVGID_1_" gradientUnits="userSpaceOnUse" x1="14.394" y1="19.0654" x2="17.6021" y2="15.8574">
				<stop  offset="0" style="stop-color:#28726E"/>
				<stop  offset="0.1014" style="stop-color:#2E7970"/>
				<stop  offset="0.2444" style="stop-color:#3D8B77"/>
				<stop  offset="0.4114" style="stop-color:#56A983"/>
				<stop  offset="0.4162" style="stop-color:#57AA83"/>
				<stop  offset="0.6542" style="stop-color:#69BD93"/>
				<stop  offset="1" style="stop-color:#8BDFAF"/>
			</linearGradient>
			<polygon class="st1" points="15.5,20.1 13.3,18 14,17.3 15.5,18.7 18,16.2 18.7,16.9 			"/>
		</g>
	</g>
	<g>
		<path class="st0" d="M16,22.5c-1,0-2-0.4-2.8-1c-0.9-0.8-1.5-1.8-1.6-3c-0.1-1.2,0.2-2.4,1-3.3s1.8-1.5,3-1.6
			c2.5-0.2,4.7,1.6,4.9,4c0.1,1.2-0.2,2.4-1,3.3c-0.8,0.9-1.8,1.5-3,1.6C16.3,22.5,16.1,22.5,16,22.5z M16,14.5c-0.1,0-0.2,0-0.3,0
			c-0.9,0.1-1.8,0.5-2.4,1.3c-0.6,0.7-0.9,1.6-0.8,2.6l0,0c0.2,1.9,1.9,3.3,3.8,3.1c0.9-0.1,1.8-0.5,2.4-1.3
			c0.6-0.7,0.9-1.6,0.8-2.6C19.3,15.8,17.8,14.5,16,14.5z"/>
	</g>
</g>
</svg>
