<?xml version="1.0" encoding="utf-8"?>
<!-- Generator: Adobe Illustrator 24.0.0, SVG Export Plug-In . SVG Version: 6.00 Build 0)  -->
<svg version="1.1" id="Layer_1" xmlns="http://www.w3.org/2000/svg" xmlns:xlink="http://www.w3.org/1999/xlink" x="0px" y="0px"
	 viewBox="0 0 32 32" style="enable-background:new 0 0 32 32;" xml:space="preserve">
<style type="text/css">
	.st0{fill:url(#SVGID_1_);}
	.st1{fill:url(#SVGID_2_);}
	.st2{fill:url(#SVGID_3_);}
	.st3{fill:url(#SVGID_4_);}
	.st4{fill:#FFFFFF;}
	.st5{fill:url(#SVGID_5_);}
</style>
<title>polaris-icons</title>
<g>
	<linearGradient id="SVGID_1_" gradientUnits="userSpaceOnUse" x1="3.0839" y1="11.4161" x2="11.9161" y2="2.5839">
		<stop  offset="0" style="stop-color:#28726E"/>
		<stop  offset="0.1014" style="stop-color:#2E7970"/>
		<stop  offset="0.2444" style="stop-color:#3D8B77"/>
		<stop  offset="0.4114" style="stop-color:#56A983"/>
		<stop  offset="0.4162" style="stop-color:#57AA83"/>
		<stop  offset="0.6542" style="stop-color:#69BD93"/>
		<stop  offset="1" style="stop-color:#8BDFAF"/>
	</linearGradient>
	<path class="st0" d="M11,11.5H4c-1.1,0-2-0.9-2-2v-5c0-1.1,0.9-2,2-2h7c1.1,0,2,0.9,2,2v5C13,10.6,12.1,11.5,11,11.5z M4,3.5
		c-0.5,0-1,0.4-1,1v5c0,0.5,0.4,1,1,1h7c0.5,0,1-0.4,1-1v-5c0-0.5-0.4-1-1-1H4z"/>
	<linearGradient id="SVGID_2_" gradientUnits="userSpaceOnUse" x1="20.0839" y1="24.4161" x2="28.9161" y2="15.5839">
		<stop  offset="0" style="stop-color:#28726E"/>
		<stop  offset="0.1014" style="stop-color:#2E7970"/>
		<stop  offset="0.2444" style="stop-color:#3D8B77"/>
		<stop  offset="0.4114" style="stop-color:#56A983"/>
		<stop  offset="0.4162" style="stop-color:#57AA83"/>
		<stop  offset="0.6542" style="stop-color:#69BD93"/>
		<stop  offset="1" style="stop-color:#8BDFAF"/>
	</linearGradient>
	<path class="st1" d="M28,24.5h-7c-1.1,0-2-0.9-2-2v-5c0-1.1,0.9-2,2-2h7c1.1,0,2,0.9,2,2v5C30,23.6,29.1,24.5,28,24.5z M21,16.5
		c-0.5,0-1,0.4-1,1v5c0,0.5,0.4,1,1,1h7c0.5,0,1-0.4,1-1v-5c0-0.5-0.4-1-1-1H21z"/>
	<linearGradient id="SVGID_3_" gradientUnits="userSpaceOnUse" x1="22.75" y1="20.4961" x2="26.25" y2="16.9961">
		<stop  offset="0" style="stop-color:#28726E"/>
		<stop  offset="0.1014" style="stop-color:#2E7970"/>
		<stop  offset="0.2444" style="stop-color:#3D8B77"/>
		<stop  offset="0.4114" style="stop-color:#56A983"/>
		<stop  offset="0.4162" style="stop-color:#57AA83"/>
		<stop  offset="0.6542" style="stop-color:#69BD93"/>
		<stop  offset="1" style="stop-color:#8BDFAF"/>
	</linearGradient>
	<rect x="21.5" y="18.2" class="st2" width="6" height="1"/>
	<linearGradient id="SVGID_4_" gradientUnits="userSpaceOnUse" x1="22.75" y1="23.0537" x2="26.25" y2="19.5537">
		<stop  offset="0" style="stop-color:#28726E"/>
		<stop  offset="0.1014" style="stop-color:#2E7970"/>
		<stop  offset="0.2444" style="stop-color:#3D8B77"/>
		<stop  offset="0.4114" style="stop-color:#56A983"/>
		<stop  offset="0.4162" style="stop-color:#57AA83"/>
		<stop  offset="0.6542" style="stop-color:#69BD93"/>
		<stop  offset="1" style="stop-color:#8BDFAF"/>
	</linearGradient>
	<rect x="21.5" y="20.8" class="st3" width="6" height="1"/>
	<path class="st4" d="M22,30.5H10c-1.1,0-2-0.9-2-2v-15h1v15c0,0.5,0.4,1,1,1h12c0.5,0,1-0.4,1-1v-2h1v2C24,29.6,23.1,30.5,22,30.5z
		"/>
	<path class="st4" d="M17,26.5c0-0.5-0.4-1-1-1s-1,0.4-1,1s0.4,1,1,1S17,27.1,17,26.5z"/>
	<linearGradient id="SVGID_5_" gradientUnits="userSpaceOnUse" x1="5.1115" y1="8.6384" x2="8.3752" y2="5.3747">
		<stop  offset="0" style="stop-color:#28726E"/>
		<stop  offset="0.1014" style="stop-color:#2E7970"/>
		<stop  offset="0.2444" style="stop-color:#3D8B77"/>
		<stop  offset="0.4114" style="stop-color:#56A983"/>
		<stop  offset="0.4162" style="stop-color:#57AA83"/>
		<stop  offset="0.6542" style="stop-color:#69BD93"/>
		<stop  offset="1" style="stop-color:#8BDFAF"/>
	</linearGradient>
	<polygon class="st5" points="10,7 6,4.5 6,9.5 	"/>
	<path class="st4" d="M24,13.5h-1v-7c0-0.5-0.4-1-1-1h-7v-1h7c1.1,0,2,0.9,2,2V13.5z"/>
</g>
</svg>
