<?xml version="1.0" encoding="utf-8"?>
<!-- Generator: Adobe Illustrator 24.0.0, SVG Export Plug-In . SVG Version: 6.00 Build 0)  -->
<svg version="1.1" id="Layer_1" xmlns="http://www.w3.org/2000/svg" xmlns:xlink="http://www.w3.org/1999/xlink" x="0px" y="0px"
	 viewBox="0 0 32 32" style="enable-background:new 0 0 32 32;" xml:space="preserve">
<style type="text/css">
	.st0{fill:url(#SVGID_1_);}
	.st1{fill:url(#SVGID_2_);}
	.st2{fill:url(#SVGID_3_);}
	.st3{fill:#FFFFFF;}
	.st4{fill:url(#SVGID_4_);}
	.st5{fill:url(#SVGID_5_);}
</style>
<title>polaris-icons</title>
<g>
	<linearGradient id="SVGID_1_" gradientUnits="userSpaceOnUse" x1="9.4487" y1="17.2497" x2="16.9487" y2="9.7497">
		<stop  offset="0" style="stop-color:#28726E"/>
		<stop  offset="0.1014" style="stop-color:#2E7970"/>
		<stop  offset="0.2444" style="stop-color:#3D8B77"/>
		<stop  offset="0.4114" style="stop-color:#56A983"/>
		<stop  offset="0.4162" style="stop-color:#57AA83"/>
		<stop  offset="0.6542" style="stop-color:#69BD93"/>
		<stop  offset="1" style="stop-color:#8BDFAF"/>
	</linearGradient>
	<rect x="12.2" y="7" class="st0" width="2" height="13"/>
	<linearGradient id="SVGID_2_" gradientUnits="userSpaceOnUse" x1="15.4487" y1="19.2497" x2="18.9487" y2="15.7497">
		<stop  offset="0" style="stop-color:#28726E"/>
		<stop  offset="0.1014" style="stop-color:#2E7970"/>
		<stop  offset="0.2444" style="stop-color:#3D8B77"/>
		<stop  offset="0.4114" style="stop-color:#56A983"/>
		<stop  offset="0.4162" style="stop-color:#57AA83"/>
		<stop  offset="0.6542" style="stop-color:#69BD93"/>
		<stop  offset="1" style="stop-color:#8BDFAF"/>
	</linearGradient>
	<rect x="16.2" y="15" class="st1" width="2" height="5"/>
	<linearGradient id="SVGID_3_" gradientUnits="userSpaceOnUse" x1="6.6987" y1="18.4997" x2="11.6987" y2="13.4997">
		<stop  offset="0" style="stop-color:#28726E"/>
		<stop  offset="0.1014" style="stop-color:#2E7970"/>
		<stop  offset="0.2444" style="stop-color:#3D8B77"/>
		<stop  offset="0.4114" style="stop-color:#56A983"/>
		<stop  offset="0.4162" style="stop-color:#57AA83"/>
		<stop  offset="0.6542" style="stop-color:#69BD93"/>
		<stop  offset="1" style="stop-color:#8BDFAF"/>
	</linearGradient>
	<rect x="8.2" y="12" class="st2" width="2" height="8"/>
	<path class="st3" d="M13.7,4V2h-1v2H9.5C7.1,4,5.2,5.9,5.2,8.3V23h7.5v6H9.2v1h8v-1h-3.5v-6h2.5v-1h-10V8.3C6.2,6.5,7.7,5,9.5,5
		h10.7v14h1V4H13.7z"/>
	<linearGradient id="SVGID_4_" gradientUnits="userSpaceOnUse" x1="18.5161" y1="28.6818" x2="24.881" y2="22.3169">
		<stop  offset="0" style="stop-color:#28726E"/>
		<stop  offset="0.1014" style="stop-color:#2E7970"/>
		<stop  offset="0.2444" style="stop-color:#3D8B77"/>
		<stop  offset="0.4114" style="stop-color:#56A983"/>
		<stop  offset="0.4162" style="stop-color:#57AA83"/>
		<stop  offset="0.6542" style="stop-color:#69BD93"/>
		<stop  offset="1" style="stop-color:#8BDFAF"/>
	</linearGradient>
	<path class="st4" d="M21.7,30c-1.4,0-2.8-0.7-3.7-1.9c-0.7-1-1-2.2-0.8-3.4s0.8-2.2,1.8-2.9c2-1.4,4.8-1,6.3,1l0,0
		c1.4,2,1,4.8-1,6.3C23.5,29.7,22.6,30,21.7,30z M21.7,22c-0.7,0-1.4,0.2-2,0.7c-0.8,0.5-1.3,1.4-1.4,2.3c-0.2,0.9,0.1,1.8,0.6,2.6
		c1.1,1.6,3.3,1.9,4.9,0.8c1.6-1.1,1.9-3.3,0.8-4.9l0,0C23.9,22.5,22.8,22,21.7,22z"/>
	<g>
		<g>
			<linearGradient id="SVGID_5_" gradientUnits="userSpaceOnUse" x1="21.2463" y1="26.2644" x2="23.3547" y2="24.156">
				<stop  offset="0" style="stop-color:#28726E"/>
				<stop  offset="0.1014" style="stop-color:#2E7970"/>
				<stop  offset="0.2444" style="stop-color:#3D8B77"/>
				<stop  offset="0.4114" style="stop-color:#56A983"/>
				<stop  offset="0.4162" style="stop-color:#57AA83"/>
				<stop  offset="0.6542" style="stop-color:#69BD93"/>
				<stop  offset="1" style="stop-color:#8BDFAF"/>
			</linearGradient>
			<polygon class="st5" points="23,27.9 21.2,26.2 21.2,23 22.2,23 22.2,25.8 23.6,27.1 			"/>
		</g>
	</g>
</g>
</svg>
