<?xml version="1.0" encoding="utf-8"?>
<!-- Generator: Adobe Illustrator 24.0.0, SVG Export Plug-In . SVG Version: 6.00 Build 0)  -->
<svg version="1.1" id="Layer_1" xmlns="http://www.w3.org/2000/svg" xmlns:xlink="http://www.w3.org/1999/xlink" x="0px" y="0px"
	 viewBox="0 0 32 32" style="enable-background:new 0 0 32 32;" xml:space="preserve">
<style type="text/css">
	.st0{fill:url(#SVGID_1_);}
	.st1{fill:url(#SVGID_2_);}
	.st2{fill:url(#SVGID_3_);}
	.st3{fill:url(#SVGID_4_);}
</style>
<title>polaris-icons</title>
<g>
	<g>
		<linearGradient id="SVGID_1_" gradientUnits="userSpaceOnUse" x1="6.6255" y1="23.6265" x2="25.3784" y2="4.8735">
			<stop  offset="0" style="stop-color:#28726E"/>
			<stop  offset="0.1014" style="stop-color:#2E7970"/>
			<stop  offset="0.2444" style="stop-color:#3D8B77"/>
			<stop  offset="0.4114" style="stop-color:#56A983"/>
			<stop  offset="0.4162" style="stop-color:#57AA83"/>
			<stop  offset="0.6542" style="stop-color:#69BD93"/>
			<stop  offset="1" style="stop-color:#8BDFAF"/>
		</linearGradient>
		<path class="st0" d="M8,13.5c0,3.9,2.8,7.2,6.5,7.9c-0.6,4.2-1.7,4.6-1.9,4.6H10v1h2.6c0,0,0,0,0,0c0,0,0,0,0,0h7.2c0,0,0,0,0,0
			c0,0,0,0,0,0H22v-1h-2.1c-0.2,0-1.3-0.5-1.9-4.8c3.5-0.9,6-4,6-7.7v-10H8V13.5z M18.4,26h-4.3c0.6-0.9,1.1-2.4,1.4-4.5
			c0.2,0,0.3,0,0.5,0c0.3,0,0.7,0,1-0.1C17.3,23.6,17.8,25.1,18.4,26z M9,4.5h14v9c0,3.9-3.1,7-7,7s-7-3.1-7-7V4.5z"/>
		<linearGradient id="SVGID_2_" gradientUnits="userSpaceOnUse" x1="2.9322" y1="11.0724" x2="7.7496" y2="6.255">
			<stop  offset="0" style="stop-color:#28726E"/>
			<stop  offset="0.1014" style="stop-color:#2E7970"/>
			<stop  offset="0.2444" style="stop-color:#3D8B77"/>
			<stop  offset="0.4114" style="stop-color:#56A983"/>
			<stop  offset="0.4162" style="stop-color:#57AA83"/>
			<stop  offset="0.6542" style="stop-color:#69BD93"/>
			<stop  offset="1" style="stop-color:#8BDFAF"/>
		</linearGradient>
		<path class="st1" d="M2,6c0,0.3,0.3,7.5,5,7.5v-1c-3.1,0-3.8-4.5-3.9-6H7v-1H2L2,6z"/>
		<linearGradient id="SVGID_3_" gradientUnits="userSpaceOnUse" x1="23.4107" y1="11.9117" x2="29.9068" y2="5.4156">
			<stop  offset="0" style="stop-color:#28726E"/>
			<stop  offset="0.1014" style="stop-color:#2E7970"/>
			<stop  offset="0.2444" style="stop-color:#3D8B77"/>
			<stop  offset="0.4114" style="stop-color:#56A983"/>
			<stop  offset="0.4162" style="stop-color:#57AA83"/>
			<stop  offset="0.6542" style="stop-color:#69BD93"/>
			<stop  offset="1" style="stop-color:#8BDFAF"/>
		</linearGradient>
		<path class="st2" d="M25,5.5v1h3.9c-0.1,1.5-0.8,6-3.9,6v1c4.7,0,5-7.2,5-7.5l0-0.5H25z"/>
		<linearGradient id="SVGID_4_" gradientUnits="userSpaceOnUse" x1="12.752" y1="32.2529" x2="19.252" y2="25.7529">
			<stop  offset="0" style="stop-color:#28726E"/>
			<stop  offset="0.1014" style="stop-color:#2E7970"/>
			<stop  offset="0.2444" style="stop-color:#3D8B77"/>
			<stop  offset="0.4114" style="stop-color:#56A983"/>
			<stop  offset="0.4162" style="stop-color:#57AA83"/>
			<stop  offset="0.6542" style="stop-color:#69BD93"/>
			<stop  offset="1" style="stop-color:#8BDFAF"/>
		</linearGradient>
		<rect x="10" y="28.5" class="st3" width="12" height="1"/>
	</g>
</g>
</svg>
