<?xml version="1.0" encoding="utf-8"?>
<!-- Generator: Adobe Illustrator 24.0.0, SVG Export Plug-In . SVG Version: 6.00 Build 0)  -->
<svg version="1.1" id="Layer_1" xmlns="http://www.w3.org/2000/svg" xmlns:xlink="http://www.w3.org/1999/xlink" x="0px" y="0px"
	 viewBox="0 0 32 32" style="enable-background:new 0 0 32 32;" xml:space="preserve">
<style type="text/css">
	.st0{fill:#FFFFFF;}
	.st1{fill:url(#SVGID_1_);}
</style>
<title>polaris-icons</title>
<path class="st0" d="M22.2,26.5H9.8L6,22.7V10.3l3.8-3.8h12.4l3.8,3.8v12.4L22.2,26.5z M10.2,25.5h11.6l3.2-3.2V10.7l-3.2-3.2H10.2
	L7,10.7v11.6L10.2,25.5z"/>
<rect x="11" y="2.5" class="st0" width="1" height="3"/>
<rect x="15.5" y="2.5" class="st0" width="1" height="3"/>
<rect x="20" y="2.5" class="st0" width="1" height="3"/>
<rect x="11" y="27.5" class="st0" width="1" height="3"/>
<rect x="15.5" y="27.5" class="st0" width="1" height="3"/>
<rect x="20" y="27.5" class="st0" width="1" height="3"/>
<rect x="27" y="11.5" class="st0" width="3" height="1"/>
<rect x="27" y="16" class="st0" width="3" height="1"/>
<rect x="27" y="20.5" class="st0" width="3" height="1"/>
<rect x="2" y="11.5" class="st0" width="3" height="1"/>
<rect x="2" y="16" class="st0" width="3" height="1"/>
<rect x="2" y="20.5" class="st0" width="3" height="1"/>
<linearGradient id="SVGID_1_" gradientUnits="userSpaceOnUse" x1="9.5865" y1="22.9135" x2="22.4135" y2="10.0865">
	<stop  offset="0" style="stop-color:#28726E"/>
	<stop  offset="0.1014" style="stop-color:#2E7970"/>
	<stop  offset="0.2444" style="stop-color:#3D8B77"/>
	<stop  offset="0.4114" style="stop-color:#56A983"/>
	<stop  offset="0.4162" style="stop-color:#57AA83"/>
	<stop  offset="0.6542" style="stop-color:#69BD93"/>
	<stop  offset="1" style="stop-color:#8BDFAF"/>
</linearGradient>
<path class="st1" d="M21,19.5c-0.4,0-0.7,0.1-1,0.3l-2.3-2.3c0.2-0.3,0.3-0.6,0.3-1c0-0.4-0.1-0.7-0.3-1l2.3-2.3
	c0.3,0.2,0.6,0.3,1,0.3c1.1,0,2-0.9,2-2s-0.9-2-2-2s-2,0.9-2,2c0,0.4,0.1,0.7,0.3,1L17,14.8c-0.3-0.2-0.6-0.3-1-0.3
	c-0.4,0-0.7,0.1-1,0.3l-2.3-2.3c0.2-0.3,0.3-0.6,0.3-1c0-1.1-0.9-2-2-2s-2,0.9-2,2s0.9,2,2,2c0.4,0,0.7-0.1,1-0.3l2.3,2.3
	c-0.2,0.3-0.3,0.6-0.3,1s0.1,0.7,0.3,1L12,19.8c-0.3-0.2-0.6-0.3-1-0.3c-1.1,0-2,0.9-2,2s0.9,2,2,2s2-0.9,2-2c0-0.4-0.1-0.7-0.3-1
	l2.3-2.3c0.3,0.2,0.6,0.3,1,0.3s0.7-0.1,1-0.3l2.3,2.3c-0.2,0.3-0.3,0.6-0.3,1c0,1.1,0.9,2,2,2s2-0.9,2-2S22.1,19.5,21,19.5z
	 M21,10.5c0.6,0,1,0.4,1,1s-0.4,1-1,1s-1-0.4-1-1S20.4,10.5,21,10.5z M10,11.5c0-0.6,0.4-1,1-1s1,0.4,1,1s-0.4,1-1,1
	S10,12.1,10,11.5z M11,22.5c-0.6,0-1-0.4-1-1s0.4-1,1-1s1,0.4,1,1S11.6,22.5,11,22.5z M16,17.5c-0.6,0-1-0.4-1-1s0.4-1,1-1
	s1,0.4,1,1S16.6,17.5,16,17.5z M21,22.5c-0.6,0-1-0.4-1-1s0.4-1,1-1s1,0.4,1,1S21.6,22.5,21,22.5z"/>
</svg>
