<?xml version="1.0" encoding="utf-8"?>
<!-- Generator: Adobe Illustrator 24.0.0, SVG Export Plug-In . SVG Version: 6.00 Build 0)  -->
<svg version="1.1" id="Layer_1" xmlns="http://www.w3.org/2000/svg" xmlns:xlink="http://www.w3.org/1999/xlink" x="0px" y="0px"
	 viewBox="0 0 32 32" style="enable-background:new 0 0 32 32;" xml:space="preserve">
<style type="text/css">
	.st0{fill:none;stroke:#FFFFFF;stroke-miterlimit:10;}
	.st1{fill:url(#SVGID_1_);}
	.st2{fill:#FFFFFF;}
	.st3{fill:url(#SVGID_2_);}
	.st4{fill:url(#SVGID_3_);}
</style>
<title>polaris-icons</title>
<g>
	<path class="st0" d="M9.5,20.7"/>
	<linearGradient id="SVGID_1_" gradientUnits="userSpaceOnUse" x1="8.4587" y1="32.6724" x2="23.5413" y2="17.5898">
		<stop  offset="0" style="stop-color:#28726E"/>
		<stop  offset="0.1014" style="stop-color:#2E7970"/>
		<stop  offset="0.2444" style="stop-color:#3D8B77"/>
		<stop  offset="0.4114" style="stop-color:#56A983"/>
		<stop  offset="0.4162" style="stop-color:#57AA83"/>
		<stop  offset="0.6542" style="stop-color:#69BD93"/>
		<stop  offset="1" style="stop-color:#8BDFAF"/>
	</linearGradient>
	<path class="st1" d="M16,30.6c-7.9,0-14-2.4-14-5.4c0-2.1,2.8-3.9,7.4-4.9l0.2,1C5.7,22.1,3,23.6,3,25.2c0,2.1,5.3,4.4,13,4.4
		s13-2.3,13-4.4c0-1.5-2.7-3.1-6.6-3.9l0.2-1c4.6,1,7.4,2.8,7.4,4.9C30,28.2,23.9,30.6,16,30.6z"/>
	<path class="st0" d="M22.5,20.7"/>
	<path class="st2" d="M16,26.2l-7.2-9.1c-1.3-1.6-1.9-3.6-1.9-5.6c0-5,4.1-9.1,9.1-9.1s9.1,4.1,9.1,9.1c0,2.1-0.7,4-1.9,5.6L16,26.2
		z M16,3.4c-4.5,0-8.1,3.6-8.1,8.1c0,1.8,0.6,3.6,1.7,5l6.4,8.1l6.4-8.1c1.1-1.4,1.7-3.2,1.7-5C24.1,7,20.5,3.4,16,3.4z"/>
	<linearGradient id="SVGID_2_" gradientUnits="userSpaceOnUse" x1="15.4701" y1="17.6271" x2="16.5299" y2="16.5673">
		<stop  offset="0" style="stop-color:#28726E"/>
		<stop  offset="0.1014" style="stop-color:#2E7970"/>
		<stop  offset="0.2444" style="stop-color:#3D8B77"/>
		<stop  offset="0.4114" style="stop-color:#56A983"/>
		<stop  offset="0.4162" style="stop-color:#57AA83"/>
		<stop  offset="0.6542" style="stop-color:#69BD93"/>
		<stop  offset="1" style="stop-color:#8BDFAF"/>
	</linearGradient>
	<circle class="st3" cx="16" cy="17.1" r="0.8"/>
	<linearGradient id="SVGID_3_" gradientUnits="userSpaceOnUse" x1="13.25" y1="12.8472" x2="18.75" y2="7.3472">
		<stop  offset="0" style="stop-color:#28726E"/>
		<stop  offset="0.1014" style="stop-color:#2E7970"/>
		<stop  offset="0.2444" style="stop-color:#3D8B77"/>
		<stop  offset="0.4114" style="stop-color:#56A983"/>
		<stop  offset="0.4162" style="stop-color:#57AA83"/>
		<stop  offset="0.6542" style="stop-color:#69BD93"/>
		<stop  offset="1" style="stop-color:#8BDFAF"/>
	</linearGradient>
	<rect x="15.3" y="5.3" class="st4" width="1.5" height="9.5"/>
</g>
</svg>
