<svg xmlns="http://www.w3.org/2000/svg" viewBox="0 0 32 32"><defs><style>.cls-1{fill:#5db18c;}.cls-2{fill:#fff;}</style></defs><title>polaris-icons</title><g id="Path"><path class="cls-1" d="M23,23V18a1,1,0,0,0-1-1h0a1,1,0,0,0-1,1V23a1,1,0,0,0,1,1h0A1,1,0,0,0,23,23Z"/><path class="cls-1" d="M11,23V18a1,1,0,0,0-1-1h0a1,1,0,0,0-1,1V23a1,1,0,0,0,1,1h0A1,1,0,0,0,11,23Z"/><path class="cls-2" d="M25,21H24V15A8,8,0,0,0,8,15v6H7V15a9,9,0,0,1,18,0Z"/><path class="cls-2" d="M16,30A14,14,0,1,1,30,16,14,14,0,0,1,16,30ZM16,3A13,13,0,1,0,29,16,13,13,0,0,0,16,3Z"/></g></svg>