<svg xmlns="http://www.w3.org/2000/svg" viewBox="0 0 32 32"><defs><style>.cls-1{fill:#fff;}.cls-2{fill:#5db18c;}</style></defs><title>polaris-icons</title><g id="Path"><path class="cls-1" d="M25,16.5H23v-1h2a4,4,0,0,0,0-8H9v-1H25a5,5,0,0,1,0,10Z"/><path class="cls-1" d="M23,25.5H7a5,5,0,0,1,0-10H9v1H7a4,4,0,0,0,0,8H23Z"/><path class="cls-2" d="M20.88,13.29A2,2,0,0,1,19,10.58a7.89,7.89,0,0,0-5.94,0,2,2,0,0,1-1.91,2.71S9.78,19.62,16,22C22.22,19.62,20.88,13.29,20.88,13.29Z"/><path class="cls-1" d="M5,9A2,2,0,1,1,7,7,2,2,0,0,1,5,9ZM5,6A1,1,0,1,0,6,7,1,1,0,0,0,5,6Z"/><path class="cls-1" d="M27,26.89a2,2,0,1,1,2-2A2,2,0,0,1,27,26.89Zm0-3a1,1,0,1,0,1,1A1,1,0,0,0,27,23.89Z"/></g></svg>