<svg xmlns="http://www.w3.org/2000/svg" viewBox="0 0 32 32"><defs><style>.cls-1{fill:#5db18c;}.cls-2{fill:#fff;}</style></defs><title>polaris-icons</title><g id="Path"><path class="cls-1" d="M23,11H9V6.08A4.08,4.08,0,0,1,13.08,2H23ZM10,10H22V3H13.08A3.08,3.08,0,0,0,10,6.08Z"/><polygon class="cls-2" points="25 17 24 17 24 14 8 14 8 17 7 17 7 13 25 13 25 17"/><path class="cls-2" d="M13,27H2V23.08A4.08,4.08,0,0,1,6.08,19H13ZM3,26h9V20H6.08A3.08,3.08,0,0,0,3,23.08Z"/><path class="cls-2" d="M30,27H19V23.08A4.08,4.08,0,0,1,23.08,19H30ZM20,26h9V20H23.08A3.08,3.08,0,0,0,20,23.08Z"/><rect class="cls-2" x="2" y="29" width="11" height="1"/><rect class="cls-2" x="19" y="29" width="11" height="1"/></g></svg>