<svg xmlns="http://www.w3.org/2000/svg" viewBox="0 0 32 32"><defs><style>.cls-1{fill:#fff;}.cls-2{fill:#5db18c;}</style></defs><title>polaris-icons</title><g id="Path"><polygon class="cls-1" points="10 3 10 2 2 2 2 10 3 10 3 3.74 10.68 11.42 11.38 10.71 3.68 3 10 3"/><polygon class="cls-1" points="29 28.29 21.35 20.65 20.65 21.36 28.29 29 22 29 22 30 30 30 30 22 29 22 29 28.29"/><polygon class="cls-1" points="22 2 22 3 28.32 3 20.62 10.71 21.32 11.42 29 3.74 29 10 30 10 30 2 22 2"/><polygon class="cls-1" points="10.62 20.65 3 28.26 3 22 2 22 2 30 10 30 10 29 3.68 29 11.32 21.36 10.62 20.65"/><path class="cls-2" d="M16,21a5,5,0,1,1,5-5A5,5,0,0,1,16,21Zm0-9a4,4,0,1,0,4,4A4,4,0,0,0,16,12Z"/></g></svg>