<svg xmlns="http://www.w3.org/2000/svg" viewBox="0 0 32 32"><defs><style>.cls-1{fill:#fff;}.cls-2{fill:#5db18c;}</style></defs><title>polaris-icons</title><g id="Path"><path class="cls-1" d="M3,11H2V6.63A4.64,4.64,0,0,1,6.63,2H11V3H6.63A3.64,3.64,0,0,0,3,6.63Z"/><path class="cls-1" d="M30,11H29V6.63A3.64,3.64,0,0,0,25.37,3H21V2h4.37A4.64,4.64,0,0,1,30,6.63Z"/><path class="cls-1" d="M25.37,30H21V29h4.37A3.64,3.64,0,0,0,29,25.37V21h1v4.37A4.63,4.63,0,0,1,25.37,30Z"/><path class="cls-1" d="M11,30H6.63A4.63,4.63,0,0,1,2,25.37V21H3v4.37A3.64,3.64,0,0,0,6.63,29H11Z"/><rect class="cls-2" x="2" y="15.5" width="28" height="1"/></g></svg>