<svg xmlns="http://www.w3.org/2000/svg" viewBox="0 0 32 32"><defs><style>.cls-1{fill:#fff;}.cls-2{fill:#5db18c;}</style></defs><title>polaris-icons</title><g id="Path"><path class="cls-1" d="M26.12,23.43a1.78,1.78,0,0,1-.75-.16l-.47-.2V22l.87.38a.85.85,0,0,0,.83-.06.89.89,0,0,0,.4-.74V9a.89.89,0,0,0-.53-.81L14.73,3.08a.83.83,0,0,0-.83.07.86.86,0,0,0-.4.73V5l-1-.44V3.88a1.88,1.88,0,0,1,.85-1.57,1.85,1.85,0,0,1,1.78-.15L26.87,7.3A1.87,1.87,0,0,1,28,9V21.55a1.88,1.88,0,0,1-.85,1.57A1.83,1.83,0,0,1,26.12,23.43Z"/><path class="cls-2" d="M19.17,13.45,6.93,8.09A1.38,1.38,0,0,0,5,9.35V23a1.36,1.36,0,0,0,.83,1.26l12.24,5.36A1.37,1.37,0,0,0,20,28.37V14.72A1.38,1.38,0,0,0,19.17,13.45ZM12.06,23.79a4.15,4.15,0,0,1-2.73-2.95A6,6,0,0,1,9.49,18a4.87,4.87,0,0,0,.89,1.72,9.35,9.35,0,0,1,.83-3.5c.48-.94,1.14-2,.92-3.09,2,1.33,2.62,5.47,1.78,6.72A3.39,3.39,0,0,0,15.21,18C16.3,20.21,15.87,24.94,12.06,23.79Z"/><path class="cls-1" d="M22.12,26.43a1.82,1.82,0,0,1-.76-.16l-.47-.2V25l.87.38A.88.88,0,0,0,23,24.55V12a.87.87,0,0,0-.53-.8L10.73,6.08a.88.88,0,0,0-1.23.81V8l-1-.44V6.89a1.88,1.88,0,0,1,2.63-1.73L22.87,10.3A1.89,1.89,0,0,1,24,12V24.55a1.89,1.89,0,0,1-1.88,1.88Z"/></g></svg>