<svg xmlns="http://www.w3.org/2000/svg" viewBox="0 0 32 32"><defs><style>.cls-1{fill:#fff;}.cls-2{fill:#5db18c;}</style></defs><title>polaris-icons</title><g id="Path"><rect class="cls-1" x="9" y="3" width="1" height="10"/><rect class="cls-1" x="15.5" y="3" width="1" height="3"/><rect class="cls-1" x="22" y="25" width="1" height="3"/><rect class="cls-1" x="9" y="22" width="1" height="6"/><rect class="cls-1" x="15.5" y="15" width="1" height="13"/><rect class="cls-1" x="22" y="3" width="1" height="13"/><path class="cls-2" d="M9.5,19.5a2,2,0,1,1,2-2A2,2,0,0,1,9.5,19.5Zm0-3a1,1,0,1,0,1,1A1,1,0,0,0,9.5,16.5Z"/><path class="cls-2" d="M16,12.5a2,2,0,1,1,2-2A2,2,0,0,1,16,12.5Zm0-3a1,1,0,1,0,1,1A1,1,0,0,0,16,9.5Z"/><path class="cls-2" d="M22.5,22.5a2,2,0,1,1,2-2A2,2,0,0,1,22.5,22.5Zm0-3a1,1,0,1,0,1,1A1,1,0,0,0,22.5,19.5Z"/></g></svg>