<svg xmlns="http://www.w3.org/2000/svg" viewBox="0 0 32 32"><defs><style>.cls-1{fill:#5db18c;}.cls-2{fill:#fff;}</style></defs><title>polaris-icons</title><g id="Path"><path class="cls-1" d="M11,11H4A2,2,0,0,1,2,9V4A2,2,0,0,1,4,2h7a2,2,0,0,1,2,2V9A2,2,0,0,1,11,11ZM4,3A1,1,0,0,0,3,4V9a1,1,0,0,0,1,1h7a1,1,0,0,0,1-1V4a1,1,0,0,0-1-1Z"/><path class="cls-1" d="M28,24H21a2,2,0,0,1-2-2V17a2,2,0,0,1,2-2h7a2,2,0,0,1,2,2v5A2,2,0,0,1,28,24Zm-7-8a1,1,0,0,0-1,1v5a1,1,0,0,0,1,1h7a1,1,0,0,0,1-1V17a1,1,0,0,0-1-1Z"/><rect class="cls-1" x="21.5" y="17.75" width="6" height="1"/><rect class="cls-1" x="21.5" y="20.3" width="6" height="1"/><path class="cls-2" d="M22,30H10a2,2,0,0,1-2-2V13H9V28a1,1,0,0,0,1,1H22a1,1,0,0,0,1-1V26h1v2A2,2,0,0,1,22,30Z"/><path class="cls-2" d="M17,26a1,1,0,1,0-1,1A1,1,0,0,0,17,26Z"/><polygon class="cls-1" points="10 6.5 6 4 6 9.03 10 6.5"/><path class="cls-2" d="M24,13H23V6a1,1,0,0,0-1-1H15V4h7a2,2,0,0,1,2,2Z"/></g></svg>