<svg xmlns="http://www.w3.org/2000/svg" viewBox="0 0 32 32"><defs><style>.cls-1{fill:#5db18c;}.cls-2{fill:#fff;}</style></defs><title>polaris-icons</title><g id="Path"><path class="cls-1" d="M21,29H20a4,4,0,0,0-8,0H11a5,5,0,0,1,10,0Z"/><rect class="cls-2" x="21" y="6.78" width="1" height="5.22"/><path class="cls-2" d="M17.5,16A4.27,4.27,0,0,1,13,12V10h1v2a3.29,3.29,0,0,0,3.5,3A3.29,3.29,0,0,0,21,12h1A4.27,4.27,0,0,1,17.5,16Z"/><path class="cls-2" d="M21.5,7a2,2,0,1,1,2-2A2,2,0,0,1,21.5,7Zm0-3a1,1,0,1,0,1,1A1,1,0,0,0,21.5,4Z"/><path class="cls-1" d="M16,23a2,2,0,1,1,2-2A2,2,0,0,1,16,23Zm0-3a1,1,0,1,0,1,1A1,1,0,0,0,16,20Z"/><path class="cls-2" d="M23.5,29.5H8.5V18.31a5.86,5.86,0,0,1,3.28-5.23l.44.9A4.85,4.85,0,0,0,9.5,18.31V28.5h13V13h1Z"/></g></svg>