<svg xmlns="http://www.w3.org/2000/svg" viewBox="0 0 32 32"><defs><style>.cls-1{fill:#fff;}.cls-2{fill:#5db18c;}</style></defs><title>polaris-icons</title><g id="Path"><polygon class="cls-1" points="20 30 4 30 4 9 5 9 5 29 20 29 20 30"/><polygon class="cls-1" points="23 27 7 27 7 6 8 6 8 26 23 26 23 27"/><rect class="cls-2" x="15" y="11" width="9" height="1"/><rect class="cls-2" x="15" y="15.02" width="9" height="1"/><rect class="cls-2" x="15" y="19" width="9" height="1"/><circle class="cls-2" cx="13.5" cy="19.53" r="0.5"/><circle class="cls-2" cx="13.5" cy="15.53" r="0.5"/><circle class="cls-2" cx="13.5" cy="11.52" r="0.5"/><path class="cls-1" d="M22,2H14.33A4.33,4.33,0,0,0,10,6.34V24H27V7h0Zm4,21H11V6.34A3.34,3.34,0,0,1,14.33,3H21V8h5V23ZM22,7V3.42L25.59,7Z"/></g></svg>