<svg xmlns="http://www.w3.org/2000/svg" viewBox="0 0 32 32"><defs><style>.cls-1{fill:#5db18c;}.cls-2{fill:#fff;}</style></defs><title>polaris-icons</title><g id="Path"><rect class="cls-1" x="15" y="7" width="2" height="13"/><rect class="cls-1" x="19" y="15" width="2" height="5"/><rect class="cls-1" x="11" y="12" width="2" height="8"/><path class="cls-2" d="M16.5,4V2h-1V4H12.33A4.33,4.33,0,0,0,8,8.34V23h7.5v6H12v1h8V29H16.5V23H19V22H9V8.34A3.34,3.34,0,0,1,12.33,5H23V19h1V4Z"/><path class="cls-1" d="M24.51,30a4.49,4.49,0,0,1-3.67-1.88,4.5,4.5,0,0,1,1-6.28,4.51,4.51,0,0,1,6.28,1h0A4.5,4.5,0,0,1,24.51,30Zm0-8a3.5,3.5,0,0,0-2.84,5.54,3.5,3.5,0,1,0,5.68-4.08h0A3.49,3.49,0,0,0,24.5,22Z"/><polygon class="cls-1" points="25.76 27.87 24 26.22 24 23 25 23 25 25.78 26.44 27.14 25.76 27.87"/></g></svg>