<svg xmlns="http://www.w3.org/2000/svg" viewBox="0 0 32 32"><defs><style>.cls-1{fill:#fff;}.cls-2{fill:#5db18c;}</style></defs><title>polaris-icons</title><g id="Path"><path class="cls-1" d="M22.21,26H9.79L6,22.21V9.79L9.79,6H22.21L26,9.79V22.21Zm-12-1H21.79L25,21.79V10.21L21.79,7H10.21L7,10.21V21.79Z"/><rect class="cls-1" x="11" y="2" width="1" height="3"/><rect class="cls-1" x="15.5" y="2" width="1" height="3"/><rect class="cls-1" x="20" y="2" width="1" height="3"/><rect class="cls-1" x="11" y="27" width="1" height="3"/><rect class="cls-1" x="15.5" y="27" width="1" height="3"/><rect class="cls-1" x="20" y="27" width="1" height="3"/><rect class="cls-1" x="27" y="11" width="3" height="1"/><rect class="cls-1" x="27" y="15.5" width="3" height="1"/><rect class="cls-1" x="27" y="20" width="3" height="1"/><rect class="cls-1" x="2" y="11" width="3" height="1"/><rect class="cls-1" x="2" y="15.5" width="3" height="1"/><rect class="cls-1" x="2" y="20" width="3" height="1"/><path class="cls-2" d="M21,19a2,2,0,0,0-1,.28L17.72,17a2,2,0,0,0,0-2L20,12.72A2,2,0,0,0,21,13a2,2,0,1,0-2-2,2,2,0,0,0,.28,1L17,14.28a2,2,0,0,0-2,0L12.72,12A2,2,0,0,0,13,11a2,2,0,1,0-2,2,2,2,0,0,0,1-.28L14.28,15a2,2,0,0,0,0,2L12,19.28A2,2,0,0,0,11,19a2,2,0,1,0,2,2,2,2,0,0,0-.28-1L15,17.72a2,2,0,0,0,2,0L19.28,20A2,2,0,0,0,19,21a2,2,0,1,0,2-2Zm0-9a1,1,0,1,1-1,1A1,1,0,0,1,21,10ZM10,11a1,1,0,1,1,1,1A1,1,0,0,1,10,11Zm1,11a1,1,0,1,1,1-1A1,1,0,0,1,11,22Zm5-5a1,1,0,1,1,1-1A1,1,0,0,1,16,17Zm5,5a1,1,0,1,1,1-1A1,1,0,0,1,21,22Z"/></g></svg>