<svg xmlns="http://www.w3.org/2000/svg" viewBox="0 0 32 32"><defs><style>.cls-1{fill:#5db18c;}.cls-2{fill:#fff;}</style></defs><title>polaris-icons</title><g id="Path"><path class="cls-1" d="M16,30C8.15,30,2,27.61,2,24.56c0-2.1,2.77-3.94,7.4-4.91l.2,1C5.65,21.45,3,23,3,24.56,3,26.66,8.34,29,16,29s13-2.34,13-4.44c0-1.53-2.65-3.11-6.6-3.93l.2-1c4.63,1,7.4,2.81,7.4,4.91C30,27.61,23.85,30,16,30Z"/><path class="cls-2" d="M16,25.63,8.82,16.52a9.11,9.11,0,1,1,14.36,0ZM16,2.81A8.1,8.1,0,0,0,9.61,15.9L16,24l6.4-8.11A8.11,8.11,0,0,0,16,2.81Z"/><circle class="cls-1" cx="16" cy="16.5" r="0.75"/><rect class="cls-1" x="15.25" y="4.75" width="1.5" height="9.5"/></g></svg>