<?xml version="1.0" encoding="utf-8"?>
<!-- Generator: Adobe Illustrator 24.0.0, SVG Export Plug-In . SVG Version: 6.00 Build 0)  -->
<svg version="1.1" id="Layer_1" xmlns="http://www.w3.org/2000/svg" xmlns:xlink="http://www.w3.org/1999/xlink" x="0px" y="0px"
	 viewBox="0 0 32 32" style="enable-background:new 0 0 32 32;" xml:space="preserve">
<style type="text/css">
	.st0{fill:url(#SVGID_1_);}
	.st1{fill:url(#SVGID_2_);}
</style>
<title>polaris-icons</title>
<g>
	<linearGradient id="SVGID_1_" gradientUnits="userSpaceOnUse" x1="20.0468" y1="22.9529" x2="23.9532" y2="19.0465">
		<stop  offset="0" style="stop-color:#28726E"/>
		<stop  offset="0.1014" style="stop-color:#2E7970"/>
		<stop  offset="0.2444" style="stop-color:#3D8B77"/>
		<stop  offset="0.4114" style="stop-color:#56A983"/>
		<stop  offset="0.4162" style="stop-color:#57AA83"/>
		<stop  offset="0.6542" style="stop-color:#69BD93"/>
		<stop  offset="1" style="stop-color:#8BDFAF"/>
	</linearGradient>
	<path class="st0" d="M23,23.5v-4.9c0-0.6-0.4-1-1-1l0,0c-0.6,0-1,0.5-1,1v4.9c0,0.6,0.4,1,1,1l0,0C22.6,24.5,23,24,23,23.5z"/>
	<linearGradient id="SVGID_2_" gradientUnits="userSpaceOnUse" x1="8.0468" y1="22.9529" x2="11.9532" y2="19.0465">
		<stop  offset="0" style="stop-color:#28726E"/>
		<stop  offset="0.1014" style="stop-color:#2E7970"/>
		<stop  offset="0.2444" style="stop-color:#3D8B77"/>
		<stop  offset="0.4114" style="stop-color:#56A983"/>
		<stop  offset="0.4162" style="stop-color:#57AA83"/>
		<stop  offset="0.6542" style="stop-color:#69BD93"/>
		<stop  offset="1" style="stop-color:#8BDFAF"/>
	</linearGradient>
	<path class="st1" d="M11,23.5v-4.9c0-0.6-0.4-1-1-1l0,0c-0.6,0-1,0.5-1,1v4.9c0,0.6,0.4,1,1,1l0,0C10.6,24.5,11,24,11,23.5z"/>
	<g>
		<path d="M25,21.5h-1v-6c0-4.4-3.6-8-8-8s-8,3.6-8,8v6H7v-6c0-5,4-9,9-9s9,4,9,9V21.5z"/>
	</g>
	<g>
		<path d="M16,30.5c-7.7,0-14-6.3-14-14s6.3-14,14-14s14,6.3,14,14S23.7,30.5,16,30.5z M16,3.5c-7.2,0-13,5.8-13,13s5.8,13,13,13
			s13-5.8,13-13S23.2,3.5,16,3.5z"/>
	</g>
</g>
</svg>
