<?xml version="1.0" encoding="utf-8"?>
<!-- Generator: Adobe Illustrator 24.0.0, SVG Export Plug-In . SVG Version: 6.00 Build 0)  -->
<svg version="1.1" id="Layer_1" xmlns="http://www.w3.org/2000/svg" xmlns:xlink="http://www.w3.org/1999/xlink" x="0px" y="0px"
	 viewBox="0 0 32 32" style="enable-background:new 0 0 32 32;" xml:space="preserve">
<style type="text/css">
	.st0{fill:url(#SVGID_1_);}
</style>
<title>polaris-icons</title>
<g>
	<g>
		<path d="M25,16.6h-2v-1h2c2.2,0,4-1.8,4-4s-1.8-4-4-4H9v-1h16c2.8,0,5,2.2,5,5S27.8,16.6,25,16.6z"/>
	</g>
	<g>
		<path d="M23,25.6H7c-2.8,0-5-2.2-5-5s2.2-5,5-5h2v1H7c-2.2,0-4,1.8-4,4s1.8,4,4,4h16V25.6z"/>
	</g>
	<linearGradient id="SVGID_1_" gradientUnits="userSpaceOnUse" x1="12.1332" y1="19.2666" x2="19.8668" y2="11.5329">
		<stop  offset="0" style="stop-color:#28726E"/>
		<stop  offset="0.1014" style="stop-color:#2E7970"/>
		<stop  offset="0.2444" style="stop-color:#3D8B77"/>
		<stop  offset="0.4114" style="stop-color:#56A983"/>
		<stop  offset="0.4162" style="stop-color:#57AA83"/>
		<stop  offset="0.6542" style="stop-color:#69BD93"/>
		<stop  offset="1" style="stop-color:#8BDFAF"/>
	</linearGradient>
	<path class="st0" d="M20.9,13.3c-2.7-0.2-1.9-2.7-1.9-2.7c-1.5-0.6-3-0.6-3-0.6s-1.4-0.1-3,0.6c0,0,0.8,2.5-1.9,2.7
		c0,0-1.3,6.3,4.9,8.7C22.2,19.7,20.9,13.3,20.9,13.3z"/>
	<g>
		<path d="M5,9.1c-1.1,0-2-0.9-2-2s0.9-2,2-2s2,0.9,2,2S6.1,9.1,5,9.1z M5,6.1c-0.6,0-1,0.4-1,1s0.4,1,1,1s1-0.4,1-1S5.6,6.1,5,6.1z
			"/>
	</g>
	<g>
		<path d="M27,26.9c-1.1,0-2-0.9-2-2s0.9-2,2-2s2,0.9,2,2S28.1,26.9,27,26.9z M27,23.9c-0.6,0-1,0.4-1,1s0.4,1,1,1s1-0.4,1-1
			S27.6,23.9,27,23.9z"/>
	</g>
</g>
</svg>
