<?xml version="1.0" encoding="utf-8"?>
<!-- Generator: Adobe Illustrator 24.0.0, SVG Export Plug-In . SVG Version: 6.00 Build 0)  -->
<svg version="1.1" id="Layer_1" xmlns="http://www.w3.org/2000/svg" xmlns:xlink="http://www.w3.org/1999/xlink" x="0px" y="0px"
	 viewBox="0 0 32 32" style="enable-background:new 0 0 32 32;" xml:space="preserve">
<style type="text/css">
	.st0{fill:url(#SVGID_1_);}
</style>
<title>polaris-icons</title>
<g>
	<g>
		<g>
			<linearGradient id="SVGID_1_" gradientUnits="userSpaceOnUse" x1="14.588" y1="17.9144" x2="17.4149" y2="15.0875">
				<stop  offset="0" style="stop-color:#28726E"/>
				<stop  offset="0.1014" style="stop-color:#2E7970"/>
				<stop  offset="0.2444" style="stop-color:#3D8B77"/>
				<stop  offset="0.4114" style="stop-color:#56A983"/>
				<stop  offset="0.4162" style="stop-color:#57AA83"/>
				<stop  offset="0.6542" style="stop-color:#69BD93"/>
				<stop  offset="1" style="stop-color:#8BDFAF"/>
			</linearGradient>
			<path class="st0" d="M16,18.5c-1.1,0-2-0.9-2-2s0.9-2,2-2s2,0.9,2,2S17.1,18.5,16,18.5z M16,15.5c-0.6,0-1,0.4-1,1s0.4,1,1,1
				s1-0.4,1-1S16.6,15.5,16,15.5z"/>
		</g>
	</g>
	<g>
		<rect x="15.5" y="8.5" width="1" height="3.5"/>
	</g>
	<g>
		<rect x="15.5" y="21" width="1" height="3.5"/>
	</g>
	<g>
		<rect x="20.4" y="16" width="3.6" height="1"/>
	</g>
	<g>
		<rect x="9.3" y="14.7" transform="matrix(1.395088e-03 -1 1 1.395088e-03 -6.7607 26.227)" width="1" height="3.5"/>
	</g>
	<g>
		<path d="M16,6.5c-1.1,0-2-0.9-2-2s0.9-2,2-2s2,0.9,2,2S17.1,6.5,16,6.5z M16,3.5c-0.6,0-1,0.4-1,1s0.4,1,1,1s1-0.4,1-1
			S16.6,3.5,16,3.5z"/>
	</g>
	<g>
		<path d="M16,30.5c-1.1,0-2-0.9-2-2s0.9-2,2-2s2,0.9,2,2S17.1,30.5,16,30.5z M16,27.5c-0.6,0-1,0.4-1,1s0.4,1,1,1s1-0.4,1-1
			S16.6,27.5,16,27.5z"/>
	</g>
	<g>
		<path d="M4,18.5c-1.1,0-2-0.9-2-2s0.9-2,2-2s2,0.9,2,2S5.1,18.5,4,18.5z M4,15.5c-0.6,0-1,0.4-1,1s0.4,1,1,1s1-0.4,1-1
			S4.6,15.5,4,15.5z"/>
	</g>
	<g>
		<path d="M28,18.5c-1.1,0-2-0.9-2-2s0.9-2,2-2s2,0.9,2,2S29.1,18.5,28,18.5z M28,15.5c-0.6,0-1,0.4-1,1s0.4,1,1,1s1-0.4,1-1
			S28.6,15.5,28,15.5z"/>
	</g>
	<g>
		<rect x="22" y="5.4" transform="matrix(0.7072 -0.7071 0.7071 0.7072 -0.4987 18.8798)" width="1" height="9.2"/>
	</g>
	<g>
		<rect x="17.4" y="22" transform="matrix(0.7071 -0.7071 0.7071 0.7071 -9.4662 22.1476)" width="9.2" height="1"/>
	</g>
	<g>
		<rect x="9.5" y="17.9" transform="matrix(0.7071 -0.7072 0.7072 0.7071 -12.9816 13.6641)" width="1" height="9.2"/>
	</g>
	<g>
		<rect x="4.9" y="9.5" transform="matrix(0.7071 -0.7071 0.7071 0.7071 -4.33 9.6304)" width="9.2" height="1"/>
	</g>
</g>
</svg>
