<?xml version="1.0" encoding="utf-8"?>
<!-- Generator: Adobe Illustrator 24.0.0, SVG Export Plug-In . SVG Version: 6.00 Build 0)  -->
<svg version="1.1" id="Layer_1" xmlns="http://www.w3.org/2000/svg" xmlns:xlink="http://www.w3.org/1999/xlink" x="0px" y="0px"
	 viewBox="0 0 32 32" style="enable-background:new 0 0 32 32;" xml:space="preserve">
<style type="text/css">
	.st0{fill:url(#SVGID_1_);}
</style>
<title>polaris-icons</title>
<g>
	<g>
		<path d="M3,11.5H2V7.1c0-2.6,2.1-4.6,4.6-4.6H11v1H6.6C4.6,3.5,3,5.1,3,7.1V11.5z"/>
	</g>
	<g>
		<path d="M30,11.5h-1V7.1c0-2-1.6-3.6-3.6-3.6H21v-1h4.4c2.6,0,4.6,2.1,4.6,4.6V11.5z"/>
	</g>
	<g>
		<path d="M25.4,30.5H21v-1h4.4c2,0,3.6-1.6,3.6-3.6v-4.4h1v4.4C30,28.4,27.9,30.5,25.4,30.5z"/>
	</g>
	<g>
		<path d="M11,30.5H6.6c-2.6,0-4.6-2.1-4.6-4.6v-4.4h1v4.4c0,2,1.6,3.6,3.6,3.6H11V30.5z"/>
	</g>
	<g>
		<g>
			<linearGradient id="SVGID_1_" gradientUnits="userSpaceOnUse" x1="8.75" y1="23.75" x2="23.25" y2="9.25">
				<stop  offset="0" style="stop-color:#28726E"/>
				<stop  offset="0.1014" style="stop-color:#2E7970"/>
				<stop  offset="0.2444" style="stop-color:#3D8B77"/>
				<stop  offset="0.4114" style="stop-color:#56A983"/>
				<stop  offset="0.4162" style="stop-color:#57AA83"/>
				<stop  offset="0.6542" style="stop-color:#69BD93"/>
				<stop  offset="1" style="stop-color:#8BDFAF"/>
			</linearGradient>
			<rect x="2" y="16" class="st0" width="28" height="1"/>
		</g>
	</g>
</g>
</svg>
