<?xml version="1.0" encoding="utf-8"?>
<!-- Generator: Adobe Illustrator 24.0.0, SVG Export Plug-In . SVG Version: 6.00 Build 0)  -->
<svg version="1.1" id="Layer_1" xmlns="http://www.w3.org/2000/svg" xmlns:xlink="http://www.w3.org/1999/xlink" x="0px" y="0px"
	 viewBox="0 0 32 32" style="enable-background:new 0 0 32 32;" xml:space="preserve">
<style type="text/css">
	.st0{fill:url(#SVGID_1_);}
</style>
<title>polaris-icons</title>
<g>
	<polygon points="10,3 10,2 2,2 2,10 3,10 3,3.7 10.7,11.4 11.4,10.7 3.7,3 	"/>
	<polygon points="29,28.3 21.4,20.6 20.6,21.4 28.3,29 22,29 22,30 30,30 30,22 29,22 	"/>
	<polygon points="22,2 22,3 28.3,3 20.6,10.7 21.3,11.4 29,3.7 29,10 30,10 30,2 	"/>
	<polygon points="10.6,20.6 3,28.3 3,22 2,22 2,30 10,30 10,29 3.7,29 11.3,21.4 	"/>
</g>
<g>
	<g>
		<linearGradient id="SVGID_1_" gradientUnits="userSpaceOnUse" x1="12.4374" y1="19.5348" x2="19.505" y2="12.4672">
			<stop  offset="0" style="stop-color:#28726E"/>
			<stop  offset="0.1014" style="stop-color:#2E7970"/>
			<stop  offset="0.2444" style="stop-color:#3D8B77"/>
			<stop  offset="0.4114" style="stop-color:#56A983"/>
			<stop  offset="0.4162" style="stop-color:#57AA83"/>
			<stop  offset="0.6542" style="stop-color:#69BD93"/>
			<stop  offset="1" style="stop-color:#8BDFAF"/>
		</linearGradient>
		<path class="st0" d="M16,21c-2.8,0-5-2.2-5-5s2.2-5,5-5s5,2.2,5,5S18.7,21,16,21z M16,12c-2.2,0-4,1.8-4,4s1.8,4,4,4s4-1.8,4-4
			S18.2,12,16,12z"/>
	</g>
</g>
</svg>
