<?xml version="1.0" encoding="utf-8"?>
<!-- Generator: Adobe Illustrator 24.0.0, SVG Export Plug-In . SVG Version: 6.00 Build 0)  -->
<svg version="1.1" id="Layer_1" xmlns="http://www.w3.org/2000/svg" xmlns:xlink="http://www.w3.org/1999/xlink" x="0px" y="0px"
	 viewBox="0 0 32 32" style="enable-background:new 0 0 32 32;" xml:space="preserve">
<style type="text/css">
	.st0{fill:url(#SVGID_1_);}
</style>
<title>polaris-icons</title>
<g>
	<linearGradient id="SVGID_1_" gradientUnits="userSpaceOnUse" x1="10.8481" y1="13.3481" x2="22.3481" y2="1.8481">
		<stop  offset="0" style="stop-color:#28726E"/>
		<stop  offset="0.1014" style="stop-color:#2E7970"/>
		<stop  offset="0.2444" style="stop-color:#3D8B77"/>
		<stop  offset="0.4114" style="stop-color:#56A983"/>
		<stop  offset="0.4162" style="stop-color:#57AA83"/>
		<stop  offset="0.6542" style="stop-color:#69BD93"/>
		<stop  offset="1" style="stop-color:#8BDFAF"/>
	</linearGradient>
	<path class="st0" d="M23,11.5H9V6.6c0-2.2,1.8-4.1,4.1-4.1H23V11.5z M10,10.5h12v-7h-8.9c-1.7,0-3.1,1.4-3.1,3.1V10.5z"/>
	<polygon points="25,17.5 24,17.5 24,14.5 8,14.5 8,17.5 7,17.5 7,13.5 25,13.5 	"/>
	<path d="M13,27.5H2v-3.9c0-2.2,1.8-4.1,4.1-4.1H13V27.5z M3,26.5h9v-6H6.1c-1.7,0-3.1,1.4-3.1,3.1V26.5z"/>
	<path d="M30,27.5H19v-3.9c0-2.2,1.8-4.1,4.1-4.1H30V27.5z M20,26.5h9v-6h-5.9c-1.7,0-3.1,1.4-3.1,3.1V26.5z"/>
	<rect x="2" y="29.5" width="11" height="1"/>
	<rect x="19" y="29.5" width="11" height="1"/>
</g>
</svg>
