<?xml version="1.0" encoding="utf-8"?>
<!-- Generator: Adobe Illustrator 24.0.0, SVG Export Plug-In . SVG Version: 6.00 Build 0)  -->
<svg version="1.1" id="Layer_1" xmlns="http://www.w3.org/2000/svg" xmlns:xlink="http://www.w3.org/1999/xlink" x="0px" y="0px"
	 viewBox="0 0 32 32" style="enable-background:new 0 0 32 32;" xml:space="preserve">
<style type="text/css">
	.st0{fill:none;stroke:#000000;stroke-miterlimit:10;}
	.st1{fill:url(#SVGID_1_);}
	.st2{fill:url(#SVGID_2_);}
</style>
<title>polaris-icons</title>
<g>
	<path class="st0" d="M16,16.5"/>
</g>
<g>
	<g>
		<linearGradient id="SVGID_1_" gradientUnits="userSpaceOnUse" x1="8.9324" y1="23.5681" x2="23.0676" y2="9.4329">
			<stop  offset="0" style="stop-color:#28726E"/>
			<stop  offset="0.1014" style="stop-color:#2E7970"/>
			<stop  offset="0.2444" style="stop-color:#3D8B77"/>
			<stop  offset="0.4114" style="stop-color:#56A983"/>
			<stop  offset="0.4162" style="stop-color:#57AA83"/>
			<stop  offset="0.6542" style="stop-color:#69BD93"/>
			<stop  offset="1" style="stop-color:#8BDFAF"/>
		</linearGradient>
		<path class="st1" d="M16,6.5c-5.5,0-10,4.5-10,10s4.5,10,10,10s10-4.5,10-10S21.5,6.5,16,6.5z M16,25.5c-5,0-9-4-9-9s4-9,9-9
			s9,4,9,9S21,25.5,16,25.5z"/>
		<linearGradient id="SVGID_2_" gradientUnits="userSpaceOnUse" x1="12.4014" y1="20.4019" x2="20.0757" y2="12.7275">
			<stop  offset="0" style="stop-color:#28726E"/>
			<stop  offset="0.1014" style="stop-color:#2E7970"/>
			<stop  offset="0.2444" style="stop-color:#3D8B77"/>
			<stop  offset="0.4114" style="stop-color:#56A983"/>
			<stop  offset="0.4162" style="stop-color:#57AA83"/>
			<stop  offset="0.6542" style="stop-color:#69BD93"/>
			<stop  offset="1" style="stop-color:#8BDFAF"/>
		</linearGradient>
		<path class="st2" d="M16.4,13.1c0.8,0,1.7,0.3,2.3,0.9c0.1,0.1,0.2,0.2,0.3,0.3l0.7-0.7c-0.1-0.1-0.2-0.2-0.3-0.3
			c-0.4-0.4-0.9-0.6-1.4-0.8v-1.7h-1v1.5c-0.2,0-0.4-0.1-0.6-0.1c-0.3,0-0.6,0-0.9,0.1v-1.5h-1v1.9c-1.5,0.7-2.5,2.2-2.5,4
			s1,3.2,2.5,4v2h1v-1.7c0.3,0.1,0.6,0.1,0.9,0.1c0.2,0,0.4,0,0.6-0.1v1.6h1v-1.8c0.5-0.2,1-0.5,1.4-0.8c0.1-0.1,0.2-0.2,0.3-0.3
			L19,18.8c-0.1,0.1-0.2,0.2-0.3,0.2c-0.6,0.6-1.4,0.9-2.3,0.9c-1.9,0-3.4-1.5-3.4-3.4C13,14.6,14.5,13.1,16.4,13.1z"/>
	</g>
</g>
<g>
	<path d="M28.9,10.3c0.5-0.4,0.8-0.9,0.8-1.6c0-1.1-0.9-2-2-2s-2,0.9-2,2s0.9,2,2,2c0.1,0,0.2,0,0.3,0c0.9,1.8,1.4,3.8,1.4,5.8
		c0,7.4-6,13.4-13.4,13.4c-2.2,0-4.5-0.6-6.4-1.6l-0.5,0.9c2.1,1.2,4.5,1.8,6.9,1.8c7.9,0,14.4-6.4,14.4-14.4
		C30.4,14.3,29.9,12.2,28.9,10.3z M26.8,8.7c0-0.6,0.4-1,1-1s1,0.4,1,1s-0.4,1-1,1S26.8,9.2,26.8,8.7z"/>
	<path d="M6.3,24.6c-0.3,0-0.5,0.1-0.8,0.2c-0.1-0.2-0.3-0.4-0.4-0.5C5,24.1,4.9,24,4.9,23.9c-0.2-0.3-0.4-0.7-0.6-1c0,0,0,0,0,0
		c-0.4-0.7-0.7-1.5-1-2.3c-0.4-1.3-0.7-2.7-0.7-4.2c0-7.4,6-13.4,13.4-13.4c3.1,0,6,1.1,8.4,3L25,5.3c-2.5-2.1-5.8-3.2-9-3.2
		C8.1,2.1,1.6,8.6,1.6,16.5c0,1.5,0.2,3,0.7,4.4c0,0,0,0.1,0.1,0.2c0.1,0.2,0.1,0.3,0.2,0.5c0.4,1,0.8,1.9,1.4,2.7c0,0,0,0,0,0.1
		c0.2,0.3,0.4,0.5,0.6,0.8c0,0.1,0.1,0.1,0.1,0.2l0,0c0,0,0,0,0,0c-0.3,0.3-0.4,0.8-0.4,1.2c0,1.1,0.9,2,2,2s2-0.9,2-2
		S7.4,24.6,6.3,24.6z M6.3,27.6c-0.6,0-1-0.4-1-1s0.4-1,1-1s1,0.4,1,1S6.8,27.6,6.3,27.6z"/>
</g>
</svg>
