<?xml version="1.0" encoding="utf-8"?>
<!-- Generator: Adobe Illustrator 24.0.0, SVG Export Plug-In . SVG Version: 6.00 Build 0)  -->
<svg version="1.1" id="Layer_1" xmlns="http://www.w3.org/2000/svg" xmlns:xlink="http://www.w3.org/1999/xlink" x="0px" y="0px"
	 viewBox="0 0 32 32" style="enable-background:new 0 0 32 32;" xml:space="preserve">
<style type="text/css">
	.st0{fill:url(#SVGID_1_);}
	.st1{fill:url(#SVGID_2_);}
	.st2{fill:url(#SVGID_3_);}
	.st3{fill:url(#SVGID_4_);}
</style>
<title>polaris-icons</title>
<g>
	<linearGradient id="SVGID_1_" gradientUnits="userSpaceOnUse" x1="11.9368" y1="25.9951" x2="19.9368" y2="17.9951">
		<stop  offset="0" style="stop-color:#28726E"/>
		<stop  offset="0.1014" style="stop-color:#2E7970"/>
		<stop  offset="0.2444" style="stop-color:#3D8B77"/>
		<stop  offset="0.4114" style="stop-color:#56A983"/>
		<stop  offset="0.4162" style="stop-color:#57AA83"/>
		<stop  offset="0.6542" style="stop-color:#69BD93"/>
		<stop  offset="1" style="stop-color:#8BDFAF"/>
	</linearGradient>
	<rect x="8.4" y="21.5" class="st0" width="15" height="1"/>
	<linearGradient id="SVGID_2_" gradientUnits="userSpaceOnUse" x1="10.0232" y1="27.4184" x2="12.8503" y2="24.5913">
		<stop  offset="0" style="stop-color:#28726E"/>
		<stop  offset="0.1014" style="stop-color:#2E7970"/>
		<stop  offset="0.2444" style="stop-color:#3D8B77"/>
		<stop  offset="0.4114" style="stop-color:#56A983"/>
		<stop  offset="0.4162" style="stop-color:#57AA83"/>
		<stop  offset="0.6542" style="stop-color:#69BD93"/>
		<stop  offset="1" style="stop-color:#8BDFAF"/>
	</linearGradient>
	<path class="st1" d="M11.4,24c-1.1,0-2,0.9-2,2s0.9,2,2,2s2-0.9,2-2S12.5,24,11.4,24z M11.4,27c-0.6,0-1-0.4-1-1s0.4-1,1-1
		s1,0.4,1,1S12,27,11.4,27z"/>
	<linearGradient id="SVGID_3_" gradientUnits="userSpaceOnUse" x1="20.0232" y1="27.4184" x2="22.8503" y2="24.5913">
		<stop  offset="0" style="stop-color:#28726E"/>
		<stop  offset="0.1014" style="stop-color:#2E7970"/>
		<stop  offset="0.2444" style="stop-color:#3D8B77"/>
		<stop  offset="0.4114" style="stop-color:#56A983"/>
		<stop  offset="0.4162" style="stop-color:#57AA83"/>
		<stop  offset="0.6542" style="stop-color:#69BD93"/>
		<stop  offset="1" style="stop-color:#8BDFAF"/>
	</linearGradient>
	<path class="st2" d="M21.4,24c-1.1,0-2,0.9-2,2s0.9,2,2,2s2-0.9,2-2S22.5,24,21.4,24z M21.4,27c-0.6,0-1-0.4-1-1s0.4-1,1-1
		s1,0.4,1,1S22,27,21.4,27z"/>
	<linearGradient id="SVGID_4_" gradientUnits="userSpaceOnUse" x1="7.002" y1="18.9778" x2="24.024" y2="1.9559">
		<stop  offset="0" style="stop-color:#28726E"/>
		<stop  offset="0.1014" style="stop-color:#2E7970"/>
		<stop  offset="0.2444" style="stop-color:#3D8B77"/>
		<stop  offset="0.4114" style="stop-color:#56A983"/>
		<stop  offset="0.4162" style="stop-color:#57AA83"/>
		<stop  offset="0.6542" style="stop-color:#69BD93"/>
		<stop  offset="1" style="stop-color:#8BDFAF"/>
	</linearGradient>
	<path class="st3" d="M6.9,8L6.6,6.4C6.4,5.6,5.7,5,4.9,5h-3v1h3c0.3,0,0.6,0.2,0.7,0.6l0.7,3.8L8,20h14.5c2.8,0,5.2-1.9,5.9-4.7
		L30.1,8H6.9z M27.4,15.1c-0.5,2.3-2.5,3.9-4.9,3.9H8.9l-1.3-7.3h0l-0.1-0.4L7,9h21.8L27.4,15.1z"/>
</g>
</svg>
