<?xml version="1.0" encoding="utf-8"?>
<!-- Generator: Adobe Illustrator 24.0.0, SVG Export Plug-In . SVG Version: 6.00 Build 0)  -->
<svg version="1.1" id="Layer_1" xmlns="http://www.w3.org/2000/svg" xmlns:xlink="http://www.w3.org/1999/xlink" x="0px" y="0px"
	 viewBox="0 0 32 32" style="enable-background:new 0 0 32 32;" xml:space="preserve">
<style type="text/css">
	.st0{fill:none;}
	.st1{fill:url(#SVGID_1_);}
	.st2{fill:#FFFFFF;}
	.st3{fill:url(#SVGID_2_);}
	.st4{fill:url(#SVGID_3_);}
</style>
<title>polaris-icons</title>
<g>
	<path class="st0" d="M20.1,25.1v5h5.8c2.2,0,3.9-1.7,3.9-3.9V16c0-3-2.5-5.5-5.5-5.5h-4.5v1.2c0,2.1-1.7,3.8-3.8,3.8h0
		c-2.1,0-3.8-1.7-3.8-3.8v-1.2H7.7c-3,0-5.5,2.5-5.5,5.5v10.1c0,2.2,1.7,3.9,3.9,3.9h6.1v-5"/>
	<path d="M25.9,30.6h-6.3v-5.5h1v4.5h5.3c1.9,0,3.4-1.5,3.4-3.4V16c0-2.8-2.2-5-5-5h-4v0.7c0,2.4-2,4.3-4.3,4.3s-4.3-2-4.3-4.3v-0.7
		h-4c-2.8,0-5,2.2-5,5v10.1c0,1.9,1.5,3.4,3.4,3.4h5.6v-4.5h1v5.5H6.1c-2.4,0-4.4-2-4.4-4.4V16c0-3.3,2.7-6,6-6h5v1.7
		c0,1.8,1.5,3.3,3.3,3.3s3.3-1.5,3.3-3.3v-1.7h5c3.3,0,6,2.7,6,6v10.1C30.3,28.6,28.4,30.6,25.9,30.6z"/>
	<circle cx="23.7" cy="16.5" r="1"/>
	<circle cx="23.7" cy="20.5" r="1"/>
	<circle cx="21.7" cy="18.5" r="1"/>
	<circle cx="25.7" cy="18.5" r="1"/>
	<linearGradient id="SVGID_1_" gradientUnits="userSpaceOnUse" x1="15.4232" y1="11.7591" x2="16.8395" y2="10.3428">
		<stop  offset="0" style="stop-color:#28726E"/>
		<stop  offset="0.1014" style="stop-color:#2E7970"/>
		<stop  offset="0.2444" style="stop-color:#3D8B77"/>
		<stop  offset="0.4114" style="stop-color:#56A983"/>
		<stop  offset="0.4162" style="stop-color:#57AA83"/>
		<stop  offset="0.6542" style="stop-color:#69BD93"/>
		<stop  offset="1" style="stop-color:#8BDFAF"/>
	</linearGradient>
	<circle class="st1" cx="16.1" cy="11.1" r="1"/>
	<line class="st2" x1="5.6" y1="18.6" x2="11.6" y2="18.6"/>
	<rect x="5.6" y="18.1" width="6" height="1"/>
	<line class="st2" x1="8.6" y1="15.6" x2="8.6" y2="21.5"/>
	<rect x="8.1" y="15.6" width="1" height="6"/>
	<linearGradient id="SVGID_2_" gradientUnits="userSpaceOnUse" x1="14.2668" y1="10.0788" x2="17.9988" y2="6.3467">
		<stop  offset="0" style="stop-color:#28726E"/>
		<stop  offset="0.1014" style="stop-color:#2E7970"/>
		<stop  offset="0.2444" style="stop-color:#3D8B77"/>
		<stop  offset="0.4114" style="stop-color:#56A983"/>
		<stop  offset="0.4162" style="stop-color:#57AA83"/>
		<stop  offset="0.6542" style="stop-color:#69BD93"/>
		<stop  offset="1" style="stop-color:#8BDFAF"/>
	</linearGradient>
	<path class="st3" d="M19.1,8.9c-0.8-0.8-1.8-1.3-3-1.3s-2.2,0.5-3,1.3l-0.7-0.7c0.9-1.1,2.3-1.7,3.7-1.7s2.8,0.6,3.7,1.7L19.1,8.9z
		"/>
	<linearGradient id="SVGID_3_" gradientUnits="userSpaceOnUse" x1="12.7566" y1="8.9163" x2="19.553" y2="2.12">
		<stop  offset="0" style="stop-color:#28726E"/>
		<stop  offset="0.1014" style="stop-color:#2E7970"/>
		<stop  offset="0.2444" style="stop-color:#3D8B77"/>
		<stop  offset="0.4114" style="stop-color:#56A983"/>
		<stop  offset="0.4162" style="stop-color:#57AA83"/>
		<stop  offset="0.6542" style="stop-color:#69BD93"/>
		<stop  offset="1" style="stop-color:#8BDFAF"/>
	</linearGradient>
	<path class="st4" d="M22.2,6.2c-1.5-1.8-3.7-2.8-6.1-2.8c-2.3,0-4.5,1-6,2.7L9.3,5.5c1.7-1.9,4.2-3.1,6.8-3.1
		c2.6,0,5.1,1.1,6.8,3.1L22.2,6.2z"/>
	<line class="st2" x1="11.6" y1="22.6" x2="20.6" y2="22.6"/>
	<rect x="11.6" y="22.1" width="9" height="1"/>
</g>
</svg>
