<?xml version="1.0" encoding="utf-8"?>
<!-- Generator: Adobe Illustrator 24.0.0, SVG Export Plug-In . SVG Version: 6.00 Build 0)  -->
<svg version="1.1" id="Layer_1" xmlns="http://www.w3.org/2000/svg" xmlns:xlink="http://www.w3.org/1999/xlink" x="0px" y="0px"
	 viewBox="0 0 32 32" style="enable-background:new 0 0 32 32;" xml:space="preserve">
<style type="text/css">
	.st0{fill:url(#SVGID_1_);}
</style>
<title>polaris-icons</title>
<g>
	<g>
		<path d="M25.6,24c-0.3,0-0.5-0.1-0.8-0.2l-0.5-0.2v-1.1l0.9,0.4c0.3,0.1,0.6,0.1,0.8-0.1s0.4-0.4,0.4-0.7V9.6
			c0-0.3-0.2-0.7-0.5-0.8L14.2,3.6c-0.3-0.1-0.6-0.1-0.8,0.1C13.1,3.8,13,4.1,13,4.4v1.1l-1-0.4V4.4c0-0.6,0.3-1.2,0.9-1.6
			c0.5-0.3,1.2-0.4,1.8-0.1l11.7,5.1c0.7,0.3,1.1,1,1.1,1.7v12.5c0,0.6-0.3,1.2-0.9,1.6C26.3,23.9,26,24,25.6,24z"/>
	</g>
	<linearGradient id="SVGID_1_" gradientUnits="userSpaceOnUse" x1="5.8905" y1="25.5018" x2="18.109" y2="13.2833">
		<stop  offset="0" style="stop-color:#28726E"/>
		<stop  offset="0.1014" style="stop-color:#2E7970"/>
		<stop  offset="0.2444" style="stop-color:#3D8B77"/>
		<stop  offset="0.4114" style="stop-color:#56A983"/>
		<stop  offset="0.4162" style="stop-color:#57AA83"/>
		<stop  offset="0.6542" style="stop-color:#69BD93"/>
		<stop  offset="1" style="stop-color:#8BDFAF"/>
	</linearGradient>
	<path class="st0" d="M18.7,14L6.4,8.6C5.5,8.2,4.5,8.9,4.5,9.9v13.7c0,0.5,0.3,1,0.8,1.3l12.2,5.4c0.9,0.4,1.9-0.3,1.9-1.3V15.2
		C19.5,14.7,19.2,14.2,18.7,14z M11.6,24.3c-1.3-0.4-2.4-1.6-2.7-3c-0.2-0.9-0.1-1.9,0.2-2.8c0.1,0.5,0.6,1.4,0.9,1.7
		c-0.1-0.9,0.4-2.7,0.8-3.5c0.5-0.9,1.1-2,0.9-3.1c2,1.3,2.6,5.5,1.8,6.7c0.5-0.3,0.8-0.6,1.3-1.9C15.8,20.7,15.4,25.5,11.6,24.3z"
		/>
	<g>
		<path d="M21.6,27c-0.3,0-0.5-0.1-0.8-0.2l-0.5-0.2v-1.1l0.9,0.4c0.3,0.1,0.6,0.1,0.8-0.1s0.4-0.4,0.4-0.7V12.6
			c0-0.3-0.2-0.7-0.5-0.8L10.2,6.6C10,6.5,9.6,6.5,9.4,6.7C9.1,6.8,9,7.1,9,7.4v1.1L8,8.1V7.4c0-0.6,0.3-1.2,0.9-1.6
			s1.2-0.4,1.8-0.1l11.7,5.1c0.7,0.3,1.1,1,1.1,1.7v12.5c0,0.6-0.3,1.2-0.9,1.6C22.3,26.9,22,27,21.6,27z"/>
	</g>
</g>
</svg>
