<?xml version="1.0" encoding="utf-8"?>
<!-- Generator: Adobe Illustrator 24.0.0, SVG Export Plug-In . SVG Version: 6.00 Build 0)  -->
<svg version="1.1" id="Layer_1" xmlns="http://www.w3.org/2000/svg" xmlns:xlink="http://www.w3.org/1999/xlink" x="0px" y="0px"
	 viewBox="0 0 32 32" style="enable-background:new 0 0 32 32;" xml:space="preserve">
<style type="text/css">
	.st0{fill:url(#SVGID_1_);}
	.st1{fill:url(#SVGID_2_);}
</style>
<title>polaris-icons</title>
<g>
	<circle cx="6" cy="16.5" r="1"/>
	<circle cx="26" cy="16.5" r="1"/>
	<linearGradient id="SVGID_1_" gradientUnits="userSpaceOnUse" x1="13.9917" y1="18.5" x2="17.9917" y2="14.5">
		<stop  offset="0" style="stop-color:#28726E"/>
		<stop  offset="0.1014" style="stop-color:#2E7970"/>
		<stop  offset="0.2444" style="stop-color:#3D8B77"/>
		<stop  offset="0.4114" style="stop-color:#56A983"/>
		<stop  offset="0.4162" style="stop-color:#57AA83"/>
		<stop  offset="0.6542" style="stop-color:#69BD93"/>
		<stop  offset="1" style="stop-color:#8BDFAF"/>
	</linearGradient>
	<polygon class="st0" points="19.5,16 16.5,16 16.5,13 15.5,13 15.5,16 12.5,16 12.5,17 15.5,17 15.5,20 16.5,20 16.5,17 19.5,17 	
		"/>
	<g>
		<path d="M26.2,24.5H2V12.3c0-2.1,1.7-3.8,3.8-3.8H30v12.2C30,22.8,28.3,24.5,26.2,24.5z M3,23.5h23.2c1.5,0,2.8-1.2,2.8-2.8V9.5
			H5.8C4.2,9.5,3,10.7,3,12.3V23.5z"/>
	</g>
	<g>
		<g>
			<linearGradient id="SVGID_2_" gradientUnits="userSpaceOnUse" x1="11.7593" y1="20.7407" x2="20.2407" y2="12.2593">
				<stop  offset="0" style="stop-color:#28726E"/>
				<stop  offset="0.1014" style="stop-color:#2E7970"/>
				<stop  offset="0.2444" style="stop-color:#3D8B77"/>
				<stop  offset="0.4114" style="stop-color:#56A983"/>
				<stop  offset="0.4162" style="stop-color:#57AA83"/>
				<stop  offset="0.6542" style="stop-color:#69BD93"/>
				<stop  offset="1" style="stop-color:#8BDFAF"/>
			</linearGradient>
			<path class="st1" d="M16,22.5c-3.3,0-6-2.7-6-6s2.7-6,6-6s6,2.7,6,6S19.3,22.5,16,22.5z M16,11.5c-2.8,0-5,2.2-5,5s2.2,5,5,5
				s5-2.2,5-5S18.8,11.5,16,11.5z"/>
		</g>
	</g>
</g>
</svg>
