<?xml version="1.0" encoding="utf-8"?>
<!-- Generator: Adobe Illustrator 24.0.0, SVG Export Plug-In . SVG Version: 6.00 Build 0)  -->
<svg version="1.1" id="Layer_1" xmlns="http://www.w3.org/2000/svg" xmlns:xlink="http://www.w3.org/1999/xlink" x="0px" y="0px"
	 viewBox="0 0 32 32" style="enable-background:new 0 0 32 32;" xml:space="preserve">
<style type="text/css">
	.st0{fill:url(#SVGID_1_);}
	.st1{fill:url(#SVGID_2_);}
	.st2{fill:url(#SVGID_3_);}
</style>
<title>polaris-icons</title>
<g>
	<g>
		<rect x="7" y="4" width="1" height="10"/>
	</g>
	<g>
		<rect x="15.5" y="4" width="1" height="3"/>
	</g>
	<g>
		<rect x="24" y="26" width="1" height="3"/>
	</g>
	<g>
		<rect x="7" y="23" width="1" height="6"/>
	</g>
	<g>
		<rect x="15.5" y="16" width="1" height="13"/>
	</g>
	<g>
		<rect x="24" y="4" width="1" height="13"/>
	</g>
	<g>
		<g>
			<linearGradient id="SVGID_1_" gradientUnits="userSpaceOnUse" x1="6.0865" y1="19.9135" x2="8.9135" y2="17.0865">
				<stop  offset="0" style="stop-color:#28726E"/>
				<stop  offset="0.1014" style="stop-color:#2E7970"/>
				<stop  offset="0.2444" style="stop-color:#3D8B77"/>
				<stop  offset="0.4114" style="stop-color:#56A983"/>
				<stop  offset="0.4162" style="stop-color:#57AA83"/>
				<stop  offset="0.6542" style="stop-color:#69BD93"/>
				<stop  offset="1" style="stop-color:#8BDFAF"/>
			</linearGradient>
			<path class="st0" d="M7.5,20.5c-1.1,0-2-0.9-2-2s0.9-2,2-2s2,0.9,2,2S8.6,20.5,7.5,20.5z M7.5,17.5c-0.6,0-1,0.4-1,1s0.4,1,1,1
				s1-0.4,1-1S8.1,17.5,7.5,17.5z"/>
		</g>
	</g>
	<g>
		<g>
			<linearGradient id="SVGID_2_" gradientUnits="userSpaceOnUse" x1="14.5865" y1="12.9135" x2="17.4135" y2="10.0865">
				<stop  offset="0" style="stop-color:#28726E"/>
				<stop  offset="0.1014" style="stop-color:#2E7970"/>
				<stop  offset="0.2444" style="stop-color:#3D8B77"/>
				<stop  offset="0.4114" style="stop-color:#56A983"/>
				<stop  offset="0.4162" style="stop-color:#57AA83"/>
				<stop  offset="0.6542" style="stop-color:#69BD93"/>
				<stop  offset="1" style="stop-color:#8BDFAF"/>
			</linearGradient>
			<path class="st1" d="M16,13.5c-1.1,0-2-0.9-2-2s0.9-2,2-2s2,0.9,2,2S17.1,13.5,16,13.5z M16,10.5c-0.6,0-1,0.4-1,1s0.4,1,1,1
				s1-0.4,1-1S16.6,10.5,16,10.5z"/>
		</g>
	</g>
	<g>
		<g>
			<linearGradient id="SVGID_3_" gradientUnits="userSpaceOnUse" x1="23.0865" y1="22.9135" x2="25.9135" y2="20.0865">
				<stop  offset="0" style="stop-color:#28726E"/>
				<stop  offset="0.1014" style="stop-color:#2E7970"/>
				<stop  offset="0.2444" style="stop-color:#3D8B77"/>
				<stop  offset="0.4114" style="stop-color:#56A983"/>
				<stop  offset="0.4162" style="stop-color:#57AA83"/>
				<stop  offset="0.6542" style="stop-color:#69BD93"/>
				<stop  offset="1" style="stop-color:#8BDFAF"/>
			</linearGradient>
			<path class="st2" d="M24.5,23.5c-1.1,0-2-0.9-2-2s0.9-2,2-2s2,0.9,2,2S25.6,23.5,24.5,23.5z M24.5,20.5c-0.6,0-1,0.4-1,1
				s0.4,1,1,1s1-0.4,1-1S25.1,20.5,24.5,20.5z"/>
		</g>
	</g>
</g>
</svg>
