<?xml version="1.0" encoding="utf-8"?>
<!-- Generator: Adobe Illustrator 24.0.0, SVG Export Plug-In . SVG Version: 6.00 Build 0)  -->
<svg version="1.1" id="Layer_1" xmlns="http://www.w3.org/2000/svg" xmlns:xlink="http://www.w3.org/1999/xlink" x="0px" y="0px"
	 viewBox="0 0 32 32" style="enable-background:new 0 0 32 32;" xml:space="preserve">
<style type="text/css">
	.st0{fill:url(#SVGID_1_);}
	.st1{fill:url(#SVGID_2_);}
	.st2{fill:url(#SVGID_3_);}
</style>
<title>polaris-icons</title>
<g>
	<path d="M26.5,11.2V7l-4.1-2.6c-1.8-1.1-4.1-1.1-5.9,0L16,4.7l-0.6-0.4c-1.8-1.1-4-1.1-5.8,0L5.7,6.7v4.4L2,13.1v7.1l3.5,1.8v4.2
		l3.6,2.3c2.1,1.3,4.7,1.3,6.8,0l0.1,0l0.2,0.1c1,0.6,2.2,1,3.4,1c1.2,0,2.3-0.3,3.3-0.9l3.5-2.1v-4.4L30,20v-7.1L26.5,11.2z
		 M25.3,21.3V25L21.9,23l-0.5,0.9L25,26l-2.6,1.6c-1.7,1.1-3.9,1.1-5.7,0l-0.2-0.1v-5.8h-1v5.8l-0.1,0.1c-1.7,1.1-4,1.1-5.7,0
		L7.2,26l3.8-2.3v-4.5h-1v4l-3.5,2.2v-4L3,19.5v-5.7l3.5,2v3h1v-3.6l-3.6-2.1l2.8-1.5V7.3l3.4-2.1c1.5-0.9,3.3-0.9,4.8,0l0.6,0.4
		v3.6l-3.1,2.6l0.6,0.8l3-2.5l3,2.5l0.6-0.8l-3.1-2.6V5.6L17,5.3c1.5-0.9,3.4-0.9,4.8,0l3.6,2.3v4.2l3.5,1.8v5.2l-3-2v-3.2h-1v3.2
		l-2.8,1.6l0.5,0.9l2.7-1.6l3,2L25.3,21.3z M29,19.4L29,19.4L29,19.4L29,19.4z"/>
	<linearGradient id="SVGID_1_" gradientUnits="userSpaceOnUse" x1="19.0865" y1="14.5023" x2="21.9135" y2="11.6754">
		<stop  offset="0" style="stop-color:#28726E"/>
		<stop  offset="0.1014" style="stop-color:#2E7970"/>
		<stop  offset="0.2444" style="stop-color:#3D8B77"/>
		<stop  offset="0.4114" style="stop-color:#56A983"/>
		<stop  offset="0.4162" style="stop-color:#57AA83"/>
		<stop  offset="0.6542" style="stop-color:#69BD93"/>
		<stop  offset="1" style="stop-color:#8BDFAF"/>
	</linearGradient>
	<path class="st0" d="M20.5,15.1c-1.1,0-2-0.9-2-2s0.9-2,2-2s2,0.9,2,2S21.6,15.1,20.5,15.1z M20.5,12.1c-0.6,0-1,0.4-1,1s0.4,1,1,1
		s1-0.4,1-1S21.1,12.1,20.5,12.1z"/>
	<linearGradient id="SVGID_2_" gradientUnits="userSpaceOnUse" x1="14.5963" y1="21.5023" x2="17.4232" y2="18.6754">
		<stop  offset="0" style="stop-color:#28726E"/>
		<stop  offset="0.1014" style="stop-color:#2E7970"/>
		<stop  offset="0.2444" style="stop-color:#3D8B77"/>
		<stop  offset="0.4114" style="stop-color:#56A983"/>
		<stop  offset="0.4162" style="stop-color:#57AA83"/>
		<stop  offset="0.6542" style="stop-color:#69BD93"/>
		<stop  offset="1" style="stop-color:#8BDFAF"/>
	</linearGradient>
	<path class="st1" d="M16,22.1c-1.1,0-2-0.9-2-2s0.9-2,2-2s2,0.9,2,2S17.1,22.1,16,22.1z M16,19.1c-0.6,0-1,0.4-1,1s0.4,1,1,1
		s1-0.4,1-1S16.6,19.1,16,19.1z"/>
	<linearGradient id="SVGID_3_" gradientUnits="userSpaceOnUse" x1="10.0865" y1="14.5023" x2="12.9135" y2="11.6754">
		<stop  offset="0" style="stop-color:#28726E"/>
		<stop  offset="0.1014" style="stop-color:#2E7970"/>
		<stop  offset="0.2444" style="stop-color:#3D8B77"/>
		<stop  offset="0.4114" style="stop-color:#56A983"/>
		<stop  offset="0.4162" style="stop-color:#57AA83"/>
		<stop  offset="0.6542" style="stop-color:#69BD93"/>
		<stop  offset="1" style="stop-color:#8BDFAF"/>
	</linearGradient>
	<path class="st2" d="M11.5,15.1c-1.1,0-2-0.9-2-2s0.9-2,2-2s2,0.9,2,2S12.6,15.1,11.5,15.1z M11.5,12.1c-0.6,0-1,0.4-1,1s0.4,1,1,1
		s1-0.4,1-1S12.1,12.1,11.5,12.1z"/>
</g>
</svg>
