<?xml version="1.0" encoding="utf-8"?>
<!-- Generator: Adobe Illustrator 24.0.0, SVG Export Plug-In . SVG Version: 6.00 Build 0)  -->
<svg version="1.1" id="Layer_1" xmlns="http://www.w3.org/2000/svg" xmlns:xlink="http://www.w3.org/1999/xlink" x="0px" y="0px"
	 viewBox="0 0 32 32" style="enable-background:new 0 0 32 32;" xml:space="preserve">
<style type="text/css">
	.st0{fill:url(#SVGID_1_);}
	.st1{fill:url(#SVGID_2_);}
</style>
<title>polaris-icons</title>
<g>
	<g>
		<g>
			<linearGradient id="SVGID_1_" gradientUnits="userSpaceOnUse" x1="13.0188" y1="31.2249" x2="19.03" y2="25.2138">
				<stop  offset="0" style="stop-color:#28726E"/>
				<stop  offset="0.1014" style="stop-color:#2E7970"/>
				<stop  offset="0.2444" style="stop-color:#3D8B77"/>
				<stop  offset="0.4114" style="stop-color:#56A983"/>
				<stop  offset="0.4162" style="stop-color:#57AA83"/>
				<stop  offset="0.6542" style="stop-color:#69BD93"/>
				<stop  offset="1" style="stop-color:#8BDFAF"/>
			</linearGradient>
			<path class="st0" d="M21,29.2h-1c0-2.2-1.8-4-4-4s-4,1.8-4,4h-1c0-2.7,2.2-5,5-5S21,26.5,21,29.2z"/>
		</g>
	</g>
	<g>
		<rect x="21" y="7" width="1" height="5.2"/>
	</g>
	<g>
		<path d="M17.5,16.2c-2.5,0-4.5-1.8-4.5-4v-2h1v2c0,1.7,1.6,3,3.5,3s3.5-1.3,3.5-3h1C22,14.5,20,16.2,17.5,16.2z"/>
	</g>
	<g>
		<path d="M21.5,7.3c-1.1,0-2-0.9-2-2s0.9-2,2-2s2,0.9,2,2S22.6,7.3,21.5,7.3z M21.5,4.3c-0.6,0-1,0.4-1,1s0.4,1,1,1s1-0.4,1-1
			S22.1,4.3,21.5,4.3z"/>
	</g>
	<g>
		<g>
			<linearGradient id="SVGID_2_" gradientUnits="userSpaceOnUse" x1="14.5855" y1="22.6631" x2="17.4126" y2="19.836">
				<stop  offset="0" style="stop-color:#28726E"/>
				<stop  offset="0.1014" style="stop-color:#2E7970"/>
				<stop  offset="0.2444" style="stop-color:#3D8B77"/>
				<stop  offset="0.4114" style="stop-color:#56A983"/>
				<stop  offset="0.4162" style="stop-color:#57AA83"/>
				<stop  offset="0.6542" style="stop-color:#69BD93"/>
				<stop  offset="1" style="stop-color:#8BDFAF"/>
			</linearGradient>
			<path class="st1" d="M16,23.2c-1.1,0-2-0.9-2-2s0.9-2,2-2s2,0.9,2,2S17.1,23.2,16,23.2z M16,20.2c-0.6,0-1,0.4-1,1s0.4,1,1,1
				s1-0.4,1-1S16.6,20.2,16,20.2z"/>
		</g>
	</g>
	<g>
		<path d="M23.5,29.7h-15V18.6c0-2.2,1.3-4.3,3.3-5.2l0.4,0.9c-1.7,0.8-2.7,2.5-2.7,4.3v10.2h13V13.2h1V29.7z"/>
	</g>
</g>
</svg>
