<?xml version="1.0" encoding="utf-8"?>
<!-- Generator: Adobe Illustrator 24.0.0, SVG Export Plug-In . SVG Version: 6.00 Build 0)  -->
<svg version="1.1" id="Layer_1" xmlns="http://www.w3.org/2000/svg" xmlns:xlink="http://www.w3.org/1999/xlink" x="0px" y="0px"
	 viewBox="0 0 32 32" style="enable-background:new 0 0 32 32;" xml:space="preserve">
<style type="text/css">
	.st0{fill:url(#SVGID_1_);}
	.st1{fill:url(#SVGID_2_);}
	.st2{fill:url(#SVGID_3_);}
	.st3{fill:url(#SVGID_4_);}
	.st4{fill:url(#SVGID_5_);}
	.st5{fill:url(#SVGID_6_);}
</style>
<title>polaris-icons</title>
<g>
	<g>
		<polygon points="20.5,30.5 4.5,30.5 4.5,9.5 5.5,9.5 5.5,29.5 20.5,29.5 		"/>
	</g>
	<g>
		<polygon points="23.5,27.5 7.5,27.5 7.5,6.5 8.5,6.5 8.5,26.5 23.5,26.5 		"/>
	</g>
	<g>
		<g>
			<linearGradient id="SVGID_1_" gradientUnits="userSpaceOnUse" x1="17.5" y1="14.5" x2="22.5" y2="9.5">
				<stop  offset="0" style="stop-color:#28726E"/>
				<stop  offset="0.1014" style="stop-color:#2E7970"/>
				<stop  offset="0.2444" style="stop-color:#3D8B77"/>
				<stop  offset="0.4114" style="stop-color:#56A983"/>
				<stop  offset="0.4162" style="stop-color:#57AA83"/>
				<stop  offset="0.6542" style="stop-color:#69BD93"/>
				<stop  offset="1" style="stop-color:#8BDFAF"/>
			</linearGradient>
			<rect x="15.5" y="11.5" class="st0" width="9" height="1"/>
		</g>
	</g>
	<g>
		<g>
			<linearGradient id="SVGID_2_" gradientUnits="userSpaceOnUse" x1="17.5" y1="18.5156" x2="22.5" y2="13.5156">
				<stop  offset="0" style="stop-color:#28726E"/>
				<stop  offset="0.1014" style="stop-color:#2E7970"/>
				<stop  offset="0.2444" style="stop-color:#3D8B77"/>
				<stop  offset="0.4114" style="stop-color:#56A983"/>
				<stop  offset="0.4162" style="stop-color:#57AA83"/>
				<stop  offset="0.6542" style="stop-color:#69BD93"/>
				<stop  offset="1" style="stop-color:#8BDFAF"/>
			</linearGradient>
			<rect x="15.5" y="15.5" class="st1" width="9" height="1"/>
		</g>
	</g>
	<g>
		<g>
			<linearGradient id="SVGID_3_" gradientUnits="userSpaceOnUse" x1="17.5" y1="22.499" x2="22.5" y2="17.499">
				<stop  offset="0" style="stop-color:#28726E"/>
				<stop  offset="0.1014" style="stop-color:#2E7970"/>
				<stop  offset="0.2444" style="stop-color:#3D8B77"/>
				<stop  offset="0.4114" style="stop-color:#56A983"/>
				<stop  offset="0.4162" style="stop-color:#57AA83"/>
				<stop  offset="0.6542" style="stop-color:#69BD93"/>
				<stop  offset="1" style="stop-color:#8BDFAF"/>
			</linearGradient>
			<rect x="15.5" y="19.5" class="st2" width="9" height="1"/>
		</g>
	</g>
	<linearGradient id="SVGID_4_" gradientUnits="userSpaceOnUse" x1="13.6464" y1="20.3859" x2="14.3535" y2="19.6788">
		<stop  offset="0" style="stop-color:#28726E"/>
		<stop  offset="0.1014" style="stop-color:#2E7970"/>
		<stop  offset="0.2444" style="stop-color:#3D8B77"/>
		<stop  offset="0.4114" style="stop-color:#56A983"/>
		<stop  offset="0.4162" style="stop-color:#57AA83"/>
		<stop  offset="0.6542" style="stop-color:#69BD93"/>
		<stop  offset="1" style="stop-color:#8BDFAF"/>
	</linearGradient>
	<circle class="st3" cx="14" cy="20" r="0.5"/>
	<linearGradient id="SVGID_5_" gradientUnits="userSpaceOnUse" x1="13.6464" y1="16.3859" x2="14.3535" y2="15.6788">
		<stop  offset="0" style="stop-color:#28726E"/>
		<stop  offset="0.1014" style="stop-color:#2E7970"/>
		<stop  offset="0.2444" style="stop-color:#3D8B77"/>
		<stop  offset="0.4114" style="stop-color:#56A983"/>
		<stop  offset="0.4162" style="stop-color:#57AA83"/>
		<stop  offset="0.6542" style="stop-color:#69BD93"/>
		<stop  offset="1" style="stop-color:#8BDFAF"/>
	</linearGradient>
	<circle class="st4" cx="14" cy="16" r="0.5"/>
	<linearGradient id="SVGID_6_" gradientUnits="userSpaceOnUse" x1="13.6464" y1="12.3777" x2="14.3535" y2="11.6706">
		<stop  offset="0" style="stop-color:#28726E"/>
		<stop  offset="0.1014" style="stop-color:#2E7970"/>
		<stop  offset="0.2444" style="stop-color:#3D8B77"/>
		<stop  offset="0.4114" style="stop-color:#56A983"/>
		<stop  offset="0.4162" style="stop-color:#57AA83"/>
		<stop  offset="0.6542" style="stop-color:#69BD93"/>
		<stop  offset="1" style="stop-color:#8BDFAF"/>
	</linearGradient>
	<circle class="st5" cx="14" cy="12" r="0.5"/>
	<path d="M22.5,2.5L22.5,2.5L22.5,2.5l-1.6,0h-6.1c-2.4,0-4.3,1.9-4.3,4.3v17.7h17V9.7V7.5v0L22.5,2.5z M26.5,23.5h-15V6.8
		c0-1.8,1.5-3.3,3.3-3.3h6.1h0.6v5h5v1.2V23.5z M22.5,7.5V3.9l3.6,3.6H22.5z"/>
</g>
</svg>
