<?xml version="1.0" encoding="utf-8"?>
<!-- Generator: Adobe Illustrator 24.0.0, SVG Export Plug-In . SVG Version: 6.00 Build 0)  -->
<svg version="1.1" id="Layer_1" xmlns="http://www.w3.org/2000/svg" xmlns:xlink="http://www.w3.org/1999/xlink" x="0px" y="0px"
	 viewBox="0 0 32 32" style="enable-background:new 0 0 32 32;" xml:space="preserve">
<style type="text/css">
	.st0{fill:url(#SVGID_1_);}
	.st1{fill:url(#SVGID_2_);}
	.st2{fill:url(#SVGID_3_);}
	.st3{fill:url(#SVGID_4_);}
	.st4{fill:url(#SVGID_5_);}
</style>
<title>polaris-icons</title>
<g>
	<linearGradient id="SVGID_1_" gradientUnits="userSpaceOnUse" x1="9.4487" y1="17.7497" x2="16.9487" y2="10.2497">
		<stop  offset="0" style="stop-color:#28726E"/>
		<stop  offset="0.1014" style="stop-color:#2E7970"/>
		<stop  offset="0.2444" style="stop-color:#3D8B77"/>
		<stop  offset="0.4114" style="stop-color:#56A983"/>
		<stop  offset="0.4162" style="stop-color:#57AA83"/>
		<stop  offset="0.6542" style="stop-color:#69BD93"/>
		<stop  offset="1" style="stop-color:#8BDFAF"/>
	</linearGradient>
	<rect x="12.2" y="7.5" class="st0" width="2" height="13"/>
	<linearGradient id="SVGID_2_" gradientUnits="userSpaceOnUse" x1="15.4487" y1="19.7497" x2="18.9487" y2="16.2497">
		<stop  offset="0" style="stop-color:#28726E"/>
		<stop  offset="0.1014" style="stop-color:#2E7970"/>
		<stop  offset="0.2444" style="stop-color:#3D8B77"/>
		<stop  offset="0.4114" style="stop-color:#56A983"/>
		<stop  offset="0.4162" style="stop-color:#57AA83"/>
		<stop  offset="0.6542" style="stop-color:#69BD93"/>
		<stop  offset="1" style="stop-color:#8BDFAF"/>
	</linearGradient>
	<rect x="16.2" y="15.5" class="st1" width="2" height="5"/>
	<linearGradient id="SVGID_3_" gradientUnits="userSpaceOnUse" x1="6.6987" y1="18.9997" x2="11.6987" y2="13.9997">
		<stop  offset="0" style="stop-color:#28726E"/>
		<stop  offset="0.1014" style="stop-color:#2E7970"/>
		<stop  offset="0.2444" style="stop-color:#3D8B77"/>
		<stop  offset="0.4114" style="stop-color:#56A983"/>
		<stop  offset="0.4162" style="stop-color:#57AA83"/>
		<stop  offset="0.6542" style="stop-color:#69BD93"/>
		<stop  offset="1" style="stop-color:#8BDFAF"/>
	</linearGradient>
	<rect x="8.2" y="12.5" class="st2" width="2" height="8"/>
	<g>
		<path d="M16.2,23.5h-11V8.8c0-2.4,1.9-4.3,4.3-4.3h11.7v15h-1v-14H9.5C7.7,5.5,6.2,7,6.2,8.8v13.7h10V23.5z"/>
	</g>
	<g>
		<rect x="12.7" y="23.5" width="1" height="6.5"/>
	</g>
	<g>
		<rect x="9.2" y="29.5" width="8" height="1"/>
	</g>
	<g>
		<rect x="12.7" y="2.5" width="1" height="2.5"/>
	</g>
	<g>
		<g>
			<linearGradient id="SVGID_4_" gradientUnits="userSpaceOnUse" x1="18.5161" y1="29.1818" x2="24.881" y2="22.8169">
				<stop  offset="0" style="stop-color:#28726E"/>
				<stop  offset="0.1014" style="stop-color:#2E7970"/>
				<stop  offset="0.2444" style="stop-color:#3D8B77"/>
				<stop  offset="0.4114" style="stop-color:#56A983"/>
				<stop  offset="0.4162" style="stop-color:#57AA83"/>
				<stop  offset="0.6542" style="stop-color:#69BD93"/>
				<stop  offset="1" style="stop-color:#8BDFAF"/>
			</linearGradient>
			<path class="st3" d="M21.7,30.5c-1.4,0-2.8-0.7-3.7-1.9c-0.7-1-1-2.2-0.8-3.4s0.8-2.2,1.8-2.9c2-1.4,4.8-1,6.3,1l0,0
				c1.4,2,1,4.8-1,6.3C23.5,30.2,22.6,30.5,21.7,30.5z M21.7,22.5c-0.7,0-1.4,0.2-2,0.7c-0.8,0.5-1.3,1.4-1.4,2.3
				c-0.2,0.9,0.1,1.8,0.6,2.6c1.1,1.6,3.3,1.9,4.9,0.8c1.6-1.1,1.9-3.3,0.8-4.9l0,0C23.9,23,22.8,22.5,21.7,22.5z"/>
		</g>
	</g>
	<g>
		<g>
			<g>
				<linearGradient id="SVGID_5_" gradientUnits="userSpaceOnUse" x1="21.2463" y1="26.7644" x2="23.3547" y2="24.656">
					<stop  offset="0" style="stop-color:#28726E"/>
					<stop  offset="0.1014" style="stop-color:#2E7970"/>
					<stop  offset="0.2444" style="stop-color:#3D8B77"/>
					<stop  offset="0.4114" style="stop-color:#56A983"/>
					<stop  offset="0.4162" style="stop-color:#57AA83"/>
					<stop  offset="0.6542" style="stop-color:#69BD93"/>
					<stop  offset="1" style="stop-color:#8BDFAF"/>
				</linearGradient>
				<polygon class="st4" points="23,28.4 21.2,26.7 21.2,23.5 22.2,23.5 22.2,26.3 23.6,27.6 				"/>
			</g>
		</g>
	</g>
</g>
</svg>
