<?xml version="1.0" encoding="utf-8"?>
<!-- Generator: Adobe Illustrator 24.0.0, SVG Export Plug-In . SVG Version: 6.00 Build 0)  -->
<svg version="1.1" id="Layer_1" xmlns="http://www.w3.org/2000/svg" xmlns:xlink="http://www.w3.org/1999/xlink" x="0px" y="0px"
	 viewBox="0 0 32 32" style="enable-background:new 0 0 32 32;" xml:space="preserve">
<style type="text/css">
	.st0{fill:url(#SVGID_1_);}
</style>
<title>polaris-icons</title>
<g>
	<g>
		<rect x="4.3" y="21.7" transform="matrix(0.7071 -0.7071 0.7071 0.7071 -12.4356 14.4661)" width="13.9" height="1"/>
	</g>
	<g>
		<rect x="11.1" y="24.4" transform="matrix(0.7071 -0.7071 0.7071 0.7071 -14.1016 15.8473)" width="2" height="1"/>
	</g>
	<g>
		<g>
			<linearGradient id="SVGID_1_" gradientUnits="userSpaceOnUse" x1="22.2969" y1="11.2676" x2="25.125" y2="8.4395">
				<stop  offset="0" style="stop-color:#28726E"/>
				<stop  offset="0.1014" style="stop-color:#2E7970"/>
				<stop  offset="0.2444" style="stop-color:#3D8B77"/>
				<stop  offset="0.4114" style="stop-color:#56A983"/>
				<stop  offset="0.4162" style="stop-color:#57AA83"/>
				<stop  offset="0.6542" style="stop-color:#69BD93"/>
				<stop  offset="1" style="stop-color:#8BDFAF"/>
			</linearGradient>
			<path class="st0" d="M23.7,11.9c-0.5,0-1-0.2-1.4-0.6c-0.8-0.8-0.8-2,0-2.8c0.8-0.8,2.1-0.8,2.8,0c0.8,0.8,0.8,2,0,2.8
				C24.7,11.6,24.2,11.9,23.7,11.9z M23.7,8.9c-0.3,0-0.5,0.1-0.7,0.3c-0.4,0.4-0.4,1,0,1.4c0.4,0.4,1,0.4,1.4,0
				c0.4-0.4,0.4-1,0-1.4C24.2,9,24,8.9,23.7,8.9z"/>
		</g>
	</g>
	<g>
		<path d="M5,30.2c-0.9,0-1.7-0.3-2.4-1l-1.3-1.3l12.5-12.5L13.3,13c-0.4-2.1,0.2-4.3,1.8-5.9l4.3-4.3l8.8,2.5l2.5,8.8l-4.3,4.3
			c-1.5,1.5-3.7,2.2-5.9,1.8l-2.5-0.5L14.7,23L14,22.3l3.7-3.7l3,0.6c1.8,0.4,3.7-0.2,5-1.5l3.9-3.9l-2.2-7.7l-7.7-2.2l-3.9,3.9
			c-1.3,1.3-1.9,3.2-1.5,5l0.6,3L2.7,27.9l0.6,0.6C4,29.2,5,29.4,5.9,29l2.2-1c0.2-0.1,0.4-0.2,0.6-0.4l1.1-1.1l0.7,0.7l-1.1,1.1
			c-0.3,0.3-0.6,0.5-0.9,0.6l-2.2,1C5.9,30.1,5.4,30.2,5,30.2z"/>
	</g>
</g>
</svg>
