<svg width="1029" height="1364" viewBox="0 0 1029 1364" fill="none" xmlns="http://www.w3.org/2000/svg">
<g opacity="0.3">
<path fill-rule="evenodd" clip-rule="evenodd" d="M812.107 -103.258C896.222 -94.9712 956.706 -9.68717 947.152 87.2213C937.614 184.113 861.655 255.964 777.54 247.694C693.426 239.407 632.942 154.107 642.496 57.2313C652.034 -39.6936 727.992 -111.545 812.107 -103.258ZM704.476 989.322C788.591 997.609 849.075 1082.91 839.537 1179.8C829.999 1276.69 754.041 1348.56 669.91 1340.27C585.795 1331.99 525.311 1246.69 534.865 1149.79C544.403 1052.9 620.362 981.052 704.476 989.322Z" stroke="url(#paint0_linear)" stroke-width="1.2038" stroke-miterlimit="10"/>
<path fill-rule="evenodd" clip-rule="evenodd" d="M882.573 -93.1299C957.758 -78.1842 1002.52 15.3537 982.557 115.731C962.577 216.109 885.434 285.379 810.249 270.433C735.064 255.488 690.301 161.95 710.265 61.5719C730.245 -38.8059 807.404 -108.076 882.573 -93.1299ZM671.751 966.567C746.937 981.512 791.699 1075.05 771.735 1175.43C751.771 1275.81 674.613 1345.09 599.427 1330.13C524.242 1315.18 479.479 1221.65 499.443 1121.27C519.407 1020.89 596.582 951.621 671.751 966.567Z" stroke="url(#paint1_linear)" stroke-width="1.2038" stroke-miterlimit="10"/>
<path fill-rule="evenodd" clip-rule="evenodd" d="M951.756 -76.1288C1017.58 -56.1683 1045.69 43.3215 1014.53 146.018C983.363 248.73 904.708 315.829 838.896 295.869C773.084 275.909 744.963 176.435 776.126 73.7226C807.289 -28.9899 885.928 -96.0893 951.756 -76.1288ZM643.105 941.131C708.933 961.092 737.037 1060.58 705.874 1163.28C674.711 1265.99 596.056 1333.09 530.244 1313.13C464.432 1293.17 436.312 1193.68 467.491 1090.98C498.654 988.27 577.309 921.171 643.105 941.131Z" stroke="url(#paint2_linear)" stroke-width="1.2038" stroke-miterlimit="10"/>
<path fill-rule="evenodd" clip-rule="evenodd" d="M1018.95 -52.4198C1075.22 -29.1216 1085.99 73.9362 1043.01 177.701C1000.02 281.466 919.541 346.707 863.25 323.409C806.993 300.111 796.205 197.053 839.192 93.3047C882.195 -10.4601 962.675 -75.7179 1018.95 -52.4198ZM618.75 913.591C675.024 936.889 685.795 1039.95 642.808 1143.71C599.822 1247.48 519.325 1312.72 463.051 1289.42C406.777 1266.12 396.006 1163.06 438.992 1059.3C481.979 955.534 562.476 890.293 618.75 913.591Z" stroke="url(#paint3_linear)" stroke-width="1.2038" stroke-miterlimit="10"/>
<path fill-rule="evenodd" clip-rule="evenodd" d="M1083.53 -22.216C1130.3 2.77565 1123.39 106.935 1068.09 210.387C1012.78 313.823 930 377.453 883.231 352.445C836.462 327.454 843.369 223.294 898.672 119.842C953.976 16.406 1036.76 -47.2241 1083.53 -22.216ZM598.77 884.554C645.555 909.546 638.632 1013.72 583.328 1117.16C528.024 1220.59 445.258 1284.22 398.473 1259.22C351.687 1234.22 358.611 1130.05 413.914 1026.61C469.218 923.176 552.001 859.546 598.77 884.554Z" stroke="url(#paint4_linear)" stroke-width="1.2038" stroke-miterlimit="10"/>
<path fill-rule="evenodd" clip-rule="evenodd" d="M1144.87 14.17C1182.41 39.2603 1157.78 142.055 1089.83 243.732C1021.88 345.408 936.331 407.509 898.771 382.419C861.228 357.329 885.862 254.534 953.812 152.857C1021.76 51.1971 1107.31 -10.9204 1144.87 14.17ZM583.229 854.581C620.789 879.671 596.138 982.466 528.189 1084.14C460.239 1185.82 374.694 1247.92 337.134 1222.83C299.59 1197.74 324.225 1094.94 392.174 993.268C460.124 891.591 545.67 829.49 583.229 854.581Z" stroke="url(#paint5_linear)" stroke-width="1.2038" stroke-miterlimit="10"/>
<path fill-rule="evenodd" clip-rule="evenodd" d="M1202.37 56.4256C1231.2 80.0855 1189.1 179.049 1108.34 277.421C1027.6 375.793 938.732 436.398 909.904 412.738C881.077 389.078 923.192 290.114 1003.94 191.742C1084.68 93.3705 1173.55 32.7657 1202.37 56.4256ZM572.096 824.262C600.924 847.922 558.825 946.885 478.082 1045.26C397.338 1143.63 308.471 1204.23 279.643 1180.57C250.815 1156.91 292.93 1057.95 373.674 959.579C454.418 861.207 543.269 800.618 572.096 824.262Z" stroke="url(#paint6_linear)" stroke-width="1.2038" stroke-miterlimit="10"/>
<path fill-rule="evenodd" clip-rule="evenodd" d="M1255.47 104.124C1276.28 124.939 1217.29 217.638 1123.78 311.143C1030.26 404.648 937.531 463.625 916.729 442.81C895.926 422.011 954.897 329.312 1048.42 235.79C1141.94 142.285 1234.67 83.3245 1255.47 104.124ZM565.288 794.19C586.091 814.989 527.103 907.688 433.582 1001.21C340.061 1094.71 247.345 1153.69 226.526 1132.88C205.724 1112.08 264.695 1019.36 358.232 925.856C451.77 832.351 544.485 773.391 565.288 794.19Z" stroke="url(#paint7_linear)" stroke-width="1.2038" stroke-miterlimit="10"/>
<path fill-rule="evenodd" clip-rule="evenodd" d="M1303.66 156.82C1317.32 173.476 1242.38 257.592 1136.28 344.652C1030.18 431.712 933.058 488.798 919.393 472.142C905.727 455.487 980.666 371.387 1086.77 284.327C1192.87 197.267 1289.99 140.164 1303.66 156.82ZM562.624 764.857C576.29 781.513 501.334 865.63 395.233 952.69C289.131 1039.75 192.009 1096.84 178.327 1080.18C164.661 1063.52 239.616 979.424 345.701 892.364C451.836 805.304 548.958 748.218 562.624 764.857Z" stroke="url(#paint8_linear)" stroke-width="1.2038" stroke-miterlimit="10"/>
<path fill-rule="evenodd" clip-rule="evenodd" d="M1346.46 214.005C1354.06 225.383 1264.32 298.664 1146.05 377.684C1027.78 456.687 925.724 511.554 918.126 500.159C910.529 488.798 1000.27 415.5 1118.54 336.48C1236.79 257.494 1338.86 202.643 1346.46 214.005ZM563.89 736.824C571.488 748.202 481.732 821.483 363.478 900.503C245.224 979.506 143.135 1034.36 135.538 1022.98C127.94 1011.6 217.679 938.319 335.95 859.3C454.22 780.313 556.293 725.446 563.89 736.824Z" stroke="url(#paint9_linear)" stroke-width="1.2038" stroke-miterlimit="10"/>
<path fill-rule="evenodd" clip-rule="evenodd" d="M1383.48 275.152C1386.23 280.282 1283.15 340.706 1153.32 410.091C1023.49 479.475 915.972 531.596 913.226 526.466C910.48 521.353 1013.56 460.913 1143.39 391.528C1273.23 322.143 1380.73 270.039 1383.48 275.152ZM568.791 710.533C571.521 715.663 468.445 776.087 338.614 845.472C208.782 914.857 101.267 966.977 98.5204 961.848C95.7741 956.734 198.866 896.294 328.697 826.909C458.529 757.541 566.061 705.42 568.791 710.533Z" stroke="url(#paint10_linear)" stroke-width="1.2038" stroke-miterlimit="10"/>
<path fill-rule="evenodd" clip-rule="evenodd" d="M1414.33 339.654C1413.54 337.746 1298.85 383.438 1158.25 441.675C1017.63 499.913 904.231 548.679 905.02 550.587C905.809 552.494 1020.49 506.818 1161.11 448.581C1301.73 390.327 1415.12 341.561 1414.33 339.654ZM576.98 686.43C576.191 684.522 461.505 730.198 320.886 788.451C180.267 846.689 66.8644 895.455 67.6538 897.363C68.4431 899.27 183.129 853.578 323.748 795.341C464.367 737.103 577.77 688.337 576.98 686.43Z" stroke="url(#paint11_linear)" stroke-width="1.2038" stroke-miterlimit="10"/>
<path fill-rule="evenodd" clip-rule="evenodd" d="M1438.73 406.885C1435.84 397.381 1311.52 426.664 1161.11 472.29C1010.69 517.917 891.042 562.622 893.92 572.125C896.814 581.629 1021.14 552.346 1171.54 506.72C1321.96 461.093 1441.61 416.388 1438.73 406.885ZM588.097 664.874C585.203 655.371 460.88 684.654 310.477 730.28C160.057 775.906 40.4049 820.612 43.2992 830.115C46.1771 839.619 170.516 810.336 320.919 764.709C471.323 719.1 590.975 674.378 588.097 664.874Z" stroke="url(#paint12_linear)" stroke-width="1.2038" stroke-miterlimit="10"/>
<path fill-rule="evenodd" clip-rule="evenodd" d="M1456.43 476.22C1452.96 458.759 1321.14 470.252 1162.08 501.886C1003.03 533.52 876.85 573.326 880.32 590.787C883.79 608.248 1015.59 596.755 1174.65 565.121C1333.72 533.504 1459.9 493.681 1456.43 476.22ZM601.68 646.213C598.211 628.751 466.406 640.244 307.336 671.878C148.282 703.513 22.102 743.318 25.5718 760.78C29.0417 778.241 160.863 766.748 319.916 735.114C478.986 703.48 605.15 663.674 601.68 646.213Z" stroke="url(#paint13_linear)" stroke-width="1.2038" stroke-miterlimit="10"/>
<path fill-rule="evenodd" clip-rule="evenodd" d="M1467.23 546.986C1464.72 521.435 1327.76 514.003 1161.43 530.379C995.071 546.772 862.214 580.774 864.73 606.325C867.246 631.875 1004.2 639.307 1170.54 622.931C1336.88 606.538 1469.75 572.537 1467.23 546.986ZM617.286 630.691C614.77 605.141 477.818 597.709 311.463 614.085C145.125 630.461 12.2513 664.463 14.7673 690.014C17.2834 715.565 154.235 722.996 320.574 706.62C486.945 690.244 619.802 656.242 617.286 630.691Z" stroke="url(#paint14_linear)" stroke-width="1.2038" stroke-miterlimit="10"/>
<path fill-rule="evenodd" clip-rule="evenodd" d="M1471.05 618.508C1471.05 584.967 1331.45 557.772 1159.31 557.772C987.162 557.772 847.562 584.967 847.562 618.508C847.562 652.05 987.162 679.244 1159.31 679.244C1331.47 679.244 1471.05 652.05 1471.05 618.508ZM634.438 618.508C634.438 584.967 494.839 557.772 322.695 557.772C150.552 557.772 10.9524 584.967 10.9524 618.508C10.9524 652.05 150.552 679.244 322.695 679.244C494.822 679.244 634.438 652.05 634.438 618.508Z" stroke="url(#paint15_linear)" stroke-width="1.2038" stroke-miterlimit="10"/>
<path fill-rule="evenodd" clip-rule="evenodd" d="M1467.86 690.08C1471.92 648.876 1332.25 601.376 1155.98 584.013C979.712 566.65 833.469 586.002 829.407 627.206C825.345 668.426 965.011 715.91 1141.28 733.272C1317.54 750.635 1463.78 731.299 1467.86 690.08ZM652.61 609.794C656.672 568.574 517.006 521.073 340.735 503.711C164.464 486.348 18.221 505.7 14.1592 546.904C10.0973 588.123 149.762 635.624 326.034 652.987C502.305 670.349 648.548 651.014 652.61 609.794Z" stroke="url(#paint16_linear)" stroke-width="1.2038" stroke-miterlimit="10"/>
<path fill-rule="evenodd" clip-rule="evenodd" d="M1457.65 761.026C1467.27 712.687 1330.22 644.683 1151.59 609.169C972.986 573.654 820.346 584.046 810.726 632.385C801.106 680.724 938.156 748.728 1116.78 784.242C1295.39 819.757 1448.03 809.365 1457.65 761.026ZM671.274 604.631C680.895 556.292 543.844 488.288 365.238 452.774C186.631 417.259 33.9749 427.651 24.3547 475.973C14.7345 524.312 151.785 592.316 330.408 627.847C509.014 663.361 661.671 652.97 671.274 604.631Z" stroke="url(#paint17_linear)" stroke-width="1.2038" stroke-miterlimit="10"/>
<path fill-rule="evenodd" clip-rule="evenodd" d="M1440.51 830.658C1457.1 775.972 1325.36 687.58 1146.33 633.273C967.296 578.965 808.638 579.294 792.045 633.98C775.452 688.666 907.207 777.057 1086.22 831.365C1265.26 885.672 1423.92 885.36 1440.51 830.658ZM689.956 603.02C706.549 548.334 574.81 459.942 395.776 405.635C216.742 351.327 58.0831 351.656 41.4904 406.342C24.8976 461.028 156.636 549.419 335.67 603.727C514.704 658.034 673.363 657.705 689.956 603.02Z" stroke="url(#paint18_linear)" stroke-width="1.2038" stroke-miterlimit="10"/>
<path fill-rule="evenodd" clip-rule="evenodd" d="M1416.63 898.316C1441.51 838.237 1317.78 729.918 1140.33 656.44C962.873 582.944 798.771 572.06 773.89 632.138C749.009 692.217 872.739 800.536 1050.19 874.015C1227.65 947.51 1391.75 958.378 1416.63 898.316ZM708.111 604.878C732.992 544.816 609.278 436.496 431.823 363.001C254.368 289.506 90.2655 278.621 65.3846 338.7C40.5037 398.779 164.234 507.098 341.689 580.577C519.128 654.072 683.213 664.956 708.111 604.878Z" stroke="url(#paint19_linear)" stroke-width="1.2038" stroke-miterlimit="10"/>
<path fill-rule="evenodd" clip-rule="evenodd" d="M1386.23 963.327C1420.58 899.04 1307.52 771.582 1133.73 678.702C959.945 585.822 791.124 562.638 756.754 626.926C722.401 691.214 835.459 818.672 1009.25 911.552C1183.03 1004.42 1351.86 1027.62 1386.23 963.327ZM725.246 610.09C759.616 545.802 646.541 418.344 472.753 325.464C298.949 232.584 130.144 209.401 95.7742 273.689C61.4047 337.976 174.479 465.434 348.267 558.314C522.071 651.178 690.876 674.361 725.246 610.09Z" stroke="url(#paint20_linear)" stroke-width="1.2038" stroke-miterlimit="10"/>
<path fill-rule="evenodd" clip-rule="evenodd" d="M1349.57 1025.07C1394.45 957.918 1294.6 812.44 1126.61 700.208C958.63 587.976 785.977 551.425 741.115 618.574C696.238 685.723 796.09 831.2 964.073 943.433C1132.07 1055.67 1304.69 1092.22 1349.57 1025.07ZM740.902 618.426C785.779 551.277 685.927 405.799 517.944 293.567C349.944 181.351 177.308 144.784 132.43 211.933C87.5521 279.082 187.405 424.56 355.388 536.792C523.371 649.024 696.024 685.591 740.902 618.426Z" stroke="url(#paint21_linear)" stroke-width="1.2038" stroke-miterlimit="10"/>
<path fill-rule="evenodd" clip-rule="evenodd" d="M1307.03 1082.94C1363.27 1014.43 1279.09 852.377 1119.05 721.056C959.008 589.735 783.625 538.814 727.384 607.328C671.143 675.841 755.324 837.892 915.364 969.213C1075.39 1100.53 1250.79 1151.46 1307.03 1082.94ZM754.616 629.672C810.858 561.159 726.677 399.107 566.637 267.786C406.596 136.465 231.213 85.5442 174.972 154.058C118.731 222.571 202.912 384.622 362.952 515.944C522.992 647.265 698.375 698.185 754.616 629.672Z" stroke="url(#paint22_linear)" stroke-width="1.2038" stroke-miterlimit="10"/>
<path fill-rule="evenodd" clip-rule="evenodd" d="M1258.99 1136.39C1327.24 1068.16 1261.02 891.263 1111.09 741.378C961.179 591.494 784.25 525.266 715.988 593.516C647.742 661.75 713.965 838.648 863.892 988.533C1013.82 1138.42 1190.73 1204.65 1258.99 1136.39ZM766.013 643.5C834.258 575.266 768.035 398.368 618.109 248.467C468.198 98.5825 291.27 32.3546 223.024 100.605C154.778 168.839 221.001 345.737 370.911 495.621C520.822 645.522 697.751 711.734 766.013 643.5Z" stroke="url(#paint23_linear)" stroke-width="1.2038" stroke-miterlimit="10"/>
<path fill-rule="evenodd" clip-rule="evenodd" d="M1205.93 1184.91C1286.62 1118.7 1240.43 928.997 1102.77 761.273C965.109 593.566 788.032 511.241 707.338 577.453C626.643 643.664 672.837 833.371 810.496 1001.09C948.154 1168.82 1125.21 1251.13 1205.93 1184.91ZM774.679 659.547C855.373 593.336 809.18 403.629 671.521 235.922C533.862 68.2145 356.769 -14.11 276.091 52.1015C195.397 118.313 241.59 308.019 379.265 475.743C516.908 643.434 694.001 725.759 774.679 659.547Z" stroke="url(#paint24_linear)" stroke-width="1.2038" stroke-miterlimit="10"/>
<path fill-rule="evenodd" clip-rule="evenodd" d="M1148.34 1228.01C1241.68 1165.64 1217.35 965.415 1094.04 780.888C970.717 596.344 795.005 497.266 701.648 559.613C608.307 621.977 632.629 822.207 755.948 1006.73C879.267 1191.28 1054.98 1290.36 1148.34 1228.01ZM780.352 677.386C873.693 615.022 849.371 414.793 726.052 230.266C602.716 45.722 427.004 -53.3569 333.664 9.00721C240.323 71.3713 264.645 271.601 387.964 456.128C511.3 640.672 687.012 739.751 780.352 677.386Z" stroke="url(#paint25_linear)" stroke-width="1.2038" stroke-miterlimit="10"/>
<path fill-rule="evenodd" clip-rule="evenodd" d="M1086.77 1265.27C1192.72 1208.66 1191.87 1000.42 1084.88 800.29C977.887 600.159 805.2 483.783 699.247 540.393C593.294 597.018 594.132 805.239 701.138 1005.37C808.128 1205.5 980.814 1321.88 1086.77 1265.27ZM782.753 696.607C888.69 639.981 887.852 431.761 780.862 231.63C673.873 31.4996 501.187 -84.8761 395.249 -28.2502C289.296 28.3757 290.151 236.596 397.141 436.726C504.13 636.857 676.816 753.233 782.753 696.607Z" stroke="url(#paint26_linear)" stroke-width="1.2038" stroke-miterlimit="10"/>
<path fill-rule="evenodd" clip-rule="evenodd" d="M1021.81 1296.33C1140.08 1247.34 1163.99 1033.86 1075.24 819.609C986.471 605.355 818.57 471.32 700.316 520.284C582.045 569.265 558.134 782.746 646.887 997.001C735.655 1211.25 903.54 1345.31 1021.81 1296.33ZM781.684 716.716C899.938 667.735 923.865 454.27 835.113 239.999C746.344 25.7451 578.444 -108.289 460.189 -59.3088C341.935 -10.3284 318.008 203.153 406.761 417.407C495.529 631.662 663.43 765.696 781.684 716.716Z" stroke="url(#paint27_linear)" stroke-width="1.2038" stroke-miterlimit="10"/>
<path fill-rule="evenodd" clip-rule="evenodd" d="M954.091 1320.87C1084.12 1281.43 1133.78 1065.61 1065.01 838.911C996.239 612.227 835.015 460.37 704.986 499.798C574.958 539.242 525.294 755.058 594.066 981.742C662.855 1208.44 824.079 1360.3 954.091 1320.87ZM777.014 737.202C907.043 697.774 956.706 481.942 887.934 255.241C819.162 28.5566 657.921 -123.301 527.909 -83.873C397.881 -44.4454 348.217 171.387 416.989 398.072C485.761 624.772 646.985 776.63 777.014 737.202Z" stroke="url(#paint28_linear)" stroke-width="1.2038" stroke-miterlimit="10"/>
<path fill-rule="evenodd" clip-rule="evenodd" d="M884.283 1338.68C1025.26 1310.65 1101.34 1095.52 1054.14 858.28C1006.94 621.057 854.337 451.409 713.34 479.443C572.359 507.476 496.286 722.602 543.482 959.842C590.679 1197.07 743.286 1366.71 884.283 1338.68ZM768.66 757.557C909.641 729.524 985.714 514.398 938.518 277.158C891.321 39.9345 738.714 -129.713 597.717 -101.68C456.736 -73.6297 380.679 141.496 427.876 378.72C475.072 615.943 627.679 785.591 768.66 757.557Z" stroke="url(#paint29_linear)" stroke-width="1.2038" stroke-miterlimit="10"/>
<path fill-rule="evenodd" clip-rule="evenodd" d="M813.012 1349.56C963.892 1334.7 1066.64 1123.42 1042.43 877.748C1018.23 632.073 876.242 444.898 725.345 459.745C574.448 474.609 471.717 685.887 495.908 931.562C520.131 1177.24 662.131 1364.43 813.012 1349.56ZM756.639 777.255C907.536 762.391 1010.27 551.113 986.076 305.438C961.869 59.7634 819.869 -127.411 668.988 -112.564C518.108 -97.7006 415.361 113.578 439.568 359.252C463.758 604.927 605.742 792.102 756.639 777.255Z" stroke="url(#paint30_linear)" stroke-width="1.2038" stroke-miterlimit="10"/>
<path fill-rule="evenodd" clip-rule="evenodd" d="M741 1353.41C900.481 1353.41 1029.84 1149.17 1029.84 897.33C1029.84 645.489 900.497 441.248 741 441.248C581.502 441.248 452.165 645.489 452.165 897.33C452.165 1149.17 581.519 1353.41 741 1353.41ZM741 795.752C900.481 795.752 1029.84 591.51 1029.84 339.67C1029.84 87.8295 900.497 -116.412 741 -116.412C581.502 -116.412 452.165 87.8295 452.165 339.67C452.165 591.527 581.519 795.752 741 795.752Z" stroke="url(#paint31_linear)" stroke-width="1.2038" stroke-miterlimit="10"/>
<path fill-rule="evenodd" clip-rule="evenodd" d="M668.923 1350.17C835.475 1366.56 990.96 1172.6 1016.15 917.011C1041.33 661.421 926.678 440.837 760.109 424.444C593.557 408.052 438.055 602.017 412.878 857.606C387.718 1113.21 502.371 1333.78 668.923 1350.17ZM721.891 812.555C888.444 828.948 1043.95 634.983 1069.12 379.394C1094.3 123.804 979.646 -96.7799 813.077 -113.173C646.525 -129.582 491.04 64.3999 465.847 319.989C440.67 575.578 555.323 796.163 721.891 812.555Z" stroke="url(#paint32_linear)" stroke-width="1.2038" stroke-miterlimit="10"/>
<path fill-rule="evenodd" clip-rule="evenodd" d="M597.487 1339.9C769.351 1374.08 950.161 1193.56 1001.24 936.774C1052.33 679.984 954.371 444.027 782.507 409.86C610.643 375.678 429.833 556.193 378.739 812.983C327.662 1069.76 425.623 1305.71 597.487 1339.9ZM699.494 827.139C871.374 861.322 1052.17 680.79 1103.26 424.017C1154.34 167.244 1056.39 -68.7301 884.53 -102.896C712.666 -137.079 531.856 43.4364 480.779 300.226C429.668 556.999 527.63 792.973 699.494 827.139Z" stroke="url(#paint33_linear)" stroke-width="1.2038" stroke-miterlimit="10"/>
<path fill-rule="evenodd" clip-rule="evenodd" d="M527.367 1322.65C702.585 1375.79 907.503 1211.85 984.958 956.537C1062.41 701.227 983.133 451.08 807.914 397.94C632.695 344.8 427.777 508.742 350.306 764.052C272.851 1019.38 352.148 1269.51 527.367 1322.65ZM674.087 839.043C849.305 892.183 1054.24 728.241 1131.68 472.932C1209.13 217.622 1129.85 -32.5251 954.634 -85.6653C779.415 -138.805 574.514 25.1531 497.042 280.446C419.588 535.756 498.868 785.903 674.087 839.043Z" stroke="url(#paint34_linear)" stroke-width="1.2038" stroke-miterlimit="10"/>
<path fill-rule="evenodd" clip-rule="evenodd" d="M459.252 1298.61C635.688 1371.68 863.135 1227.32 967.148 976.234C1071.18 725.15 1012.45 462.261 836.001 389.193C659.566 316.125 432.119 460.485 328.089 711.569C224.076 962.67 282.8 1225.54 459.252 1298.61ZM645.999 847.823C822.434 920.891 1049.88 776.531 1153.91 525.431C1257.92 274.346 1199.22 11.4571 1022.76 -61.6107C846.329 -134.678 618.881 9.68136 514.852 260.765C410.839 511.85 469.563 774.739 645.999 847.823Z" stroke="url(#paint35_linear)" stroke-width="1.2038" stroke-miterlimit="10"/>
<path fill-rule="evenodd" clip-rule="evenodd" d="M393.769 1268.01C569.136 1361.73 817.172 1239.8 947.661 995.718C1078.15 751.638 1041.74 477.7 866.375 383.981C691.008 290.262 442.956 412.195 312.483 656.275C182.011 900.339 218.403 1174.28 393.769 1268.01ZM615.609 853.052C790.976 946.771 1039.01 824.837 1169.5 580.758C1299.97 336.678 1263.58 62.7394 1088.21 -30.9794C912.864 -124.715 664.812 -2.78156 534.323 241.298C403.85 485.378 440.242 759.317 615.609 853.052Z" stroke="url(#paint36_linear)" stroke-width="1.2038" stroke-miterlimit="10"/>
<path fill-rule="evenodd" clip-rule="evenodd" d="M331.608 1231.1C503.489 1345.93 769.844 1249.07 926.398 1014.81C1082.95 780.543 1070.52 497.447 898.639 382.616C726.759 267.786 460.403 364.645 303.849 598.909C147.296 833.174 159.711 1116.29 331.608 1231.1ZM583.377 854.367C755.258 969.197 1021.61 872.338 1178.17 638.074C1334.72 403.81 1322.29 120.714 1150.41 5.88336C978.528 -108.93 712.172 -12.0712 555.618 222.193C399.064 456.441 411.497 739.537 583.377 854.367Z" stroke="url(#paint37_linear)" stroke-width="1.2038" stroke-miterlimit="10"/>
<path fill-rule="evenodd" clip-rule="evenodd" d="M273.328 1188.27C439.206 1324.37 721.266 1255.02 903.195 1033.39C1085.12 811.75 1098.15 521.616 932.253 385.51C766.374 249.404 484.314 318.756 302.37 540.393C120.458 762.029 107.434 1052.16 273.328 1188.27ZM549.748 851.506C715.626 987.612 997.686 918.26 1179.61 696.607C1361.54 474.971 1374.55 184.837 1208.67 48.7309C1042.79 -87.375 760.717 -18.0232 578.806 203.63C396.878 425.267 383.87 715.384 549.748 851.506Z" stroke="url(#paint38_linear)" stroke-width="1.2038" stroke-miterlimit="10"/>
<path fill-rule="evenodd" clip-rule="evenodd" d="M219.488 1139.91C376.798 1297.2 671.669 1257.46 877.968 1051.19C1084.27 844.929 1124.01 550.093 966.704 392.81C809.41 235.527 514.523 275.267 308.224 481.531C101.925 687.81 62.1941 982.646 219.488 1139.91ZM515.28 844.173C672.59 1001.46 967.461 961.716 1173.76 755.452C1380.06 549.189 1419.81 254.353 1262.5 97.0863C1105.2 -60.1968 810.331 -20.4568 604.015 185.807C397.716 392.07 357.986 686.906 515.28 844.173Z" stroke="url(#paint39_linear)" stroke-width="1.2038" stroke-miterlimit="10"/>
<path fill-rule="evenodd" clip-rule="evenodd" d="M170.647 1086.49C316.759 1264.51 621.299 1256.24 850.687 1068.03C1080.07 879.819 1147.6 582.796 1001.47 404.78C855.34 226.764 550.817 235.034 321.429 423.244C92.0413 611.471 24.5192 908.477 170.647 1086.49ZM480.532 832.22C626.66 1010.24 931.184 1001.97 1160.57 813.755C1389.96 625.529 1457.48 328.522 1311.37 150.506C1165.23 -27.5103 860.701 -19.2401 631.314 168.97C401.942 357.197 334.404 654.203 480.532 832.22Z" stroke="url(#paint40_linear)" stroke-width="1.2038" stroke-miterlimit="10"/>
<path fill-rule="evenodd" clip-rule="evenodd" d="M127.249 1028.52C259.597 1226.55 570.369 1251.22 821.25 1083.62C1072.13 916.007 1168.27 619.494 1035.92 421.468C903.573 223.442 592.8 198.763 341.919 366.372C91.038 533.98 -5.08147 830.493 127.249 1028.52ZM446.08 815.531C578.427 1013.56 889.2 1038.24 1140.08 870.628C1390.95 703.019 1487.08 406.506 1354.75 208.48C1222.4 10.454 911.63 -14.2253 660.75 153.383C409.869 320.976 313.749 617.505 446.08 815.531Z" stroke="url(#paint41_linear)" stroke-width="1.2038" stroke-miterlimit="10"/>
<path fill-rule="evenodd" clip-rule="evenodd" d="M89.739 966.55C205.74 1183.53 519.177 1242.26 789.66 1097.71C1060.16 953.15 1185.45 659.958 1069.45 442.974C953.45 225.991 640.013 167.26 369.513 311.818C99.0303 456.375 -26.2622 749.566 89.739 966.55ZM412.549 794.042C528.55 1011.03 841.987 1069.76 1112.49 925.199C1382.99 780.642 1508.28 487.433 1392.26 270.466C1276.26 53.4826 962.823 -5.24787 692.34 139.309C421.824 283.85 296.548 577.058 412.549 794.042Z" stroke="url(#paint42_linear)" stroke-width="1.2038" stroke-miterlimit="10"/>
<path fill-rule="evenodd" clip-rule="evenodd" d="M58.4611 901.161C155.65 1135.74 468.001 1229.26 755.965 1110.01C1043.93 990.736 1198.66 703.792 1101.47 469.216C1004.28 234.639 691.945 141.118 403.965 260.371C116.018 379.64 -38.7109 666.584 58.4611 901.161ZM380.531 767.784C477.703 1002.36 790.055 1095.88 1078.02 976.629C1366 857.359 1520.71 570.415 1423.54 335.839C1326.35 101.263 1014.02 7.74108 726.035 126.994C438.072 246.264 283.343 533.208 380.531 767.784Z" stroke="url(#paint43_linear)" stroke-width="1.2038" stroke-miterlimit="10"/>
<path fill-rule="evenodd" clip-rule="evenodd" d="M33.7448 833.009C109.752 1083.52 417.137 1212.13 720.181 1120.22C1023.22 1028.31 1207.36 750.619 1131.35 500.11C1055.34 249.601 747.956 120.993 444.913 212.903C141.869 304.813 -42.2463 582.5 33.7448 833.009ZM350.651 736.89C426.643 987.398 734.044 1116.01 1037.09 1024.1C1340.13 932.187 1524.26 654.499 1448.26 403.991C1372.25 153.499 1064.86 24.8737 761.819 116.8C458.776 208.694 274.644 486.398 350.651 736.89Z" stroke="url(#paint44_linear)" stroke-width="1.2038" stroke-miterlimit="10"/>
<path fill-rule="evenodd" clip-rule="evenodd" d="M15.8199 762.72C68.4266 1027.19 366.948 1190.78 682.424 1128.03C997.9 1065.28 1211.09 799.928 1158.48 535.46C1105.86 271.009 807.338 107.412 491.862 170.154C176.386 232.913 -36.7868 498.268 15.8199 762.72ZM323.517 701.523C376.141 965.991 674.662 1129.59 990.138 1066.85C1305.61 1004.1 1518.8 738.748 1466.18 474.28C1413.57 209.812 1115.05 46.2151 799.576 108.957C484.084 171.716 270.911 437.072 323.517 701.523Z" stroke="url(#paint45_linear)" stroke-width="1.2038" stroke-miterlimit="10"/>
<path fill-rule="evenodd" clip-rule="evenodd" d="M4.86787 690.984C32.0675 967.158 317.762 1165.17 642.842 1133.17C967.921 1101.16 1209.48 851.227 1182.28 575.052C1155.08 298.878 869.384 100.868 544.305 132.864C219.225 164.876 -22.3482 414.809 4.86787 690.984ZM299.738 661.964C326.938 938.138 612.632 1136.15 937.712 1104.14C1262.78 1072.12 1504.35 822.19 1477.15 546.016C1449.93 269.841 1164.25 71.8152 839.175 103.828C514.096 135.84 272.539 385.773 299.738 661.964Z" stroke="url(#paint46_linear)" stroke-width="1.2038" stroke-miterlimit="10"/>
<path fill-rule="evenodd" clip-rule="evenodd" d="M0.986816 618.508C0.986816 903.89 269.924 1135.33 601.565 1135.33C933.19 1135.33 1202.14 903.89 1202.14 618.508C1202.14 333.126 933.206 101.674 601.565 101.674C269.924 101.674 0.986816 333.11 0.986816 618.508ZM279.857 618.508C279.857 903.89 548.811 1135.33 880.435 1135.33C1212.08 1135.33 1481.01 903.89 1481.01 618.508C1481.01 333.126 1212.08 101.674 880.435 101.674C548.811 101.674 279.857 333.11 279.857 618.508Z" stroke="url(#paint47_linear)" stroke-width="1.2038" stroke-miterlimit="10"/>
<path fill-rule="evenodd" clip-rule="evenodd" d="M4.24307 545.95C-24.5023 837.794 223.846 1101.23 558.842 1134.21C893.838 1167.19 1188.84 957.277 1217.59 665.433C1246.33 373.59 997.966 110.158 662.986 77.1753C327.974 44.1765 32.9885 254.106 4.24307 545.95ZM264.432 571.566C235.686 863.41 484.035 1126.84 819.047 1159.82C1154.04 1192.81 1449.03 982.893 1477.77 691.05C1506.52 399.206 1258.15 135.774 923.175 102.792C588.163 69.8094 293.177 279.723 264.432 571.566Z" stroke="url(#paint48_linear)" stroke-width="1.2038" stroke-miterlimit="10"/>
<path fill-rule="evenodd" clip-rule="evenodd" d="M14.6028 474.033C-44.1542 769.379 179.905 1062.92 514.951 1129.55C849.979 1196.18 1169.34 1010.71 1228.09 715.367C1286.85 420.021 1062.79 126.484 727.762 59.8454C392.7 -6.77713 73.3599 178.687 14.6028 474.033ZM253.923 521.632C195.166 816.961 419.226 1110.51 754.254 1177.15C1089.3 1243.78 1408.66 1058.31 1467.41 762.966C1526.17 467.621 1302.11 174.084 967.082 107.445C632.037 40.8221 312.68 226.287 253.923 521.632Z" stroke="url(#paint49_linear)" stroke-width="1.2038" stroke-miterlimit="10"/>
<path fill-rule="evenodd" clip-rule="evenodd" d="M31.9523 403.448C-57.7537 699.139 138.465 1020.51 470.122 1121.1C801.796 1221.7 1143.5 1063.47 1233.22 767.784C1322.93 472.093 1126.73 150.72 795.054 50.1284C463.397 -50.4631 121.675 107.757 31.9523 403.448ZM248.793 469.216C159.087 764.907 355.289 1086.28 686.963 1186.87C1018.62 1287.46 1360.34 1129.24 1450.05 833.552C1539.75 537.861 1343.55 216.487 1011.88 115.896C680.22 15.3045 338.499 173.525 248.793 469.216Z" stroke="url(#paint50_linear)" stroke-width="1.2038" stroke-miterlimit="10"/>
<path fill-rule="evenodd" clip-rule="evenodd" d="M56.1751 334.886C-65.1048 627.634 99.9511 974.13 424.751 1108.64C749.551 1243.15 1111.32 1114.84 1232.6 822.092C1353.88 529.344 1188.82 182.847 864.023 48.3363C539.223 -86.1913 177.455 42.1377 56.1751 334.886ZM249.401 414.908C128.121 707.656 293.177 1054.15 617.977 1188.66C942.793 1323.19 1304.54 1194.86 1425.82 902.114C1547.1 609.367 1382.05 262.87 1057.25 128.359C732.449 -6.15214 370.681 122.16 249.401 414.908Z" stroke="url(#paint51_linear)" stroke-width="1.2038" stroke-miterlimit="10"/>
<path fill-rule="evenodd" clip-rule="evenodd" d="M86.9929 268.986C-66.1077 555.371 64.7267 923.916 379.183 1091.97C693.639 1260.02 1072.82 1164.05 1225.91 877.649C1379.01 591.264 1248.17 222.719 933.716 54.6662C619.276 -113.37 240.11 -17.3986 86.9929 268.986ZM256.078 359.351C102.977 645.736 233.811 1014.28 548.268 1182.32C862.724 1350.37 1241.91 1254.4 1395.01 967.997C1548.11 681.612 1417.27 313.067 1102.82 145.014C788.361 -23.0053 409.195 72.966 256.078 359.351Z" stroke="url(#paint52_linear)" stroke-width="1.2038" stroke-miterlimit="10"/>
<path fill-rule="evenodd" clip-rule="evenodd" d="M124.158 206.408C-60.6645 482.961 33.235 870.102 333.845 1070.92C634.455 1271.74 1028.11 1210.33 1212.93 933.781C1397.74 657.229 1303.84 270.088 1003.24 69.2666C702.635 -131.555 308.964 -70.1442 124.158 206.408ZM269.069 303.218C84.263 579.771 178.163 966.912 478.756 1167.73C779.349 1368.55 1173.02 1307.14 1357.84 1030.59C1542.65 754.038 1448.75 366.898 1148.16 166.076C847.562 -34.7448 453.891 26.6657 269.069 303.218Z" stroke="url(#paint53_linear)" stroke-width="1.2038" stroke-miterlimit="10"/>
<path fill-rule="evenodd" clip-rule="evenodd" d="M167.276 147.744C-48.7586 410.929 5.82149 812.9 289.148 1045.39C572.458 1277.88 977.442 1252.95 1193.48 989.766C1409.51 726.58 1354.93 324.593 1071.61 92.1208C788.279 -140.351 383.31 -115.442 167.276 147.744ZM288.539 247.234C72.5049 510.435 127.085 912.407 410.395 1144.88C693.721 1377.35 1098.69 1352.44 1314.72 1089.26C1530.76 826.054 1476.18 424.083 1192.85 191.611C909.542 -40.8612 504.574 -15.9517 288.539 247.234Z" stroke="url(#paint54_linear)" stroke-width="1.2038" stroke-miterlimit="10"/>
<path fill-rule="evenodd" clip-rule="evenodd" d="M215.969 93.5679C-30.3897 339.884 -17.1352 752.641 245.553 1015.28C508.241 1277.93 921.07 1291.18 1167.45 1044.86C1413.8 798.547 1400.55 385.79 1137.86 123.13C875.156 -139.512 462.344 -152.748 215.969 93.5679ZM314.572 192.137C68.213 438.453 81.451 851.21 344.156 1113.87C606.844 1376.51 1019.69 1389.76 1266.05 1143.45C1512.41 897.133 1499.17 484.375 1236.46 221.716C973.759 -40.9268 560.93 -54.1789 314.572 192.137Z" stroke="url(#paint55_linear)" stroke-width="1.2038" stroke-miterlimit="10"/>
<path fill-rule="evenodd" clip-rule="evenodd" d="M269.759 44.3902C-5.6406 270.384 -35.2904 689.619 203.553 980.591C442.396 1271.58 859.435 1324.29 1134.85 1098.3C1410.25 872.322 1439.92 453.07 1201.07 162.098C962.215 -128.874 545.176 -181.587 269.759 44.3902ZM347.165 138.684C71.7648 364.678 42.0985 783.914 280.942 1074.9C519.785 1365.89 936.824 1418.59 1212.22 1192.61C1487.64 966.632 1517.29 547.397 1278.45 256.408C1039.6 -34.5802 622.581 -87.2929 347.165 138.684Z" stroke="url(#paint56_linear)" stroke-width="1.2038" stroke-miterlimit="10"/>
<path fill-rule="evenodd" clip-rule="evenodd" d="M328.138 0.720574C25.3577 202.989 -48.3148 624.214 163.625 941.345C375.565 1258.48 792.982 1351.62 1095.76 1149.33C1398.54 947.067 1472.22 525.842 1260.28 208.71C1048.34 -108.404 630.919 -201.548 328.138 0.720574ZM386.237 87.6653C83.4569 289.933 9.80097 711.158 221.724 1028.29C433.664 1345.42 851.081 1438.56 1153.86 1236.28C1456.64 1034.01 1530.31 612.786 1318.37 295.655C1106.43 -21.476 689.018 -114.619 386.237 87.6653Z" stroke="url(#paint57_linear)" stroke-width="1.2038" stroke-miterlimit="10"/>
<path fill-rule="evenodd" clip-rule="evenodd" d="M390.546 -37.0301C62.4574 138.306 -55.879 556.851 126.296 897.609C308.471 1238.37 722.286 1372.53 1050.37 1197.2C1378.46 1021.86 1496.8 603.316 1314.63 262.541C1132.45 -78.217 718.635 -212.383 390.546 -37.0301ZM431.625 39.8028C103.536 215.139 -14.8 633.7 167.375 974.459C349.55 1315.22 763.365 1449.38 1091.45 1274.05C1419.56 1098.71 1537.9 680.165 1355.72 339.391C1173.53 -1.36763 759.731 -135.533 431.625 39.8028Z" stroke="url(#paint58_linear)" stroke-width="1.2038" stroke-miterlimit="10"/>
<path fill-rule="evenodd" clip-rule="evenodd" d="M456.375 -68.5162C105.411 76.8466 -57.7374 487.96 92.0578 849.533C241.853 1211.12 647.972 1386.48 998.936 1241.11C1349.92 1095.77 1513.06 684.654 1363.27 323.064C1213.47 -38.5097 807.355 -213.863 456.375 -68.5162ZM483.064 -4.11332C132.084 141.233 -31.064 552.346 118.731 913.936C268.526 1275.51 674.646 1450.88 1025.63 1305.52C1376.59 1160.17 1539.75 749.057 1389.94 387.483C1240.15 25.8932 834.044 -149.46 483.064 -4.11332Z" stroke="url(#paint59_linear)" stroke-width="1.2038" stroke-miterlimit="10"/>
<path fill-rule="evenodd" clip-rule="evenodd" d="M525.015 -93.393C153.939 19.1517 -53.6591 418.016 61.4212 797.297C176.502 1176.6 570.748 1392.9 941.807 1280.38C1312.87 1167.83 1520.48 768.968 1405.4 389.686C1290.32 10.4047 896.074 -205.938 525.015 -93.393ZM540.193 -43.3768C169.118 69.168 -38.4806 468.032 76.5997 847.33C191.68 1226.63 585.926 1442.94 957.002 1330.41C1328.06 1217.86 1535.68 819 1420.58 439.719C1305.5 60.4209 911.252 -155.905 540.193 -43.3768Z" stroke="url(#paint60_linear)" stroke-width="1.2038" stroke-miterlimit="10"/>
<path fill-rule="evenodd" clip-rule="evenodd" d="M595.777 -111.446C207.747 -34.2677 -43.4304 347.529 34.8959 741.165C113.206 1134.8 491.402 1391.43 879.415 1314.26C1267.45 1237.1 1518.62 855.288 1440.31 461.669C1362 68.0337 983.807 -188.608 595.777 -111.446ZM602.585 -77.2633C214.555 -0.0850591 -36.6223 381.729 41.6876 775.347C119.997 1168.98 498.193 1425.62 886.224 1348.45C1274.25 1271.28 1525.43 889.47 1447.12 495.835C1368.81 102.216 990.615 -154.425 602.585 -77.2633Z" stroke="url(#paint61_linear)" stroke-width="1.2038" stroke-miterlimit="10"/>
<path fill-rule="evenodd" clip-rule="evenodd" d="M668.002 -122.462C266.454 -82.9194 -26.9033 277.076 12.9259 681.448C52.755 1085.82 410.724 1381.67 812.288 1342.13C1213.85 1302.59 1507.21 942.594 1467.36 538.222C1427.54 133.85 1069.58 -162.005 668.002 -122.462ZM669.712 -105.116C268.165 -65.5897 -25.193 294.422 14.6361 698.794C54.4653 1103.17 412.434 1399.02 813.998 1359.48C1215.56 1319.94 1508.92 959.94 1469.07 555.569C1429.25 151.197 1071.28 -144.675 669.712 -105.116Z" stroke="url(#paint62_linear)" stroke-width="1.2038" stroke-miterlimit="10"/>
</g>
<defs>
<linearGradient id="paint0_linear" x1="532.875" y1="618.503" x2="949.129" y2="618.503" gradientUnits="userSpaceOnUse">
<stop offset="0.00295869" stop-color="#015D74"/>
<stop offset="0.3604" stop-color="#2E8788"/>
<stop offset="0.7878" stop-color="#5FB49E"/>
<stop offset="1" stop-color="#72C6A6"/>
</linearGradient>
<linearGradient id="paint1_linear" x1="493.705" y1="618.502" x2="988.306" y2="618.502" gradientUnits="userSpaceOnUse">
<stop offset="0.00295869" stop-color="#015D74"/>
<stop offset="0.3604" stop-color="#2E8788"/>
<stop offset="0.7878" stop-color="#5FB49E"/>
<stop offset="1" stop-color="#72C6A6"/>
</linearGradient>
<linearGradient id="paint2_linear" x1="453.79" y1="618.502" x2="1028.22" y2="618.502" gradientUnits="userSpaceOnUse">
<stop offset="0.00295869" stop-color="#015D74"/>
<stop offset="0.3604" stop-color="#2E8788"/>
<stop offset="0.7878" stop-color="#5FB49E"/>
<stop offset="1" stop-color="#72C6A6"/>
</linearGradient>
<linearGradient id="paint3_linear" x1="411.67" y1="618.502" x2="1070.33" y2="618.502" gradientUnits="userSpaceOnUse">
<stop offset="0.00295869" stop-color="#015D74"/>
<stop offset="0.3604" stop-color="#2E8788"/>
<stop offset="0.7878" stop-color="#5FB49E"/>
<stop offset="1" stop-color="#72C6A6"/>
</linearGradient>
<linearGradient id="paint4_linear" x1="366.465" y1="618.503" x2="1115.54" y2="618.503" gradientUnits="userSpaceOnUse">
<stop offset="0.00295869" stop-color="#015D74"/>
<stop offset="0.3604" stop-color="#2E8788"/>
<stop offset="0.7878" stop-color="#5FB49E"/>
<stop offset="1" stop-color="#72C6A6"/>
</linearGradient>
<linearGradient id="paint5_linear" x1="318.581" y1="618.501" x2="1163.43" y2="618.501" gradientUnits="userSpaceOnUse">
<stop offset="0.00295869" stop-color="#015D74"/>
<stop offset="0.3604" stop-color="#2E8788"/>
<stop offset="0.7878" stop-color="#5FB49E"/>
<stop offset="1" stop-color="#72C6A6"/>
</linearGradient>
<linearGradient id="paint6_linear" x1="269.568" y1="618.501" x2="1212.44" y2="618.501" gradientUnits="userSpaceOnUse">
<stop offset="0.00295869" stop-color="#015D74"/>
<stop offset="0.3604" stop-color="#2E8788"/>
<stop offset="0.7878" stop-color="#5FB49E"/>
<stop offset="1" stop-color="#72C6A6"/>
</linearGradient>
<linearGradient id="paint7_linear" x1="221.37" y1="618.502" x2="1260.64" y2="618.502" gradientUnits="userSpaceOnUse">
<stop offset="0.00295869" stop-color="#015D74"/>
<stop offset="0.3604" stop-color="#2E8788"/>
<stop offset="0.7878" stop-color="#5FB49E"/>
<stop offset="1" stop-color="#72C6A6"/>
</linearGradient>
<linearGradient id="paint8_linear" x1="175.747" y1="618.502" x2="1306.26" y2="618.502" gradientUnits="userSpaceOnUse">
<stop offset="0.00295869" stop-color="#015D74"/>
<stop offset="0.3604" stop-color="#2E8788"/>
<stop offset="0.7878" stop-color="#5FB49E"/>
<stop offset="1" stop-color="#72C6A6"/>
</linearGradient>
<linearGradient id="paint9_linear" x1="134.097" y1="618.501" x2="1347.91" y2="618.501" gradientUnits="userSpaceOnUse">
<stop offset="0.00295869" stop-color="#015D74"/>
<stop offset="0.3604" stop-color="#2E8788"/>
<stop offset="0.7878" stop-color="#5FB49E"/>
<stop offset="1" stop-color="#72C6A6"/>
</linearGradient>
<linearGradient id="paint10_linear" x1="97.4786" y1="618.502" x2="1384.52" y2="618.502" gradientUnits="userSpaceOnUse">
<stop offset="0.00295869" stop-color="#015D74"/>
<stop offset="0.3604" stop-color="#2E8788"/>
<stop offset="0.7878" stop-color="#5FB49E"/>
<stop offset="1" stop-color="#72C6A6"/>
</linearGradient>
<linearGradient id="paint11_linear" x1="66.6748" y1="618.503" x2="1415.33" y2="618.503" gradientUnits="userSpaceOnUse">
<stop offset="0.00295869" stop-color="#015D74"/>
<stop offset="0.3604" stop-color="#2E8788"/>
<stop offset="0.7878" stop-color="#5FB49E"/>
<stop offset="1" stop-color="#72C6A6"/>
</linearGradient>
<linearGradient id="paint12_linear" x1="42.2364" y1="618.502" x2="1439.77" y2="618.502" gradientUnits="userSpaceOnUse">
<stop offset="0.00295869" stop-color="#015D74"/>
<stop offset="0.3604" stop-color="#2E8788"/>
<stop offset="0.7878" stop-color="#5FB49E"/>
<stop offset="1" stop-color="#72C6A6"/>
</linearGradient>
<linearGradient id="paint13_linear" x1="24.5233" y1="618.503" x2="1457.48" y2="618.503" gradientUnits="userSpaceOnUse">
<stop offset="0.00295869" stop-color="#015D74"/>
<stop offset="0.3604" stop-color="#2E8788"/>
<stop offset="0.7878" stop-color="#5FB49E"/>
<stop offset="1" stop-color="#72C6A6"/>
</linearGradient>
<linearGradient id="paint14_linear" x1="13.7487" y1="618.503" x2="1468.25" y2="618.503" gradientUnits="userSpaceOnUse">
<stop offset="0.00295869" stop-color="#015D74"/>
<stop offset="0.3604" stop-color="#2E8788"/>
<stop offset="0.7878" stop-color="#5FB49E"/>
<stop offset="1" stop-color="#72C6A6"/>
</linearGradient>
<linearGradient id="paint15_linear" x1="9.95551" y1="618.503" x2="1472.04" y2="618.503" gradientUnits="userSpaceOnUse">
<stop offset="0.00295869" stop-color="#015D74"/>
<stop offset="0.3604" stop-color="#2E8788"/>
<stop offset="0.7878" stop-color="#5FB49E"/>
<stop offset="1" stop-color="#72C6A6"/>
</linearGradient>
<linearGradient id="paint16_linear" x1="13.0774" y1="618.504" x2="1468.93" y2="618.504" gradientUnits="userSpaceOnUse">
<stop offset="0.00295869" stop-color="#015D74"/>
<stop offset="0.3604" stop-color="#2E8788"/>
<stop offset="0.7878" stop-color="#5FB49E"/>
<stop offset="1" stop-color="#72C6A6"/>
</linearGradient>
<linearGradient id="paint17_linear" x1="22.8967" y1="618.505" x2="1459.11" y2="618.505" gradientUnits="userSpaceOnUse">
<stop offset="0.00295869" stop-color="#015D74"/>
<stop offset="0.3604" stop-color="#2E8788"/>
<stop offset="0.7878" stop-color="#5FB49E"/>
<stop offset="1" stop-color="#72C6A6"/>
</linearGradient>
<linearGradient id="paint18_linear" x1="39.0896" y1="618.503" x2="1442.92" y2="618.503" gradientUnits="userSpaceOnUse">
<stop offset="0.00295869" stop-color="#015D74"/>
<stop offset="0.3604" stop-color="#2E8788"/>
<stop offset="0.7878" stop-color="#5FB49E"/>
<stop offset="1" stop-color="#72C6A6"/>
</linearGradient>
<linearGradient id="paint19_linear" x1="61.194" y1="618.503" x2="1420.81" y2="618.503" gradientUnits="userSpaceOnUse">
<stop offset="0.00295869" stop-color="#015D74"/>
<stop offset="0.3604" stop-color="#2E8788"/>
<stop offset="0.7878" stop-color="#5FB49E"/>
<stop offset="1" stop-color="#72C6A6"/>
</linearGradient>
<linearGradient id="paint20_linear" x1="88.6349" y1="618.505" x2="1393.37" y2="618.505" gradientUnits="userSpaceOnUse">
<stop offset="0.00295869" stop-color="#015D74"/>
<stop offset="0.3604" stop-color="#2E8788"/>
<stop offset="0.7878" stop-color="#5FB49E"/>
<stop offset="1" stop-color="#72C6A6"/>
</linearGradient>
<linearGradient id="paint21_linear" x1="120.7" y1="618.504" x2="1361.3" y2="618.504" gradientUnits="userSpaceOnUse">
<stop offset="0.00295869" stop-color="#015D74"/>
<stop offset="0.3604" stop-color="#2E8788"/>
<stop offset="0.7878" stop-color="#5FB49E"/>
<stop offset="1" stop-color="#72C6A6"/>
</linearGradient>
<linearGradient id="paint22_linear" x1="156.536" y1="618.503" x2="1325.47" y2="618.503" gradientUnits="userSpaceOnUse">
<stop offset="0.00295869" stop-color="#015D74"/>
<stop offset="0.3604" stop-color="#2E8788"/>
<stop offset="0.7878" stop-color="#5FB49E"/>
<stop offset="1" stop-color="#72C6A6"/>
</linearGradient>
<linearGradient id="paint23_linear" x1="195.151" y1="618.504" x2="1286.85" y2="618.504" gradientUnits="userSpaceOnUse">
<stop offset="0.00295869" stop-color="#015D74"/>
<stop offset="0.3604" stop-color="#2E8788"/>
<stop offset="0.7878" stop-color="#5FB49E"/>
<stop offset="1" stop-color="#72C6A6"/>
</linearGradient>
<linearGradient id="paint24_linear" x1="235.384" y1="618.503" x2="1246.62" y2="618.503" gradientUnits="userSpaceOnUse">
<stop offset="0.00295869" stop-color="#015D74"/>
<stop offset="0.3604" stop-color="#2E8788"/>
<stop offset="0.7878" stop-color="#5FB49E"/>
<stop offset="1" stop-color="#72C6A6"/>
</linearGradient>
<linearGradient id="paint25_linear" x1="275.925" y1="618.503" x2="1206.08" y2="618.503" gradientUnits="userSpaceOnUse">
<stop offset="0.00295869" stop-color="#015D74"/>
<stop offset="0.3604" stop-color="#2E8788"/>
<stop offset="0.7878" stop-color="#5FB49E"/>
<stop offset="1" stop-color="#72C6A6"/>
</linearGradient>
<linearGradient id="paint26_linear" x1="315.341" y1="618.502" x2="1166.66" y2="618.502" gradientUnits="userSpaceOnUse">
<stop offset="0.00295869" stop-color="#015D74"/>
<stop offset="0.3604" stop-color="#2E8788"/>
<stop offset="0.7878" stop-color="#5FB49E"/>
<stop offset="1" stop-color="#72C6A6"/>
</linearGradient>
<linearGradient id="paint27_linear" x1="352.164" y1="618.503" x2="1129.84" y2="618.503" gradientUnits="userSpaceOnUse">
<stop offset="0.00295869" stop-color="#015D74"/>
<stop offset="0.3604" stop-color="#2E8788"/>
<stop offset="0.7878" stop-color="#5FB49E"/>
<stop offset="1" stop-color="#72C6A6"/>
</linearGradient>
<linearGradient id="paint28_linear" x1="385.04" y1="618.503" x2="1096.96" y2="618.503" gradientUnits="userSpaceOnUse">
<stop offset="0.00295869" stop-color="#015D74"/>
<stop offset="0.3604" stop-color="#2E8788"/>
<stop offset="0.7878" stop-color="#5FB49E"/>
<stop offset="1" stop-color="#72C6A6"/>
</linearGradient>
<linearGradient id="paint29_linear" x1="412.886" y1="618.503" x2="1069.11" y2="618.503" gradientUnits="userSpaceOnUse">
<stop offset="0.00295869" stop-color="#015D74"/>
<stop offset="0.3604" stop-color="#2E8788"/>
<stop offset="0.7878" stop-color="#5FB49E"/>
<stop offset="1" stop-color="#72C6A6"/>
</linearGradient>
<linearGradient id="paint30_linear" x1="435.036" y1="618.503" x2="1046.97" y2="618.503" gradientUnits="userSpaceOnUse">
<stop offset="0.00295869" stop-color="#015D74"/>
<stop offset="0.3604" stop-color="#2E8788"/>
<stop offset="0.7878" stop-color="#5FB49E"/>
<stop offset="1" stop-color="#72C6A6"/>
</linearGradient>
<linearGradient id="paint31_linear" x1="451.177" y1="618.503" x2="1030.82" y2="618.503" gradientUnits="userSpaceOnUse">
<stop offset="0.00295869" stop-color="#015D74"/>
<stop offset="0.3604" stop-color="#2E8788"/>
<stop offset="0.7878" stop-color="#5FB49E"/>
<stop offset="1" stop-color="#72C6A6"/>
</linearGradient>
<linearGradient id="paint32_linear" x1="408.434" y1="618.503" x2="1073.57" y2="618.503" gradientUnits="userSpaceOnUse">
<stop offset="0.00295869" stop-color="#015D74"/>
<stop offset="0.3604" stop-color="#2E8788"/>
<stop offset="0.7878" stop-color="#5FB49E"/>
<stop offset="1" stop-color="#72C6A6"/>
</linearGradient>
<linearGradient id="paint33_linear" x1="364.222" y1="618.503" x2="1117.78" y2="618.503" gradientUnits="userSpaceOnUse">
<stop offset="0.00295869" stop-color="#015D74"/>
<stop offset="0.3604" stop-color="#2E8788"/>
<stop offset="0.7878" stop-color="#5FB49E"/>
<stop offset="1" stop-color="#72C6A6"/>
</linearGradient>
<linearGradient id="paint34_linear" x1="319.627" y1="618.501" x2="1162.37" y2="618.501" gradientUnits="userSpaceOnUse">
<stop offset="0.00295869" stop-color="#015D74"/>
<stop offset="0.3604" stop-color="#2E8788"/>
<stop offset="0.7878" stop-color="#5FB49E"/>
<stop offset="1" stop-color="#72C6A6"/>
</linearGradient>
<linearGradient id="paint35_linear" x1="275.662" y1="618.501" x2="1206.34" y2="618.501" gradientUnits="userSpaceOnUse">
<stop offset="0.00295869" stop-color="#015D74"/>
<stop offset="0.3604" stop-color="#2E8788"/>
<stop offset="0.7878" stop-color="#5FB49E"/>
<stop offset="1" stop-color="#72C6A6"/>
</linearGradient>
<linearGradient id="paint36_linear" x1="233.228" y1="618.502" x2="1248.77" y2="618.502" gradientUnits="userSpaceOnUse">
<stop offset="0.00295869" stop-color="#015D74"/>
<stop offset="0.3604" stop-color="#2E8788"/>
<stop offset="0.7878" stop-color="#5FB49E"/>
<stop offset="1" stop-color="#72C6A6"/>
</linearGradient>
<linearGradient id="paint37_linear" x1="193.108" y1="618.502" x2="1288.89" y2="618.502" gradientUnits="userSpaceOnUse">
<stop offset="0.00295869" stop-color="#015D74"/>
<stop offset="0.3604" stop-color="#2E8788"/>
<stop offset="0.7878" stop-color="#5FB49E"/>
<stop offset="1" stop-color="#72C6A6"/>
</linearGradient>
<linearGradient id="paint38_linear" x1="155.953" y1="618.501" x2="1326.05" y2="618.501" gradientUnits="userSpaceOnUse">
<stop offset="0.00295869" stop-color="#015D74"/>
<stop offset="0.3604" stop-color="#2E8788"/>
<stop offset="0.7878" stop-color="#5FB49E"/>
<stop offset="1" stop-color="#72C6A6"/>
</linearGradient>
<linearGradient id="paint39_linear" x1="122.284" y1="618.503" x2="1359.72" y2="618.503" gradientUnits="userSpaceOnUse">
<stop offset="0.00295869" stop-color="#015D74"/>
<stop offset="0.3604" stop-color="#2E8788"/>
<stop offset="0.7878" stop-color="#5FB49E"/>
<stop offset="1" stop-color="#72C6A6"/>
</linearGradient>
<linearGradient id="paint40_linear" x1="92.4908" y1="618.502" x2="1389.51" y2="618.502" gradientUnits="userSpaceOnUse">
<stop offset="0.00295869" stop-color="#015D74"/>
<stop offset="0.3604" stop-color="#2E8788"/>
<stop offset="0.7878" stop-color="#5FB49E"/>
<stop offset="1" stop-color="#72C6A6"/>
</linearGradient>
<linearGradient id="paint41_linear" x1="66.8435" y1="618.502" x2="1415.16" y2="618.502" gradientUnits="userSpaceOnUse">
<stop offset="0.00295869" stop-color="#015D74"/>
<stop offset="0.3604" stop-color="#2E8788"/>
<stop offset="0.7878" stop-color="#5FB49E"/>
<stop offset="1" stop-color="#72C6A6"/>
</linearGradient>
<linearGradient id="paint42_linear" x1="45.4865" y1="618.502" x2="1436.52" y2="618.502" gradientUnits="userSpaceOnUse">
<stop offset="0.00295869" stop-color="#015D74"/>
<stop offset="0.3604" stop-color="#2E8788"/>
<stop offset="0.7878" stop-color="#5FB49E"/>
<stop offset="1" stop-color="#72C6A6"/>
</linearGradient>
<linearGradient id="paint43_linear" x1="28.4455" y1="618.503" x2="1453.56" y2="618.503" gradientUnits="userSpaceOnUse">
<stop offset="0.00295869" stop-color="#015D74"/>
<stop offset="0.3604" stop-color="#2E8788"/>
<stop offset="0.7878" stop-color="#5FB49E"/>
<stop offset="1" stop-color="#72C6A6"/>
</linearGradient>
<linearGradient id="paint44_linear" x1="15.6344" y1="618.502" x2="1466.37" y2="618.502" gradientUnits="userSpaceOnUse">
<stop offset="0.00295869" stop-color="#015D74"/>
<stop offset="0.3604" stop-color="#2E8788"/>
<stop offset="0.7878" stop-color="#5FB49E"/>
<stop offset="1" stop-color="#72C6A6"/>
</linearGradient>
<linearGradient id="paint45_linear" x1="6.85256" y1="618.502" x2="1475.15" y2="618.502" gradientUnits="userSpaceOnUse">
<stop offset="0.00295869" stop-color="#015D74"/>
<stop offset="0.3604" stop-color="#2E8788"/>
<stop offset="0.7878" stop-color="#5FB49E"/>
<stop offset="1" stop-color="#72C6A6"/>
</linearGradient>
<linearGradient id="paint46_linear" x1="1.78366" y1="618.503" x2="1480.23" y2="618.503" gradientUnits="userSpaceOnUse">
<stop offset="0.00295869" stop-color="#015D74"/>
<stop offset="0.3604" stop-color="#2E8788"/>
<stop offset="0.7878" stop-color="#5FB49E"/>
<stop offset="1" stop-color="#72C6A6"/>
</linearGradient>
<linearGradient id="paint47_linear" x1="0.000132047" y1="618.499" x2="1482.01" y2="618.499" gradientUnits="userSpaceOnUse">
<stop offset="0.00295869" stop-color="#015D74"/>
<stop offset="0.3604" stop-color="#2E8788"/>
<stop offset="0.7878" stop-color="#5FB49E"/>
<stop offset="1" stop-color="#72C6A6"/>
</linearGradient>
<linearGradient id="paint48_linear" x1="0.989154" y1="618.503" x2="1481.02" y2="618.503" gradientUnits="userSpaceOnUse">
<stop offset="0.00295869" stop-color="#015D74"/>
<stop offset="0.3604" stop-color="#2E8788"/>
<stop offset="0.7878" stop-color="#5FB49E"/>
<stop offset="1" stop-color="#72C6A6"/>
</linearGradient>
<linearGradient id="paint49_linear" x1="4.24874" y1="618.5" x2="1477.75" y2="618.5" gradientUnits="userSpaceOnUse">
<stop offset="0.00295869" stop-color="#015D74"/>
<stop offset="0.3604" stop-color="#2E8788"/>
<stop offset="0.7878" stop-color="#5FB49E"/>
<stop offset="1" stop-color="#72C6A6"/>
</linearGradient>
<linearGradient id="paint50_linear" x1="9.23789" y1="618.503" x2="1472.77" y2="618.503" gradientUnits="userSpaceOnUse">
<stop offset="0.00295869" stop-color="#015D74"/>
<stop offset="0.3604" stop-color="#2E8788"/>
<stop offset="0.7878" stop-color="#5FB49E"/>
<stop offset="1" stop-color="#72C6A6"/>
</linearGradient>
<linearGradient id="paint51_linear" x1="15.3567" y1="618.501" x2="1466.65" y2="618.501" gradientUnits="userSpaceOnUse">
<stop offset="0.00295869" stop-color="#015D74"/>
<stop offset="0.3604" stop-color="#2E8788"/>
<stop offset="0.7878" stop-color="#5FB49E"/>
<stop offset="1" stop-color="#72C6A6"/>
</linearGradient>
<linearGradient id="paint52_linear" x1="21.9694" y1="618.503" x2="1460.03" y2="618.503" gradientUnits="userSpaceOnUse">
<stop offset="0.00295869" stop-color="#015D74"/>
<stop offset="0.3604" stop-color="#2E8788"/>
<stop offset="0.7878" stop-color="#5FB49E"/>
<stop offset="1" stop-color="#72C6A6"/>
</linearGradient>
<linearGradient id="paint53_linear" x1="28.4374" y1="618.503" x2="1453.56" y2="618.503" gradientUnits="userSpaceOnUse">
<stop offset="0.00295869" stop-color="#015D74"/>
<stop offset="0.3604" stop-color="#2E8788"/>
<stop offset="0.7878" stop-color="#5FB49E"/>
<stop offset="1" stop-color="#72C6A6"/>
</linearGradient>
<linearGradient id="paint54_linear" x1="34.1466" y1="618.502" x2="1447.86" y2="618.502" gradientUnits="userSpaceOnUse">
<stop offset="0.00295869" stop-color="#015D74"/>
<stop offset="0.3604" stop-color="#2E8788"/>
<stop offset="0.7878" stop-color="#5FB49E"/>
<stop offset="1" stop-color="#72C6A6"/>
</linearGradient>
<linearGradient id="paint55_linear" x1="38.5404" y1="618.502" x2="1443.47" y2="618.502" gradientUnits="userSpaceOnUse">
<stop offset="0.00295869" stop-color="#015D74"/>
<stop offset="0.3604" stop-color="#2E8788"/>
<stop offset="0.7878" stop-color="#5FB49E"/>
<stop offset="1" stop-color="#72C6A6"/>
</linearGradient>
<linearGradient id="paint56_linear" x1="41.1495" y1="618.503" x2="1440.85" y2="618.503" gradientUnits="userSpaceOnUse">
<stop offset="0.00295869" stop-color="#015D74"/>
<stop offset="0.3604" stop-color="#2E8788"/>
<stop offset="0.7878" stop-color="#5FB49E"/>
<stop offset="1" stop-color="#72C6A6"/>
</linearGradient>
<linearGradient id="paint57_linear" x1="41.6301" y1="618.503" x2="1440.37" y2="618.503" gradientUnits="userSpaceOnUse">
<stop offset="0.00295869" stop-color="#015D74"/>
<stop offset="0.3604" stop-color="#2E8788"/>
<stop offset="0.7878" stop-color="#5FB49E"/>
<stop offset="1" stop-color="#72C6A6"/>
</linearGradient>
<linearGradient id="paint58_linear" x1="39.7575" y1="618.502" x2="1442.25" y2="618.502" gradientUnits="userSpaceOnUse">
<stop offset="0.00295869" stop-color="#015D74"/>
<stop offset="0.3604" stop-color="#2E8788"/>
<stop offset="0.7878" stop-color="#5FB49E"/>
<stop offset="1" stop-color="#72C6A6"/>
</linearGradient>
<linearGradient id="paint59_linear" x1="35.4377" y1="618.501" x2="1446.57" y2="618.501" gradientUnits="userSpaceOnUse">
<stop offset="0.00295869" stop-color="#015D74"/>
<stop offset="0.3604" stop-color="#2E8788"/>
<stop offset="0.7878" stop-color="#5FB49E"/>
<stop offset="1" stop-color="#72C6A6"/>
</linearGradient>
<linearGradient id="paint60_linear" x1="28.6812" y1="618.503" x2="1453.32" y2="618.503" gradientUnits="userSpaceOnUse">
<stop offset="0.00295869" stop-color="#015D74"/>
<stop offset="0.3604" stop-color="#2E8788"/>
<stop offset="0.7878" stop-color="#5FB49E"/>
<stop offset="1" stop-color="#72C6A6"/>
</linearGradient>
<linearGradient id="paint61_linear" x1="19.5987" y1="618.502" x2="1462.41" y2="618.502" gradientUnits="userSpaceOnUse">
<stop offset="0.00295869" stop-color="#015D74"/>
<stop offset="0.3604" stop-color="#2E8788"/>
<stop offset="0.7878" stop-color="#5FB49E"/>
<stop offset="1" stop-color="#72C6A6"/>
</linearGradient>
<linearGradient id="paint62_linear" x1="8.31821" y1="618.503" x2="1473.69" y2="618.503" gradientUnits="userSpaceOnUse">
<stop offset="0.00295869" stop-color="#015D74"/>
<stop offset="0.3604" stop-color="#2E8788"/>
<stop offset="0.7878" stop-color="#5FB49E"/>
<stop offset="1" stop-color="#72C6A6"/>
</linearGradient>
</defs>
</svg>
