<svg width="539" height="1115" viewBox="0 0 539 1115" fill="none" xmlns="http://www.w3.org/2000/svg">
<g opacity="0.5" clip-path="url(#clip0)">
<path d="M137.846 605.742C70.5826 534.337 25.8235 459.512 155.229 420.168C327.362 367.691 433.175 449.286 433.087 621.653C433.627 654.089 440.673 608.093 443.531 597.483C465.244 495.411 394.56 383.362 279.824 397.874C186.18 409.677 209.729 430.826 210.091 502.093" stroke="url(#paint0_linear)" stroke-miterlimit="10"/>
<path d="M144.576 613.877C74.2404 547.733 25.6707 477.048 151.749 430.722C319.301 368.87 429.476 443.258 440.484 613.606C443.673 645.609 448.586 599.518 451.473 588.579C467.481 486.106 391.545 379.26 279.653 400.178C188.442 417.135 213.564 436.268 218.689 506.425" stroke="url(#paint1_linear)" stroke-miterlimit="10"/>
<path d="M151.702 621.98C78.6777 561.198 26.653 494.829 149.018 441.791C311.484 370.911 425.534 437.89 447.394 605.495C453.179 636.854 455.963 590.756 458.86 579.453C469.19 476.886 388.373 375.467 279.684 402.492C191.183 424.363 217.727 441.358 227.471 510.095" stroke="url(#paint2_linear)" stroke-miterlimit="10"/>
<path d="M159.237 630.031C83.9187 574.696 28.7658 512.789 147.088 453.309C304.01 373.806 421.442 433.163 453.854 597.343C462.16 627.869 462.84 581.866 465.697 570.136C470.4 467.782 385.073 371.992 279.891 404.81C194.356 431.319 222.141 446.084 236.365 513.101" stroke="url(#paint3_linear)" stroke-miterlimit="10"/>
<path d="M167.202 638.007C89.9733 588.163 32.0464 530.871 145.989 465.225C296.902 377.494 417.214 429.08 459.852 589.192C470.601 618.689 469.193 572.852 471.98 560.678C471.109 458.85 381.655 368.85 280.291 407.142C197.948 438.02 226.808 450.468 245.333 515.475" stroke="url(#paint4_linear)" stroke-miterlimit="10"/>
<path d="M175.591 645.877C96.8338 601.546 36.4881 548.964 145.747 477.466C290.256 381.943 412.934 425.627 465.406 581.031C478.497 609.326 475.017 563.739 477.685 551.079C471.326 450.065 378.133 366.01 280.84 409.434C201.909 444.382 231.657 454.447 254.284 517.177" stroke="url(#paint5_linear)" stroke-miterlimit="10"/>
<path d="M184.42 653.63C104.521 614.821 42.1054 567.013 146.392 490.003C284.099 387.138 408.635 422.821 470.537 572.919C485.866 599.83 480.341 554.58 482.825 541.402C471.076 441.492 374.519 363.49 281.55 411.704C206.202 450.437 236.667 458.044 263.187 518.238" stroke="url(#paint6_linear)" stroke-miterlimit="10"/>
<path d="M193.68 661.229C113.013 627.908 48.8844 584.935 147.927 502.742C278.479 393.004 404.354 420.627 475.228 564.864C492.664 590.224 485.13 545.395 487.385 531.68C470.346 433.149 370.813 361.311 282.392 413.942C210.792 456.147 241.779 461.258 271.973 518.696" stroke="url(#paint7_linear)" stroke-miterlimit="10"/>
<path d="M203.377 668.644C122.301 640.756 56.8161 602.653 150.385 515.618C273.452 399.497 400.15 419.025 479.524 556.865C498.945 580.524 489.416 536.177 491.386 521.911C469.188 425.042 367.066 359.421 283.369 416.115C215.664 461.486 246.97 464.069 280.595 518.51" stroke="url(#paint8_linear)" stroke-miterlimit="10"/>
<path d="M213.514 675.862C132.387 653.326 65.9049 620.095 153.77 528.582C269.074 406.575 396.079 418.014 483.418 548.97C504.673 570.785 493.184 527.004 494.802 512.167C467.566 417.214 363.25 357.872 284.433 418.237C220.738 466.455 252.169 466.495 288.986 517.742" stroke="url(#paint9_linear)" stroke-miterlimit="10"/>
<path d="M224.098 682.834C143.274 665.562 76.1235 637.174 158.092 541.548C265.367 414.153 392.163 417.551 486.937 541.165C509.879 561.001 496.452 517.865 497.659 502.435C465.545 409.651 359.393 356.611 285.608 420.273C226.004 471.036 257.389 468.516 297.108 516.39" stroke="url(#paint10_linear)" stroke-miterlimit="10"/>
<path d="M235.097 689.544C154.908 677.413 87.4316 653.82 163.33 554.46C262.343 422.216 388.426 417.618 490.073 533.476C514.524 551.206 499.2 508.785 499.929 492.787C463.099 402.415 355.493 355.676 286.829 422.247C231.39 475.224 262.519 470.161 304.889 514.507" stroke="url(#paint11_linear)" stroke-miterlimit="10"/>
<path d="M246.534 695.954C167.299 688.815 99.8288 669.953 169.5 567.247C260.072 430.663 384.948 418.194 492.859 525.921C518.656 541.443 501.466 499.81 501.649 483.226C460.268 395.493 351.584 355.046 288.116 424.136C236.895 479.02 267.569 471.448 312.308 512.118" stroke="url(#paint12_linear)" stroke-miterlimit="10"/>
<path d="M258.387 702.043C180.41 699.744 113.263 685.522 176.595 579.837C258.557 439.459 381.735 419.229 495.304 518.517C522.261 531.728 503.246 490.953 502.813 473.802C457.051 388.921 347.653 354.717 289.435 425.961C242.441 482.446 272.487 472.385 319.287 509.266" stroke="url(#paint13_linear)" stroke-miterlimit="10"/>
<path d="M270.657 707.776C194.223 710.129 127.72 700.442 184.593 592.17C257.825 448.53 378.818 420.717 497.431 511.261C525.379 522.088 504.564 482.236 503.439 464.526C453.502 382.714 343.731 354.684 290.781 427.713C248.032 485.488 277.236 472.992 325.819 505.98" stroke="url(#paint14_linear)" stroke-miterlimit="10"/>
<path d="M283.316 713.123C208.696 719.936 143.133 714.638 193.472 604.168C257.888 457.8 376.238 422.588 499.237 504.168C527.969 512.533 505.413 473.686 503.521 455.449C449.604 376.881 339.805 354.964 292.127 429.384C253.585 488.147 281.797 473.291 331.845 502.316" stroke="url(#paint15_linear)" stroke-miterlimit="10"/>
<path d="M296.358 718.052C223.816 729.105 159.466 728.048 203.22 615.791C258.75 467.233 374.008 424.845 500.753 497.254C530.074 503.119 505.808 465.329 503.087 446.577C445.407 371.452 335.897 355.535 293.465 431.001C259.101 490.46 286.117 473.314 337.344 498.321" stroke="url(#paint16_linear)" stroke-miterlimit="10"/>
<path d="M309.772 722.525C239.531 737.605 176.667 740.622 213.804 626.943C260.422 476.729 372.15 427.408 501.983 490.505C531.697 493.811 505.765 457.155 502.152 437.937C440.916 366.413 332.023 356.386 294.776 432.531C264.526 492.397 290.18 473.07 342.282 494.015" stroke="url(#paint17_linear)" stroke-miterlimit="10"/>
<path d="M323.52 726.538C255.81 745.401 194.685 752.309 225.187 637.6C262.893 486.249 370.687 430.273 502.947 483.955C532.857 484.7 505.298 449.227 500.714 429.587C436.142 361.825 328.168 357.549 296.035 434.033C269.825 494.036 293.947 472.616 346.631 489.507" stroke="url(#paint18_linear)" stroke-miterlimit="10"/>
<path d="M337.602 730.048C272.607 752.434 213.456 763.041 237.338 647.685C266.164 495.735 369.633 433.387 503.663 477.595C533.553 475.765 504.429 441.542 498.811 421.53C431.13 357.664 324.381 359.009 297.256 435.487C274.977 495.358 297.421 471.973 350.372 484.807" stroke="url(#paint19_linear)" stroke-miterlimit="10"/>
<path d="M351.996 733.019C289.886 758.682 232.932 772.754 250.211 657.123C270.233 505.082 368.998 436.687 504.139 471.419C533.811 467.013 503.163 434.109 496.454 413.768C425.888 353.924 320.635 360.721 298.411 436.887C279.957 496.385 300.562 471.152 353.491 479.969" stroke="url(#paint20_linear)" stroke-miterlimit="10"/>
<path d="M366.656 735.432C307.585 764.098 253.017 781.423 263.775 665.897C275.081 514.258 368.79 440.167 504.386 465.446C533.644 458.484 501.52 426.963 493.649 406.37C420.455 350.675 316.953 362.743 299.471 438.284C284.713 497.161 303.342 470.228 355.957 475.081" stroke="url(#paint21_linear)" stroke-miterlimit="10"/>
<path d="M381.574 737.269C325.673 768.666 273.673 789 277.967 673.938C280.685 523.205 369.01 443.769 504.424 459.673C533.058 450.208 499.519 420.116 490.426 399.328C414.83 347.872 313.331 365.03 300.441 439.664C289.23 497.706 305.759 469.214 357.777 470.173" stroke="url(#paint22_linear)" stroke-miterlimit="10"/>
<path d="M396.7 738.49C344.079 772.346 294.803 795.438 292.735 681.196C287.009 531.839 369.657 447.449 504.256 454.101C532.078 442.171 497.164 413.578 486.814 392.672C409.055 345.548 309.794 367.603 301.327 441.058C293.507 498.054 307.814 468.155 358.96 465.322" stroke="url(#paint23_linear)" stroke-miterlimit="10"/>
<path d="M412.031 739.084C362.779 775.117 316.369 800.711 308.045 687.634C294.048 540.131 370.74 451.165 503.902 448.728C530.717 434.413 494.488 407.363 482.815 386.425C403.137 343.699 306.336 370.454 302.092 442.464C297.504 498.217 309.467 467.097 359.486 460.573" stroke="url(#paint24_linear)" stroke-miterlimit="10"/>
<path d="M427.507 739.028C381.693 776.957 338.262 804.792 323.819 693.215C301.747 548.006 372.24 454.884 503.368 443.563C528.987 426.936 491.493 401.495 478.474 380.605C397.133 342.339 302.975 373.573 302.744 443.912C301.198 498.255 310.745 466.07 359.359 455.993" stroke="url(#paint25_linear)" stroke-miterlimit="10"/>
<path d="M443.104 738.303C400.765 777.85 360.405 807.665 339.995 697.893C310.086 555.409 374.154 458.559 502.657 438.592C526.893 419.75 488.222 395.97 473.805 375.218C391.031 341.451 299.705 376.95 303.281 445.403C304.594 498.177 311.628 465.121 358.609 451.634" stroke="url(#paint26_linear)" stroke-miterlimit="10"/>
<path d="M458.789 736.891C419.944 777.77 382.743 809.294 356.52 701.655C319.012 562.31 376.485 462.155 501.797 433.823C524.491 412.869 484.677 390.811 468.836 370.293C384.875 341.068 296.56 380.602 303.702 446.973C307.677 498.037 312.13 464.289 357.249 447.558" stroke="url(#paint27_linear)" stroke-miterlimit="10"/>
<path d="M474.504 734.769C439.159 776.711 405.166 809.673 373.314 704.464C328.487 568.641 379.176 465.636 500.78 429.261C521.75 406.323 480.878 386.03 463.587 365.841C378.695 341.183 293.525 384.525 303.995 448.64C310.431 497.867 312.256 463.627 355.277 443.823" stroke="url(#paint28_linear)" stroke-miterlimit="10"/>
<path d="M490.234 731.935C458.373 774.67 427.613 808.792 390.333 706.301C338.459 574.373 382.243 468.969 499.622 424.895C518.725 400.102 476.842 381.64 458.089 361.879C372.494 341.784 290.618 388.709 304.173 450.408C312.863 497.699 312.008 463.158 352.738 440.485" stroke="url(#paint29_linear)" stroke-miterlimit="10"/>
<path d="M505.925 728.372C477.51 771.636 449.993 806.656 407.493 707.143C348.886 579.473 385.658 472.124 498.337 420.729C515.429 394.234 472.61 377.629 452.371 358.414C366.315 342.881 287.838 393.155 304.233 452.312C314.961 497.573 311.417 462.934 349.667 437.605" stroke="url(#paint30_linear)" stroke-miterlimit="10"/>
<path d="M521.527 724.075C496.493 767.615 472.213 803.261 424.718 706.979C359.688 583.882 389.391 475.05 496.92 416.755C511.858 388.709 468.168 374.015 446.458 355.453C360.183 344.481 285.208 397.86 304.182 454.363C316.742 497.537 310.47 462.995 346.091 435.213" stroke="url(#paint31_linear)" stroke-miterlimit="10"/>
<path d="M537.004 719.042C515.282 762.599 494.21 798.621 441.942 705.811C370.829 587.6 393.415 477.738 495.371 412.973C508.031 383.54 463.558 370.811 440.371 353.01C354.094 346.553 282.719 402.808 304.014 456.573C318.197 497.598 309.221 463.37 342.03 433.378" stroke="url(#paint32_linear)" stroke-miterlimit="10"/>
<path d="M552.301 713.259C533.797 756.609 515.9 792.749 459.1 703.629C382.254 590.588 397.699 480.16 493.704 409.386C503.98 378.743 458.794 368.019 434.141 351.099C348.111 349.13 280.392 408.019 303.742 458.982C319.335 497.83 307.652 464.114 337.538 432.137" stroke="url(#paint33_linear)" stroke-miterlimit="10"/>
<path d="M567.393 706.739C551.999 749.656 537.19 785.665 476.126 700.439C393.906 592.809 402.24 482.285 491.942 405.993C499.718 374.321 453.916 365.651 427.821 349.713C342.245 352.17 278.247 413.483 303.405 461.578C320.198 498.244 305.846 465.226 332.689 431.519" stroke="url(#paint34_linear)" stroke-miterlimit="10"/>
<path d="M582.208 699.479C569.799 741.746 558.005 777.377 492.917 696.241C405.696 594.27 406.954 484.09 490.064 402.781C495.273 370.283 448.915 363.688 421.417 348.861C336.52 355.695 276.287 419.188 302.984 464.408C320.774 498.881 303.798 466.778 327.501 431.593" stroke="url(#paint35_linear)" stroke-miterlimit="10"/>
<path d="M596.723 691.48C587.162 732.9 578.266 767.931 509.437 691.056C417.595 594.94 411.859 485.565 488.077 399.76C490.649 366.613 443.828 362.157 414.951 348.541C330.944 359.676 274.497 425.128 302.5 467.47C321.092 499.772 301.557 468.777 322.023 432.365" stroke="url(#paint36_linear)" stroke-miterlimit="10"/>
<path d="M610.868 682.759C604.005 723.152 597.896 757.371 525.587 684.908C429.497 594.835 416.869 486.702 485.99 396.924C485.865 363.348 438.658 361.042 408.464 348.765C325.566 364.121 272.915 431.308 301.955 470.787C321.145 500.965 299.126 471.266 316.331 433.885" stroke="url(#paint37_linear)" stroke-miterlimit="10"/>
<path d="M624.603 673.328C620.28 712.521 616.824 745.716 541.32 677.799C441.387 593.929 421.991 487.474 483.806 394.281C480.939 360.476 433.452 360.365 401.986 349.525C320.389 369.015 271.553 437.729 301.399 474.364C321.011 502.451 296.585 474.245 310.469 436.172" stroke="url(#paint38_linear)" stroke-miterlimit="10"/>
<path d="M637.888 663.199C635.929 701.026 634.969 733.023 556.551 669.779C453.163 592.245 427.168 487.881 481.517 391.816C475.889 357.988 428.199 360.107 395.541 350.822C315.44 374.343 270.397 444.366 300.816 478.234C320.669 504.3 293.951 477.763 304.498 439.25" stroke="url(#paint39_linear)" stroke-miterlimit="10"/>
<path d="M650.666 652.392C650.885 688.731 652.274 719.337 571.217 660.861C464.761 589.775 432.352 487.901 479.131 389.544C470.719 355.915 422.935 360.27 389.15 352.652C310.728 380.101 269.47 451.241 300.246 482.385C320.17 506.516 291.269 481.818 298.486 443.137" stroke="url(#paint40_linear)" stroke-miterlimit="10"/>
<path d="M662.898 640.918C665.117 675.641 668.662 704.702 585.271 651.084C476.157 586.533 437.528 487.545 476.662 387.448C465.484 354.226 417.697 360.858 382.871 354.996C306.312 386.253 268.811 458.318 299.72 486.834C319.547 509.116 288.598 486.431 292.518 447.841" stroke="url(#paint41_linear)" stroke-miterlimit="10"/>
<path d="M674.529 628.823C678.544 661.838 684.076 689.198 598.629 640.52C487.231 582.553 442.624 486.832 474.094 385.559C460.166 352.955 412.476 361.875 376.704 357.875C302.186 392.826 268.384 465.62 299.24 491.603C318.841 512.133 285.976 491.629 286.628 453.378" stroke="url(#paint42_linear)" stroke-miterlimit="10"/>
<path d="M685.531 616.12C691.15 647.332 698.463 672.878 611.245 629.172C497.973 577.84 447.639 485.738 471.433 383.851C454.795 352.072 407.307 363.301 370.685 361.269C298.375 399.785 268.239 473.128 298.838 496.708C318.072 515.602 283.446 497.408 280.882 459.767" stroke="url(#paint43_linear)" stroke-miterlimit="10"/>
<path d="M695.84 602.835C702.857 632.189 711.752 655.795 623.048 617.115C508.289 572.427 452.498 484.295 468.671 382.327C449.372 351.6 402.188 365.136 364.829 365.147C294.874 407.082 268.347 480.814 298.531 502.116C317.285 519.498 281.054 503.765 275.368 466.957" stroke="url(#paint44_linear)" stroke-miterlimit="10"/>
<path d="M705.433 589.03C713.643 616.471 723.908 638.049 634.009 604.401C518.139 566.348 457.198 482.494 465.838 381.019C443.952 351.531 397.176 367.394 359.192 369.544C291.752 414.774 268.763 488.715 298.38 507.873C316.53 523.871 278.878 510.715 270.161 474.998" stroke="url(#paint45_linear)" stroke-miterlimit="10"/>
<path d="M714.263 574.705C723.464 600.201 734.889 619.689 644.065 591.078C527.471 559.632 461.688 480.352 462.911 379.891C438.519 351.862 392.259 370.037 353.785 374.398C288.988 422.767 269.488 496.772 298.38 513.935C315.852 528.697 276.95 518.236 265.32 483.832" stroke="url(#paint46_linear)" stroke-miterlimit="10"/>
<path d="M722.278 559.928C732.258 583.472 744.637 600.793 653.161 577.212C536.203 552.316 465.909 477.903 459.886 378.97C433.078 352.578 387.46 373.085 348.611 379.718C286.601 431.073 270.502 505.008 298.545 520.341C315.252 533.997 275.299 526.337 260.871 493.467" stroke="url(#paint47_linear)" stroke-miterlimit="10"/>
<path d="M729.462 544.73C740.018 566.313 753.121 581.45 661.278 562.872C544.316 544.468 469.866 475.157 456.788 378.265C427.685 353.717 382.819 376.526 343.73 385.503C284.623 439.686 271.853 513.408 298.95 527.081C314.842 539.788 274.023 535.007 256.959 503.89" stroke="url(#paint48_linear)" stroke-miterlimit="10"/>
<path d="M735.763 529.164C746.705 548.816 760.312 561.744 668.363 548.124C551.753 536.109 473.502 472.134 453.601 377.784C422.329 355.24 378.322 380.358 339.14 391.733C283.056 448.593 273.527 521.968 299.581 534.154C314.596 546.061 273.122 544.245 253.584 515.065" stroke="url(#paint49_linear)" stroke-miterlimit="10"/>
<path d="M741.166 513.262C752.308 531.02 766.199 541.741 674.406 533.03C558.491 527.3 476.805 468.876 450.336 377.509C417.032 357.166 374.005 384.56 334.883 398.359C281.929 457.719 275.567 530.64 300.502 541.508C314.6 552.768 272.692 553.961 250.849 526.908" stroke="url(#paint50_linear)" stroke-miterlimit="10"/>
<path d="M745.63 497.094C756.769 513.006 770.735 521.536 679.349 517.671C564.449 518.099 479.715 465.395 446.982 377.46C411.803 359.469 369.865 389.109 330.955 405.396C281.224 467.098 277.941 539.453 301.697 549.179C314.874 559.942 272.743 564.209 248.779 539.443" stroke="url(#paint51_linear)" stroke-miterlimit="10"/>
<path d="M749.135 480.705C760.101 494.859 773.924 501.22 683.187 502.119C569.616 508.568 482.236 461.722 443.557 377.648C406.669 362.156 365.94 394.031 327.403 412.804C280.992 476.677 280.694 548.36 303.237 557.146C315.497 567.561 273.355 574.929 247.477 552.608" stroke="url(#paint52_linear)" stroke-miterlimit="10"/>
<path d="M751.654 464.148C762.276 476.606 775.744 480.873 685.906 486.449C573.978 498.764 484.333 457.913 440.066 378.081C401.638 365.222 362.237 399.298 324.242 420.588C281.239 486.465 283.83 557.392 305.139 565.401C316.483 575.629 274.555 586.107 246.982 566.369" stroke="url(#paint53_linear)" stroke-miterlimit="10"/>
<path d="M753.168 447.489C763.292 458.364 776.199 460.6 687.473 470.742C577.476 488.742 485.978 453.984 436.492 378.771C396.712 368.69 358.766 404.905 321.472 428.711C281.943 496.405 287.346 566.482 307.406 573.907C317.86 584.095 276.374 597.678 247.319 580.654" stroke="url(#paint54_linear)" stroke-miterlimit="10"/>
<path d="M753.67 430.779C763.136 440.175 775.29 440.467 687.916 455.071C580.105 478.575 487.167 449.983 432.865 379.71C391.937 372.52 355.56 410.832 319.125 437.145C283.135 506.49 291.265 575.651 310.104 582.661C319.718 592.952 278.891 609.619 248.58 595.399" stroke="url(#paint55_linear)" stroke-miterlimit="10"/>
<path d="M753.129 414.083C761.807 422.132 773.026 420.585 687.202 439.513C581.855 468.327 487.879 445.935 429.175 380.917C387.301 376.71 352.601 417.067 317.211 445.871C284.818 516.684 295.577 584.859 313.227 591.631C322.054 602.158 282.119 621.889 250.79 610.566" stroke="url(#paint56_linear)" stroke-miterlimit="10"/>
<path d="M751.558 397.462C759.311 404.29 769.419 401.018 685.357 424.159C582.7 458.071 488.108 441.912 425.446 382.399C382.844 381.269 349.942 423.602 315.758 454.873C287.009 526.978 300.32 594.094 316.824 600.801C324.943 611.702 286.112 634.444 253.997 626.081" stroke="url(#paint57_linear)" stroke-miterlimit="10"/>
<path d="M748.933 380.975C755.663 386.731 764.498 381.873 682.378 409.078C582.657 447.876 487.833 437.937 421.664 384.168C378.555 386.182 347.57 430.433 314.762 464.109C289.69 537.323 305.471 603.337 320.897 610.135C328.378 621.531 290.879 647.222 258.238 641.866" stroke="url(#paint58_linear)" stroke-miterlimit="10"/>
<path d="M745.259 364.691C750.867 369.524 758.271 363.229 678.277 394.356C581.694 437.809 487.067 434.049 417.854 386.229C374.472 391.449 345.5 437.528 314.246 473.575C292.891 547.727 311.062 612.58 325.477 619.627C332.415 631.625 296.46 660.189 263.531 657.874" stroke="url(#paint59_linear)" stroke-miterlimit="10"/>
<path d="M740.535 348.689C744.933 352.766 750.777 345.189 673.079 380.071C579.826 427.953 485.785 430.309 414.013 388.596C370.575 397.059 343.752 444.9 314.212 483.236C296.594 558.14 317.08 621.784 330.578 629.222C337.093 641.926 302.885 673.258 269.925 674.008" stroke="url(#paint60_linear)" stroke-miterlimit="10"/>
<path d="M734.777 332.995C737.907 336.477 742.054 327.801 666.825 366.28C577.085 418.346 484.016 426.746 410.172 391.264C366.921 402.991 342.339 452.494 314.69 493.064C300.825 568.549 323.544 630.939 336.239 638.909C342.436 652.421 310.185 686.421 277.438 690.201" stroke="url(#paint61_linear)" stroke-miterlimit="10"/>
<path d="M727.991 317.722C729.801 320.776 732.141 311.169 659.519 353.086C573.452 409.093 481.747 423.414 406.325 394.259C363.494 409.254 341.273 460.326 315.665 503.032C305.565 578.919 330.451 640.022 342.455 648.634C348.472 663.035 318.371 699.559 286.092 706.371" stroke="url(#paint62_linear)" stroke-miterlimit="10"/>
<path d="M720.184 302.9C720.631 305.713 721.084 295.359 651.218 340.547C568.973 400.235 478.996 420.349 402.483 397.586C360.323 415.842 340.551 468.376 317.144 513.113C310.798 589.223 337.792 649.017 349.245 658.374C355.206 673.719 327.459 712.66 295.878 722.44" stroke="url(#paint63_linear)" stroke-miterlimit="10"/>
<path d="M711.392 288.612C710.468 291.351 708.949 280.461 641.955 328.724C563.65 391.855 475.779 417.599 398.674 401.228C357.411 422.719 340.198 476.605 319.151 523.27C316.563 599.427 345.594 657.872 356.623 668.074C362.672 684.431 337.443 725.613 306.825 738.302" stroke="url(#paint64_linear)" stroke-miterlimit="10"/>
<path d="M701.614 274.916C699.307 277.76 695.77 266.534 631.765 317.714C557.526 384.028 472.089 415.226 394.891 405.237C354.774 429.911 340.193 485.037 321.668 533.491C322.818 609.522 353.837 666.588 364.594 677.721C370.881 695.13 348.348 738.381 318.913 753.898" stroke="url(#paint65_linear)" stroke-miterlimit="10"/>
<path d="M690.899 261.876C687.234 265.008 681.624 253.652 620.717 307.557C550.632 376.807 467.987 413.241 391.173 409.577C352.436 437.381 340.601 493.623 324.712 543.742C329.58 619.475 362.531 675.148 373.178 687.268C379.843 705.752 360.171 750.919 332.153 769.151" stroke="url(#paint66_linear)" stroke-miterlimit="10"/>
<path d="M679.272 249.559C674.282 253.156 666.58 241.876 608.855 298.332C543.003 370.254 463.455 411.712 387.518 414.286C350.387 445.134 341.372 502.358 328.275 553.994C336.843 629.253 371.662 683.502 382.366 696.663C389.589 716.233 372.914 763.111 346.527 783.946" stroke="url(#paint67_linear)" stroke-miterlimit="10"/>
<path d="M666.77 238.025C660.5 242.245 650.702 231.274 596.259 290.097C534.715 364.439 458.563 410.68 383.974 419.368C348.683 453.161 342.564 511.242 332.381 564.245C344.597 638.864 381.246 691.663 392.176 705.894C400.105 726.547 386.567 774.939 362.022 798.244" stroke="url(#paint68_linear)" stroke-miterlimit="10"/>
<path d="M653.436 227.329C645.947 232.357 634.065 221.897 582.973 282.884C525.788 359.397 453.322 410.161 380.532 424.785C347.302 461.43 344.159 520.206 337.009 574.401C352.842 648.225 391.28 699.542 402.598 714.865C411.392 736.577 401.119 786.283 378.625 811.903" stroke="url(#paint69_linear)" stroke-miterlimit="10"/>
<path d="M639.304 217.532C630.686 223.525 616.737 213.784 569.062 276.77C516.267 355.206 447.76 410.208 377.211 430.594C346.255 469.956 346.142 529.28 342.141 584.51C361.536 657.363 401.734 707.189 413.619 723.594C423.439 746.342 416.537 797.127 396.277 824.897" stroke="url(#paint70_linear)" stroke-miterlimit="10"/>
<path d="M624.428 208.685C614.761 215.802 598.812 206.997 554.615 271.786C506.239 351.896 441.916 410.846 374.042 436.765C345.569 478.688 348.559 538.427 347.784 594.485C370.687 666.213 412.599 714.507 425.229 731.983C436.236 755.708 432.786 807.352 414.948 837.096" stroke="url(#paint71_linear)" stroke-miterlimit="10"/>
<path d="M608.864 200.847C598.265 209.23 580.382 201.576 539.691 267.977C495.734 349.521 435.836 412.116 371.044 443.311C345.251 487.636 351.387 547.625 353.944 604.334C380.287 674.781 423.889 721.522 437.437 740.027C449.794 764.67 449.875 816.931 434.613 848.456" stroke="url(#paint72_linear)" stroke-miterlimit="10"/>
<path d="M592.646 194.057C581.248 203.836 561.502 197.535 524.365 265.371C484.83 348.114 429.554 414.034 368.224 450.228C345.294 496.791 354.616 556.858 360.582 614.012C390.306 683.014 435.561 728.178 450.202 747.657C464.051 773.124 467.74 825.774 455.197 858.869" stroke="url(#paint73_linear)" stroke-miterlimit="10"/>
<path d="M575.858 188.38C563.786 199.691 542.296 194.928 508.738 264.024C473.607 347.735 423.138 416.641 365.625 457.525C345.739 506.142 358.29 566.122 367.716 623.507C400.74 690.927 447.636 734.473 463.537 754.854C479.025 781.06 486.36 833.845 476.671 868.283" stroke="url(#paint74_linear)" stroke-miterlimit="10"/>
<path d="M558.552 183.845C545.957 196.81 522.846 193.78 492.868 263.938C462.119 348.398 416.599 419.955 363.266 465.18C346.591 515.638 362.389 575.36 375.333 632.781C411.578 698.458 460.072 740.353 477.407 761.557C494.675 788.387 505.69 841.045 498.968 876.622" stroke="url(#paint75_linear)" stroke-miterlimit="10"/>
<path d="M540.798 180.494C527.846 195.2 503.24 194.083 476.857 265.145C450.449 350.124 410.027 423.992 361.159 473.21C347.843 525.307 366.899 584.592 383.407 641.826C422.796 705.629 472.874 745.826 491.782 767.737C510.976 795.061 525.665 847.363 522.016 883.823" stroke="url(#paint76_linear)" stroke-miterlimit="10"/>
<path d="M522.664 178.365C509.513 194.907 483.573 195.877 460.798 267.65C438.683 352.945 403.463 428.763 359.354 481.584C349.528 535.085 371.871 593.765 391.948 650.578C434.383 712.357 486.019 750.834 506.666 773.335C527.901 801.016 546.271 852.695 545.766 889.798" stroke="url(#paint77_linear)" stroke-miterlimit="10"/>
<path d="M504.207 177.497C491.05 195.948 463.931 199.157 444.751 271.476C426.881 356.884 396.949 434.301 357.836 490.335C351.633 545.012 377.235 602.896 400.916 659.072C446.3 718.698 499.468 755.39 521.998 778.351C545.382 806.235 567.409 857.026 570.117 894.537" stroke="url(#paint78_linear)" stroke-miterlimit="10"/>
<path d="M485.527 177.902C472.545 198.318 444.436 203.911 428.828 276.616C415.132 361.935 390.544 440.586 356.67 499.415C354.187 555.015 383.051 611.928 410.317 667.235C458.547 724.571 513.237 759.438 537.765 782.7C563.414 810.627 589.047 860.284 595.012 897.935" stroke="url(#paint79_linear)" stroke-miterlimit="10"/>
<path d="M466.67 179.621C454.056 202.053 425.157 210.158 413.1 283.076C403.497 368.121 384.31 447.649 355.851 508.837C357.177 565.113 389.278 620.873 420.111 675.079C471.081 730.002 527.258 762.982 553.922 786.386C581.907 814.176 611.102 862.445 620.344 899.972" stroke="url(#paint80_linear)" stroke-miterlimit="10"/>
<path d="M447.731 182.657C435.697 207.133 406.198 217.86 397.67 290.83C392.089 375.423 378.301 455.461 355.404 518.563C360.613 575.265 395.908 629.678 430.291 682.55C483.882 734.932 541.537 765.974 570.416 789.334C600.831 816.795 633.504 863.426 646.016 900.577" stroke="url(#paint81_linear)" stroke-miterlimit="10"/>
<path d="M428.791 187.033C417.529 213.546 387.665 227.001 382.626 299.873C380.982 383.845 372.565 464.026 355.379 528.6C364.517 585.447 402.982 638.33 440.85 689.64C496.952 739.372 556.046 768.405 587.25 791.531C620.147 818.472 656.215 863.223 671.995 899.735" stroke="url(#paint82_linear)" stroke-miterlimit="10"/>
<path d="M409.929 192.762C399.649 221.317 369.632 237.585 368.053 310.192C370.256 393.387 367.189 473.354 355.78 538.934C368.889 595.659 410.449 646.824 451.741 696.343C510.239 743.305 570.741 770.278 604.338 792.969C639.754 819.172 679.105 861.809 698.119 897.423" stroke="url(#paint83_linear)" stroke-miterlimit="10"/>
<path d="M391.223 199.843C382.14 230.41 352.204 249.541 354.039 321.759C359.985 404.016 362.22 483.428 356.641 549.545C373.741 605.883 418.345 655.14 462.969 702.631C523.718 746.712 585.606 771.545 621.674 793.595C659.654 818.86 702.147 859.14 724.336 893.591" stroke="url(#paint84_linear)" stroke-miterlimit="10"/>
<path d="M372.756 208.277C365.076 240.816 335.473 262.861 340.662 334.528C350.251 415.698 357.692 494.206 357.973 560.393C379.06 616.057 426.622 663.236 474.498 708.48C537.38 749.575 600.614 772.199 639.169 793.379C679.724 817.481 725.215 855.175 750.513 888.212" stroke="url(#paint85_linear)" stroke-miterlimit="10"/>
<path d="M354.616 218.057C348.542 252.498 319.524 277.496 328 348.478C341.132 428.423 353.683 505.701 359.795 571.488C384.848 626.202 435.286 671.121 486.301 713.882C551.176 751.91 615.719 772.242 656.794 792.325C699.908 815.041 748.265 849.938 776.564 881.312" stroke="url(#paint86_linear)" stroke-miterlimit="10"/>
<path d="M336.883 229.184C332.627 265.451 304.439 293.388 316.15 363.553C332.709 442.154 350.25 517.855 362.14 582.79C391.125 636.273 444.332 678.75 498.363 718.835C565.089 753.668 630.897 771.631 674.5 790.393C720.161 811.501 771.191 843.388 802.373 872.855" stroke="url(#paint87_linear)" stroke-miterlimit="10"/>
<path d="M319.647 241.63C317.411 279.617 290.3 310.5 305.189 379.708C325.069 456.841 347.452 530.648 365.029 594.274C397.885 646.261 453.757 686.114 510.66 723.294C579.086 754.871 646.117 770.373 692.225 787.573C740.401 806.836 793.905 835.528 827.86 862.84" stroke="url(#paint88_linear)" stroke-miterlimit="10"/>
<path d="M302.986 255.371C302.961 294.969 277.194 328.759 295.19 396.889C318.282 472.445 345.331 544.055 368.475 605.922C405.111 656.118 463.519 693.203 523.143 727.276C593.139 755.511 661.325 768.474 709.909 783.864C760.528 801.058 816.311 826.356 852.883 851.302" stroke="url(#paint89_linear)" stroke-miterlimit="10"/>
<path d="M286.992 270.39C289.363 311.456 265.188 348.104 286.221 415.034C312.412 488.918 343.948 558.04 372.496 617.687C412.836 665.838 473.647 699.965 535.82 730.753C607.223 755.566 676.502 765.901 727.517 779.241C780.505 794.12 838.36 815.866 877.372 838.237" stroke="url(#paint90_linear)" stroke-miterlimit="10"/>
<path d="M271.728 286.651C276.678 329.045 254.359 368.467 278.342 434.087C307.512 506.192 343.332 572.553 377.111 629.56C421.022 675.396 484.106 706.42 548.655 733.724C621.3 755.048 691.611 762.651 744.98 773.708C800.227 786.059 859.914 804.08 901.196 823.663" stroke="url(#paint91_linear)" stroke-miterlimit="10"/>
<path d="M257.283 304.113C264.978 347.66 244.764 389.768 271.627 453.956C303.669 524.195 343.553 587.516 382.325 641.492C429.684 684.759 494.871 712.526 561.588 736.164C635.337 753.941 706.595 758.723 762.208 767.248C819.612 776.854 880.895 791.02 924.243 807.62" stroke="url(#paint92_linear)" stroke-miterlimit="10"/>
<path d="M243.742 322.738C254.353 367.257 236.475 411.932 266.141 474.594C300.938 542.885 344.649 602.934 388.174 653.461C438.816 693.897 505.959 718.271 574.638 738.087C649.312 752.247 721.444 754.122 779.203 759.884C838.624 766.524 901.254 776.702 946.45 790.145" stroke="url(#paint93_linear)" stroke-miterlimit="10"/>
<path d="M231.177 342.475C244.84 387.761 229.551 434.878 261.932 495.904C299.372 562.172 346.663 618.722 394.65 665.438C448.416 702.823 517.33 723.646 587.76 739.494C663.195 749.993 736.096 748.861 795.858 751.631C857.138 755.072 920.849 761.163 967.678 771.273" stroke="url(#paint94_linear)" stroke-miterlimit="10"/>
<path d="M219.657 363.283C236.508 409.13 224.04 458.533 259.048 517.81C299.019 581.982 349.618 634.822 401.773 677.376C458.459 711.459 528.968 728.624 600.911 740.354C676.945 747.147 750.52 742.924 812.127 742.469C875.09 742.525 939.624 744.422 987.841 751.075" stroke="url(#paint95_linear)" stroke-miterlimit="10"/>
<path d="M209.26 385.094C229.416 431.284 219.98 482.781 257.541 540.239C299.927 602.254 353.563 651.193 409.537 689.243C468.961 719.829 540.869 733.196 614.072 740.688C690.521 743.743 764.667 736.326 827.935 732.43C892.408 728.901 957.489 726.545 1006.83 729.591" stroke="url(#paint96_linear)" stroke-miterlimit="10"/>
<path d="M200.057 407.854C223.614 454.136 217.426 507.558 257.443 563.089C302.143 622.891 358.526 667.749 417.972 701.013C479.896 727.869 552.999 737.347 627.236 740.49C703.943 739.77 778.533 729.083 843.267 721.546C909.006 714.249 974.342 707.554 1024.56 706.896" stroke="url(#paint97_linear)" stroke-miterlimit="10"/>
<path d="M192.094 431.481C219.137 477.621 216.402 532.744 258.78 586.265C305.696 643.806 364.514 684.442 427.042 712.623C491.236 735.571 565.336 741.055 640.327 739.744C717.106 735.23 792.01 721.186 858.01 709.801C924.816 698.574 990.119 687.522 1040.94 683.064" stroke="url(#paint98_linear)" stroke-miterlimit="10"/>
<path d="M185.456 455.925C216.059 501.65 216.952 558.257 261.597 609.684C310.605 664.909 371.577 701.195 436.791 724.049C503.016 742.914 577.871 744.326 653.352 738.483C730.023 730.162 805.114 712.663 872.122 697.265C939.753 681.925 1004.75 666.501 1055.88 658.167" stroke="url(#paint99_linear)" stroke-miterlimit="10"/>
<path d="M180.176 481.098C214.384 526.149 219.075 583.994 265.901 633.238C316.904 686.099 379.722 717.923 447.189 735.24C515.167 749.86 590.578 747.116 666.267 736.673C742.651 724.534 817.777 703.516 885.565 683.927C953.757 664.36 1018.14 644.555 1069.32 632.294" stroke="url(#paint100_linear)" stroke-miterlimit="10"/>
<path d="M176.318 506.916C214.156 551.015 222.808 609.84 271.699 656.841C324.611 707.307 388.934 734.579 458.227 746.176C527.688 756.406 603.424 749.446 679.045 734.365C754.958 718.411 829.966 693.788 898.255 669.869C966.754 645.932 1030.23 621.755 1081.15 605.545" stroke="url(#paint101_linear)" stroke-miterlimit="10"/>
</g>
<defs>
<linearGradient id="paint0_linear" x1="147.963" y1="396.831" x2="404.745" y2="662.258" gradientUnits="userSpaceOnUse">
<stop offset="0.00295869" stop-color="#015D74"/>
<stop offset="0.3604" stop-color="#2E8788"/>
<stop offset="0.7878" stop-color="#5FB49E"/>
<stop offset="1" stop-color="#72C6A6"/>
</linearGradient>
<linearGradient id="paint1_linear" x1="155.044" y1="402.557" x2="405.549" y2="661.496" gradientUnits="userSpaceOnUse">
<stop offset="0.00295869" stop-color="#015D74"/>
<stop offset="0.3604" stop-color="#2E8788"/>
<stop offset="0.7878" stop-color="#5FB49E"/>
<stop offset="1" stop-color="#72C6A6"/>
</linearGradient>
<linearGradient id="paint2_linear" x1="162.132" y1="409.172" x2="405.584" y2="660.821" gradientUnits="userSpaceOnUse">
<stop offset="0.00295869" stop-color="#015D74"/>
<stop offset="0.3604" stop-color="#2E8788"/>
<stop offset="0.7878" stop-color="#5FB49E"/>
<stop offset="1" stop-color="#72C6A6"/>
</linearGradient>
<linearGradient id="paint3_linear" x1="169.42" y1="416.41" x2="405.093" y2="660.017" gradientUnits="userSpaceOnUse">
<stop offset="0.00295869" stop-color="#015D74"/>
<stop offset="0.3604" stop-color="#2E8788"/>
<stop offset="0.7878" stop-color="#5FB49E"/>
<stop offset="1" stop-color="#72C6A6"/>
</linearGradient>
<linearGradient id="paint4_linear" x1="177.005" y1="424.091" x2="404.231" y2="658.968" gradientUnits="userSpaceOnUse">
<stop offset="0.00295869" stop-color="#015D74"/>
<stop offset="0.3604" stop-color="#2E8788"/>
<stop offset="0.7878" stop-color="#5FB49E"/>
<stop offset="1" stop-color="#72C6A6"/>
</linearGradient>
<linearGradient id="paint5_linear" x1="184.922" y1="432.067" x2="403.108" y2="657.598" gradientUnits="userSpaceOnUse">
<stop offset="0.00295869" stop-color="#015D74"/>
<stop offset="0.3604" stop-color="#2E8788"/>
<stop offset="0.7878" stop-color="#5FB49E"/>
<stop offset="1" stop-color="#72C6A6"/>
</linearGradient>
<linearGradient id="paint6_linear" x1="193.161" y1="440.2" x2="401.798" y2="655.862" gradientUnits="userSpaceOnUse">
<stop offset="0.00295869" stop-color="#015D74"/>
<stop offset="0.3604" stop-color="#2E8788"/>
<stop offset="0.7878" stop-color="#5FB49E"/>
<stop offset="1" stop-color="#72C6A6"/>
</linearGradient>
<linearGradient id="paint7_linear" x1="201.67" y1="448.337" x2="400.369" y2="653.726" gradientUnits="userSpaceOnUse">
<stop offset="0.00295869" stop-color="#015D74"/>
<stop offset="0.3604" stop-color="#2E8788"/>
<stop offset="0.7878" stop-color="#5FB49E"/>
<stop offset="1" stop-color="#72C6A6"/>
</linearGradient>
<linearGradient id="paint8_linear" x1="210.353" y1="456.303" x2="398.877" y2="651.174" gradientUnits="userSpaceOnUse">
<stop offset="0.00295869" stop-color="#015D74"/>
<stop offset="0.3604" stop-color="#2E8788"/>
<stop offset="0.7878" stop-color="#5FB49E"/>
<stop offset="1" stop-color="#72C6A6"/>
</linearGradient>
<linearGradient id="paint9_linear" x1="218.934" y1="463.749" x2="397.369" y2="648.191" gradientUnits="userSpaceOnUse">
<stop offset="0.00295869" stop-color="#015D74"/>
<stop offset="0.3604" stop-color="#2E8788"/>
<stop offset="0.7878" stop-color="#5FB49E"/>
<stop offset="1" stop-color="#72C6A6"/>
</linearGradient>
<linearGradient id="paint10_linear" x1="227.319" y1="470.53" x2="395.887" y2="644.773" gradientUnits="userSpaceOnUse">
<stop offset="0.00295869" stop-color="#015D74"/>
<stop offset="0.3604" stop-color="#2E8788"/>
<stop offset="0.7878" stop-color="#5FB49E"/>
<stop offset="1" stop-color="#72C6A6"/>
</linearGradient>
<linearGradient id="paint11_linear" x1="232.543" y1="473.54" x2="394.467" y2="640.915" gradientUnits="userSpaceOnUse">
<stop offset="0.00295869" stop-color="#015D74"/>
<stop offset="0.3604" stop-color="#2E8788"/>
<stop offset="0.7878" stop-color="#5FB49E"/>
<stop offset="1" stop-color="#72C6A6"/>
</linearGradient>
<linearGradient id="paint12_linear" x1="235.438" y1="473.6" x2="393.15" y2="636.622" gradientUnits="userSpaceOnUse">
<stop offset="0.00295869" stop-color="#015D74"/>
<stop offset="0.3604" stop-color="#2E8788"/>
<stop offset="0.7878" stop-color="#5FB49E"/>
<stop offset="1" stop-color="#72C6A6"/>
</linearGradient>
<linearGradient id="paint13_linear" x1="238.332" y1="473.097" x2="391.963" y2="631.9" gradientUnits="userSpaceOnUse">
<stop offset="0.00295869" stop-color="#015D74"/>
<stop offset="0.3604" stop-color="#2E8788"/>
<stop offset="0.7878" stop-color="#5FB49E"/>
<stop offset="1" stop-color="#72C6A6"/>
</linearGradient>
<linearGradient id="paint14_linear" x1="241.275" y1="472.055" x2="390.942" y2="626.76" gradientUnits="userSpaceOnUse">
<stop offset="0.00295869" stop-color="#015D74"/>
<stop offset="0.3604" stop-color="#2E8788"/>
<stop offset="0.7878" stop-color="#5FB49E"/>
<stop offset="1" stop-color="#72C6A6"/>
</linearGradient>
<linearGradient id="paint15_linear" x1="244.299" y1="470.49" x2="390.109" y2="621.21" gradientUnits="userSpaceOnUse">
<stop offset="0.00295869" stop-color="#015D74"/>
<stop offset="0.3604" stop-color="#2E8788"/>
<stop offset="0.7878" stop-color="#5FB49E"/>
<stop offset="1" stop-color="#72C6A6"/>
</linearGradient>
<linearGradient id="paint16_linear" x1="247.436" y1="468.423" x2="395.856" y2="621.839" gradientUnits="userSpaceOnUse">
<stop offset="0.00295869" stop-color="#015D74"/>
<stop offset="0.3604" stop-color="#2E8788"/>
<stop offset="0.7878" stop-color="#5FB49E"/>
<stop offset="1" stop-color="#72C6A6"/>
</linearGradient>
<linearGradient id="paint17_linear" x1="250.715" y1="465.871" x2="407.56" y2="627.997" gradientUnits="userSpaceOnUse">
<stop offset="0.00295869" stop-color="#015D74"/>
<stop offset="0.3604" stop-color="#2E8788"/>
<stop offset="0.7878" stop-color="#5FB49E"/>
<stop offset="1" stop-color="#72C6A6"/>
</linearGradient>
<linearGradient id="paint18_linear" x1="254.154" y1="462.854" x2="419.506" y2="633.773" gradientUnits="userSpaceOnUse">
<stop offset="0.00295869" stop-color="#015D74"/>
<stop offset="0.3604" stop-color="#2E8788"/>
<stop offset="0.7878" stop-color="#5FB49E"/>
<stop offset="1" stop-color="#72C6A6"/>
</linearGradient>
<linearGradient id="paint19_linear" x1="257.723" y1="459.453" x2="431.619" y2="639.204" gradientUnits="userSpaceOnUse">
<stop offset="0.00295869" stop-color="#015D74"/>
<stop offset="0.3604" stop-color="#2E8788"/>
<stop offset="0.7878" stop-color="#5FB49E"/>
<stop offset="1" stop-color="#72C6A6"/>
</linearGradient>
<linearGradient id="paint20_linear" x1="261.319" y1="455.796" x2="443.756" y2="644.375" gradientUnits="userSpaceOnUse">
<stop offset="0.00295869" stop-color="#015D74"/>
<stop offset="0.3604" stop-color="#2E8788"/>
<stop offset="0.7878" stop-color="#5FB49E"/>
<stop offset="1" stop-color="#72C6A6"/>
</linearGradient>
<linearGradient id="paint21_linear" x1="264.963" y1="451.906" x2="455.885" y2="649.255" gradientUnits="userSpaceOnUse">
<stop offset="0.00295869" stop-color="#015D74"/>
<stop offset="0.3604" stop-color="#2E8788"/>
<stop offset="0.7878" stop-color="#5FB49E"/>
<stop offset="1" stop-color="#72C6A6"/>
</linearGradient>
<linearGradient id="paint22_linear" x1="268.666" y1="447.807" x2="467.98" y2="653.832" gradientUnits="userSpaceOnUse">
<stop offset="0.00295869" stop-color="#015D74"/>
<stop offset="0.3604" stop-color="#2E8788"/>
<stop offset="0.7878" stop-color="#5FB49E"/>
<stop offset="1" stop-color="#72C6A6"/>
</linearGradient>
<linearGradient id="paint23_linear" x1="272.443" y1="443.515" x2="480.007" y2="658.068" gradientUnits="userSpaceOnUse">
<stop offset="0.00295869" stop-color="#015D74"/>
<stop offset="0.3604" stop-color="#2E8788"/>
<stop offset="0.7878" stop-color="#5FB49E"/>
<stop offset="1" stop-color="#72C6A6"/>
</linearGradient>
<linearGradient id="paint24_linear" x1="276.305" y1="439.058" x2="491.939" y2="661.952" gradientUnits="userSpaceOnUse">
<stop offset="0.00295869" stop-color="#015D74"/>
<stop offset="0.3604" stop-color="#2E8788"/>
<stop offset="0.7878" stop-color="#5FB49E"/>
<stop offset="1" stop-color="#72C6A6"/>
</linearGradient>
<linearGradient id="paint25_linear" x1="280.259" y1="434.46" x2="503.736" y2="665.461" gradientUnits="userSpaceOnUse">
<stop offset="0.00295869" stop-color="#015D74"/>
<stop offset="0.3604" stop-color="#2E8788"/>
<stop offset="0.7878" stop-color="#5FB49E"/>
<stop offset="1" stop-color="#72C6A6"/>
</linearGradient>
<linearGradient id="paint26_linear" x1="284.314" y1="429.742" x2="515.369" y2="668.577" gradientUnits="userSpaceOnUse">
<stop offset="0.00295869" stop-color="#015D74"/>
<stop offset="0.3604" stop-color="#2E8788"/>
<stop offset="0.7878" stop-color="#5FB49E"/>
<stop offset="1" stop-color="#72C6A6"/>
</linearGradient>
<linearGradient id="paint27_linear" x1="288.629" y1="424.779" x2="527.276" y2="671.461" gradientUnits="userSpaceOnUse">
<stop offset="0.00295869" stop-color="#015D74"/>
<stop offset="0.3604" stop-color="#2E8788"/>
<stop offset="0.7878" stop-color="#5FB49E"/>
<stop offset="1" stop-color="#72C6A6"/>
</linearGradient>
<linearGradient id="paint28_linear" x1="293.581" y1="419.231" x2="540.176" y2="674.128" gradientUnits="userSpaceOnUse">
<stop offset="0.00295869" stop-color="#015D74"/>
<stop offset="0.3604" stop-color="#2E8788"/>
<stop offset="0.7878" stop-color="#5FB49E"/>
<stop offset="1" stop-color="#72C6A6"/>
</linearGradient>
<linearGradient id="paint29_linear" x1="298.746" y1="413.545" x2="553.221" y2="676.588" gradientUnits="userSpaceOnUse">
<stop offset="0.00295869" stop-color="#015D74"/>
<stop offset="0.3604" stop-color="#2E8788"/>
<stop offset="0.7878" stop-color="#5FB49E"/>
<stop offset="1" stop-color="#72C6A6"/>
</linearGradient>
<linearGradient id="paint30_linear" x1="304.106" y1="407.759" x2="566.189" y2="678.665" gradientUnits="userSpaceOnUse">
<stop offset="0.00295869" stop-color="#015D74"/>
<stop offset="0.3604" stop-color="#2E8788"/>
<stop offset="0.7878" stop-color="#5FB49E"/>
<stop offset="1" stop-color="#72C6A6"/>
</linearGradient>
<linearGradient id="paint31_linear" x1="309.638" y1="401.908" x2="578.925" y2="680.261" gradientUnits="userSpaceOnUse">
<stop offset="0.00295869" stop-color="#015D74"/>
<stop offset="0.3604" stop-color="#2E8788"/>
<stop offset="0.7878" stop-color="#5FB49E"/>
<stop offset="1" stop-color="#72C6A6"/>
</linearGradient>
<linearGradient id="paint32_linear" x1="315.331" y1="396.031" x2="591.318" y2="681.31" gradientUnits="userSpaceOnUse">
<stop offset="0.00295869" stop-color="#015D74"/>
<stop offset="0.3604" stop-color="#2E8788"/>
<stop offset="0.7878" stop-color="#5FB49E"/>
<stop offset="1" stop-color="#72C6A6"/>
</linearGradient>
<linearGradient id="paint33_linear" x1="321.159" y1="390.169" x2="603.265" y2="681.773" gradientUnits="userSpaceOnUse">
<stop offset="0.00295869" stop-color="#015D74"/>
<stop offset="0.3604" stop-color="#2E8788"/>
<stop offset="0.7878" stop-color="#5FB49E"/>
<stop offset="1" stop-color="#72C6A6"/>
</linearGradient>
<linearGradient id="paint34_linear" x1="327.091" y1="384.369" x2="614.671" y2="681.631" gradientUnits="userSpaceOnUse">
<stop offset="0.00295869" stop-color="#015D74"/>
<stop offset="0.3604" stop-color="#2E8788"/>
<stop offset="0.7878" stop-color="#5FB49E"/>
<stop offset="1" stop-color="#72C6A6"/>
</linearGradient>
<linearGradient id="paint35_linear" x1="333.076" y1="378.69" x2="625.434" y2="680.892" gradientUnits="userSpaceOnUse">
<stop offset="0.00295869" stop-color="#015D74"/>
<stop offset="0.3604" stop-color="#2E8788"/>
<stop offset="0.7878" stop-color="#5FB49E"/>
<stop offset="1" stop-color="#72C6A6"/>
</linearGradient>
<linearGradient id="paint36_linear" x1="339.022" y1="373.228" x2="635.417" y2="679.603" gradientUnits="userSpaceOnUse">
<stop offset="0.00295869" stop-color="#015D74"/>
<stop offset="0.3604" stop-color="#2E8788"/>
<stop offset="0.7878" stop-color="#5FB49E"/>
<stop offset="1" stop-color="#72C6A6"/>
</linearGradient>
<linearGradient id="paint37_linear" x1="339.53" y1="373.211" x2="639.188" y2="682.958" gradientUnits="userSpaceOnUse">
<stop offset="0.00295869" stop-color="#015D74"/>
<stop offset="0.3604" stop-color="#2E8788"/>
<stop offset="0.7878" stop-color="#5FB49E"/>
<stop offset="1" stop-color="#72C6A6"/>
</linearGradient>
<linearGradient id="paint38_linear" x1="338.647" y1="374.722" x2="640.768" y2="687.015" gradientUnits="userSpaceOnUse">
<stop offset="0.00295869" stop-color="#015D74"/>
<stop offset="0.3604" stop-color="#2E8788"/>
<stop offset="0.7878" stop-color="#5FB49E"/>
<stop offset="1" stop-color="#72C6A6"/>
</linearGradient>
<linearGradient id="paint39_linear" x1="337.69" y1="376.491" x2="641.448" y2="690.477" gradientUnits="userSpaceOnUse">
<stop offset="0.00295869" stop-color="#015D74"/>
<stop offset="0.3604" stop-color="#2E8788"/>
<stop offset="0.7878" stop-color="#5FB49E"/>
<stop offset="1" stop-color="#72C6A6"/>
</linearGradient>
<linearGradient id="paint40_linear" x1="336.646" y1="378.515" x2="641.209" y2="693.332" gradientUnits="userSpaceOnUse">
<stop offset="0.00295869" stop-color="#015D74"/>
<stop offset="0.3604" stop-color="#2E8788"/>
<stop offset="0.7878" stop-color="#5FB49E"/>
<stop offset="1" stop-color="#72C6A6"/>
</linearGradient>
<linearGradient id="paint41_linear" x1="335.501" y1="380.8" x2="640.021" y2="695.572" gradientUnits="userSpaceOnUse">
<stop offset="0.00295869" stop-color="#015D74"/>
<stop offset="0.3604" stop-color="#2E8788"/>
<stop offset="0.7878" stop-color="#5FB49E"/>
<stop offset="1" stop-color="#72C6A6"/>
</linearGradient>
<linearGradient id="paint42_linear" x1="334.214" y1="383.373" x2="637.845" y2="697.226" gradientUnits="userSpaceOnUse">
<stop offset="0.00295869" stop-color="#015D74"/>
<stop offset="0.3604" stop-color="#2E8788"/>
<stop offset="0.7878" stop-color="#5FB49E"/>
<stop offset="1" stop-color="#72C6A6"/>
</linearGradient>
<linearGradient id="paint43_linear" x1="332.728" y1="386.271" x2="634.628" y2="698.335" gradientUnits="userSpaceOnUse">
<stop offset="0.00295869" stop-color="#015D74"/>
<stop offset="0.3604" stop-color="#2E8788"/>
<stop offset="0.7878" stop-color="#5FB49E"/>
<stop offset="1" stop-color="#72C6A6"/>
</linearGradient>
<linearGradient id="paint44_linear" x1="334.239" y1="386.379" x2="633.576" y2="695.793" gradientUnits="userSpaceOnUse">
<stop offset="0.00295869" stop-color="#015D74"/>
<stop offset="0.3604" stop-color="#2E8788"/>
<stop offset="0.7878" stop-color="#5FB49E"/>
<stop offset="1" stop-color="#72C6A6"/>
</linearGradient>
<linearGradient id="paint45_linear" x1="338.786" y1="383.647" x2="634.741" y2="689.566" gradientUnits="userSpaceOnUse">
<stop offset="0.00295869" stop-color="#015D74"/>
<stop offset="0.3604" stop-color="#2E8788"/>
<stop offset="0.7878" stop-color="#5FB49E"/>
<stop offset="1" stop-color="#72C6A6"/>
</linearGradient>
<linearGradient id="paint46_linear" x1="343.009" y1="381.302" x2="634.777" y2="682.894" gradientUnits="userSpaceOnUse">
<stop offset="0.00295869" stop-color="#015D74"/>
<stop offset="0.3604" stop-color="#2E8788"/>
<stop offset="0.7878" stop-color="#5FB49E"/>
<stop offset="1" stop-color="#72C6A6"/>
</linearGradient>
<linearGradient id="paint47_linear" x1="346.892" y1="379.33" x2="633.698" y2="675.793" gradientUnits="userSpaceOnUse">
<stop offset="0.00295869" stop-color="#015D74"/>
<stop offset="0.3604" stop-color="#2E8788"/>
<stop offset="0.7878" stop-color="#5FB49E"/>
<stop offset="1" stop-color="#72C6A6"/>
</linearGradient>
<linearGradient id="paint48_linear" x1="350.424" y1="377.72" x2="631.514" y2="668.274" gradientUnits="userSpaceOnUse">
<stop offset="0.00295869" stop-color="#015D74"/>
<stop offset="0.3604" stop-color="#2E8788"/>
<stop offset="0.7878" stop-color="#5FB49E"/>
<stop offset="1" stop-color="#72C6A6"/>
</linearGradient>
<linearGradient id="paint49_linear" x1="353.642" y1="376.488" x2="628.259" y2="660.351" gradientUnits="userSpaceOnUse">
<stop offset="0.00295869" stop-color="#015D74"/>
<stop offset="0.3604" stop-color="#2E8788"/>
<stop offset="0.7878" stop-color="#5FB49E"/>
<stop offset="1" stop-color="#72C6A6"/>
</linearGradient>
<linearGradient id="paint50_linear" x1="356.831" y1="375.907" x2="623.967" y2="652.037" gradientUnits="userSpaceOnUse">
<stop offset="0.00295869" stop-color="#015D74"/>
<stop offset="0.3604" stop-color="#2E8788"/>
<stop offset="0.7878" stop-color="#5FB49E"/>
<stop offset="1" stop-color="#72C6A6"/>
</linearGradient>
<linearGradient id="paint51_linear" x1="360.062" y1="376.021" x2="618.675" y2="643.341" gradientUnits="userSpaceOnUse">
<stop offset="0.00295869" stop-color="#015D74"/>
<stop offset="0.3604" stop-color="#2E8788"/>
<stop offset="0.7878" stop-color="#5FB49E"/>
<stop offset="1" stop-color="#72C6A6"/>
</linearGradient>
<linearGradient id="paint52_linear" x1="363.421" y1="376.745" x2="612.503" y2="634.214" gradientUnits="userSpaceOnUse">
<stop offset="0.00295869" stop-color="#015D74"/>
<stop offset="0.3604" stop-color="#2E8788"/>
<stop offset="0.7878" stop-color="#5FB49E"/>
<stop offset="1" stop-color="#72C6A6"/>
</linearGradient>
<linearGradient id="paint53_linear" x1="366.996" y1="377.995" x2="605.572" y2="624.602" gradientUnits="userSpaceOnUse">
<stop offset="0.00295869" stop-color="#015D74"/>
<stop offset="0.3604" stop-color="#2E8788"/>
<stop offset="0.7878" stop-color="#5FB49E"/>
<stop offset="1" stop-color="#72C6A6"/>
</linearGradient>
<linearGradient id="paint54_linear" x1="370.844" y1="379.721" x2="597.969" y2="614.494" gradientUnits="userSpaceOnUse">
<stop offset="0.00295869" stop-color="#015D74"/>
<stop offset="0.3604" stop-color="#2E8788"/>
<stop offset="0.7878" stop-color="#5FB49E"/>
<stop offset="1" stop-color="#72C6A6"/>
</linearGradient>
<linearGradient id="paint55_linear" x1="374.986" y1="381.883" x2="589.773" y2="603.901" gradientUnits="userSpaceOnUse">
<stop offset="0.00295869" stop-color="#015D74"/>
<stop offset="0.3604" stop-color="#2E8788"/>
<stop offset="0.7878" stop-color="#5FB49E"/>
<stop offset="1" stop-color="#72C6A6"/>
</linearGradient>
<linearGradient id="paint56_linear" x1="379.332" y1="384.562" x2="580.934" y2="592.952" gradientUnits="userSpaceOnUse">
<stop offset="0.00295869" stop-color="#015D74"/>
<stop offset="0.3604" stop-color="#2E8788"/>
<stop offset="0.7878" stop-color="#5FB49E"/>
<stop offset="1" stop-color="#72C6A6"/>
</linearGradient>
<linearGradient id="paint57_linear" x1="383.88" y1="387.759" x2="571.502" y2="581.697" gradientUnits="userSpaceOnUse">
<stop offset="0.00295869" stop-color="#015D74"/>
<stop offset="0.3604" stop-color="#2E8788"/>
<stop offset="0.7878" stop-color="#5FB49E"/>
<stop offset="1" stop-color="#72C6A6"/>
</linearGradient>
<linearGradient id="paint58_linear" x1="386.586" y1="389.35" x2="561.534" y2="570.188" gradientUnits="userSpaceOnUse">
<stop offset="0.00295869" stop-color="#015D74"/>
<stop offset="0.3604" stop-color="#2E8788"/>
<stop offset="0.7878" stop-color="#5FB49E"/>
<stop offset="1" stop-color="#72C6A6"/>
</linearGradient>
<linearGradient id="paint59_linear" x1="388.784" y1="390.691" x2="551.102" y2="558.474" gradientUnits="userSpaceOnUse">
<stop offset="0.00295869" stop-color="#015D74"/>
<stop offset="0.3604" stop-color="#2E8788"/>
<stop offset="0.7878" stop-color="#5FB49E"/>
<stop offset="1" stop-color="#72C6A6"/>
</linearGradient>
<linearGradient id="paint60_linear" x1="390.689" y1="391.982" x2="540.279" y2="546.608" gradientUnits="userSpaceOnUse">
<stop offset="0.00295869" stop-color="#015D74"/>
<stop offset="0.3604" stop-color="#2E8788"/>
<stop offset="0.7878" stop-color="#5FB49E"/>
<stop offset="1" stop-color="#72C6A6"/>
</linearGradient>
<linearGradient id="paint61_linear" x1="392.384" y1="393.258" x2="529.156" y2="534.635" gradientUnits="userSpaceOnUse">
<stop offset="0.00295869" stop-color="#015D74"/>
<stop offset="0.3604" stop-color="#2E8788"/>
<stop offset="0.7878" stop-color="#5FB49E"/>
<stop offset="1" stop-color="#72C6A6"/>
</linearGradient>
<linearGradient id="paint62_linear" x1="393.952" y1="394.505" x2="517.859" y2="522.583" gradientUnits="userSpaceOnUse">
<stop offset="0.00295869" stop-color="#015D74"/>
<stop offset="0.3604" stop-color="#2E8788"/>
<stop offset="0.7878" stop-color="#5FB49E"/>
<stop offset="1" stop-color="#72C6A6"/>
</linearGradient>
<linearGradient id="paint63_linear" x1="395.463" y1="395.683" x2="516.074" y2="520.355" gradientUnits="userSpaceOnUse">
<stop offset="0.00295869" stop-color="#015D74"/>
<stop offset="0.3604" stop-color="#2E8788"/>
<stop offset="0.7878" stop-color="#5FB49E"/>
<stop offset="1" stop-color="#72C6A6"/>
</linearGradient>
<linearGradient id="paint64_linear" x1="396.83" y1="396.881" x2="527.484" y2="531.933" gradientUnits="userSpaceOnUse">
<stop offset="0.00295869" stop-color="#015D74"/>
<stop offset="0.3604" stop-color="#2E8788"/>
<stop offset="0.7878" stop-color="#5FB49E"/>
<stop offset="1" stop-color="#72C6A6"/>
</linearGradient>
<linearGradient id="paint65_linear" x1="398.114" y1="398.052" x2="539.703" y2="544.408" gradientUnits="userSpaceOnUse">
<stop offset="0.00295869" stop-color="#015D74"/>
<stop offset="0.3604" stop-color="#2E8788"/>
<stop offset="0.7878" stop-color="#5FB49E"/>
<stop offset="1" stop-color="#72C6A6"/>
</linearGradient>
<linearGradient id="paint66_linear" x1="399.364" y1="399.129" x2="552.76" y2="557.69" gradientUnits="userSpaceOnUse">
<stop offset="0.00295869" stop-color="#015D74"/>
<stop offset="0.3604" stop-color="#2E8788"/>
<stop offset="0.7878" stop-color="#5FB49E"/>
<stop offset="1" stop-color="#72C6A6"/>
</linearGradient>
<linearGradient id="paint67_linear" x1="400.556" y1="400.12" x2="566.584" y2="571.738" gradientUnits="userSpaceOnUse">
<stop offset="0.00295869" stop-color="#015D74"/>
<stop offset="0.3604" stop-color="#2E8788"/>
<stop offset="0.7878" stop-color="#5FB49E"/>
<stop offset="1" stop-color="#72C6A6"/>
</linearGradient>
<linearGradient id="paint68_linear" x1="401.66" y1="401.045" x2="581.081" y2="586.507" gradientUnits="userSpaceOnUse">
<stop offset="0.00295869" stop-color="#015D74"/>
<stop offset="0.3604" stop-color="#2E8788"/>
<stop offset="0.7878" stop-color="#5FB49E"/>
<stop offset="1" stop-color="#72C6A6"/>
</linearGradient>
<linearGradient id="paint69_linear" x1="402.786" y1="402.043" x2="596.012" y2="601.775" gradientUnits="userSpaceOnUse">
<stop offset="0.00295869" stop-color="#015D74"/>
<stop offset="0.3604" stop-color="#2E8788"/>
<stop offset="0.7878" stop-color="#5FB49E"/>
<stop offset="1" stop-color="#72C6A6"/>
</linearGradient>
<linearGradient id="paint70_linear" x1="404.166" y1="403.282" x2="611.12" y2="617.205" gradientUnits="userSpaceOnUse">
<stop offset="0.00295869" stop-color="#015D74"/>
<stop offset="0.3604" stop-color="#2E8788"/>
<stop offset="0.7878" stop-color="#5FB49E"/>
<stop offset="1" stop-color="#72C6A6"/>
</linearGradient>
<linearGradient id="paint71_linear" x1="405.835" y1="404.764" x2="626.364" y2="632.718" gradientUnits="userSpaceOnUse">
<stop offset="0.00295869" stop-color="#015D74"/>
<stop offset="0.3604" stop-color="#2E8788"/>
<stop offset="0.7878" stop-color="#5FB49E"/>
<stop offset="1" stop-color="#72C6A6"/>
</linearGradient>
<linearGradient id="paint72_linear" x1="395.503" y1="393.772" x2="641.687" y2="648.245" gradientUnits="userSpaceOnUse">
<stop offset="0.00295869" stop-color="#015D74"/>
<stop offset="0.3604" stop-color="#2E8788"/>
<stop offset="0.7878" stop-color="#5FB49E"/>
<stop offset="1" stop-color="#72C6A6"/>
</linearGradient>
<linearGradient id="paint73_linear" x1="385.244" y1="382.763" x2="657.041" y2="663.712" gradientUnits="userSpaceOnUse">
<stop offset="0.00295869" stop-color="#015D74"/>
<stop offset="0.3604" stop-color="#2E8788"/>
<stop offset="0.7878" stop-color="#5FB49E"/>
<stop offset="1" stop-color="#72C6A6"/>
</linearGradient>
<linearGradient id="paint74_linear" x1="375.418" y1="372.099" x2="672.369" y2="679.047" gradientUnits="userSpaceOnUse">
<stop offset="0.00295869" stop-color="#015D74"/>
<stop offset="0.3604" stop-color="#2E8788"/>
<stop offset="0.7878" stop-color="#5FB49E"/>
<stop offset="1" stop-color="#72C6A6"/>
</linearGradient>
<linearGradient id="paint75_linear" x1="366.099" y1="361.806" x2="687.632" y2="694.164" gradientUnits="userSpaceOnUse">
<stop offset="0.00295869" stop-color="#015D74"/>
<stop offset="0.3604" stop-color="#2E8788"/>
<stop offset="0.7878" stop-color="#5FB49E"/>
<stop offset="1" stop-color="#72C6A6"/>
</linearGradient>
<linearGradient id="paint76_linear" x1="357.323" y1="351.929" x2="702.758" y2="708.993" gradientUnits="userSpaceOnUse">
<stop offset="0.00295869" stop-color="#015D74"/>
<stop offset="0.3604" stop-color="#2E8788"/>
<stop offset="0.7878" stop-color="#5FB49E"/>
<stop offset="1" stop-color="#72C6A6"/>
</linearGradient>
<linearGradient id="paint77_linear" x1="349.13" y1="342.496" x2="717.692" y2="723.468" gradientUnits="userSpaceOnUse">
<stop offset="0.00295869" stop-color="#015D74"/>
<stop offset="0.3604" stop-color="#2E8788"/>
<stop offset="0.7878" stop-color="#5FB49E"/>
<stop offset="1" stop-color="#72C6A6"/>
</linearGradient>
<linearGradient id="paint78_linear" x1="341.518" y1="333.508" x2="732.363" y2="737.513" gradientUnits="userSpaceOnUse">
<stop offset="0.00295869" stop-color="#015D74"/>
<stop offset="0.3604" stop-color="#2E8788"/>
<stop offset="0.7878" stop-color="#5FB49E"/>
<stop offset="1" stop-color="#72C6A6"/>
</linearGradient>
<linearGradient id="paint79_linear" x1="333.442" y1="323.859" x2="746.724" y2="751.056" gradientUnits="userSpaceOnUse">
<stop offset="0.00295869" stop-color="#015D74"/>
<stop offset="0.3604" stop-color="#2E8788"/>
<stop offset="0.7878" stop-color="#5FB49E"/>
<stop offset="1" stop-color="#72C6A6"/>
</linearGradient>
<linearGradient id="paint80_linear" x1="325.927" y1="314.612" x2="760.699" y2="764.022" gradientUnits="userSpaceOnUse">
<stop offset="0.00295869" stop-color="#015D74"/>
<stop offset="0.3604" stop-color="#2E8788"/>
<stop offset="0.7878" stop-color="#5FB49E"/>
<stop offset="1" stop-color="#72C6A6"/>
</linearGradient>
<linearGradient id="paint81_linear" x1="317.875" y1="307.129" x2="772.982" y2="777.559" gradientUnits="userSpaceOnUse">
<stop offset="0.00295869" stop-color="#015D74"/>
<stop offset="0.3604" stop-color="#2E8788"/>
<stop offset="0.7878" stop-color="#5FB49E"/>
<stop offset="1" stop-color="#72C6A6"/>
</linearGradient>
<linearGradient id="paint82_linear" x1="305.888" y1="304.796" x2="780.065" y2="794.938" gradientUnits="userSpaceOnUse">
<stop offset="0.00295869" stop-color="#015D74"/>
<stop offset="0.3604" stop-color="#2E8788"/>
<stop offset="0.7878" stop-color="#5FB49E"/>
<stop offset="1" stop-color="#72C6A6"/>
</linearGradient>
<linearGradient id="paint83_linear" x1="294.483" y1="303.321" x2="786.358" y2="811.756" gradientUnits="userSpaceOnUse">
<stop offset="0.00295869" stop-color="#015D74"/>
<stop offset="0.3604" stop-color="#2E8788"/>
<stop offset="0.7878" stop-color="#5FB49E"/>
<stop offset="1" stop-color="#72C6A6"/>
</linearGradient>
<linearGradient id="paint84_linear" x1="283.725" y1="302.73" x2="791.821" y2="827.933" gradientUnits="userSpaceOnUse">
<stop offset="0.00295869" stop-color="#015D74"/>
<stop offset="0.3604" stop-color="#2E8788"/>
<stop offset="0.7878" stop-color="#5FB49E"/>
<stop offset="1" stop-color="#72C6A6"/>
</linearGradient>
<linearGradient id="paint85_linear" x1="273.092" y1="303.608" x2="795.841" y2="843.956" gradientUnits="userSpaceOnUse">
<stop offset="0.00295869" stop-color="#015D74"/>
<stop offset="0.3604" stop-color="#2E8788"/>
<stop offset="0.7878" stop-color="#5FB49E"/>
<stop offset="1" stop-color="#72C6A6"/>
</linearGradient>
<linearGradient id="paint86_linear" x1="262.185" y1="306.415" x2="797.919" y2="860.186" gradientUnits="userSpaceOnUse">
<stop offset="0.00295869" stop-color="#015D74"/>
<stop offset="0.3604" stop-color="#2E8788"/>
<stop offset="0.7878" stop-color="#5FB49E"/>
<stop offset="1" stop-color="#72C6A6"/>
</linearGradient>
<linearGradient id="paint87_linear" x1="251.461" y1="310.784" x2="798.454" y2="876.193" gradientUnits="userSpaceOnUse">
<stop offset="0.00295869" stop-color="#015D74"/>
<stop offset="0.3604" stop-color="#2E8788"/>
<stop offset="0.7878" stop-color="#5FB49E"/>
<stop offset="1" stop-color="#72C6A6"/>
</linearGradient>
<linearGradient id="paint88_linear" x1="241.084" y1="316.613" x2="797.527" y2="891.79" gradientUnits="userSpaceOnUse">
<stop offset="0.00295869" stop-color="#015D74"/>
<stop offset="0.3604" stop-color="#2E8788"/>
<stop offset="0.7878" stop-color="#5FB49E"/>
<stop offset="1" stop-color="#72C6A6"/>
</linearGradient>
<linearGradient id="paint89_linear" x1="231.168" y1="323.857" x2="795.148" y2="906.825" gradientUnits="userSpaceOnUse">
<stop offset="0.00295869" stop-color="#015D74"/>
<stop offset="0.3604" stop-color="#2E8788"/>
<stop offset="0.7878" stop-color="#5FB49E"/>
<stop offset="1" stop-color="#72C6A6"/>
</linearGradient>
<linearGradient id="paint90_linear" x1="232.411" y1="322.224" x2="801.937" y2="910.926" gradientUnits="userSpaceOnUse">
<stop offset="0.00295869" stop-color="#015D74"/>
<stop offset="0.3604" stop-color="#2E8788"/>
<stop offset="0.7878" stop-color="#5FB49E"/>
<stop offset="1" stop-color="#72C6A6"/>
</linearGradient>
<linearGradient id="paint91_linear" x1="241.417" y1="315.035" x2="814.443" y2="907.353" gradientUnits="userSpaceOnUse">
<stop offset="0.00295869" stop-color="#015D74"/>
<stop offset="0.3604" stop-color="#2E8788"/>
<stop offset="0.7878" stop-color="#5FB49E"/>
<stop offset="1" stop-color="#72C6A6"/>
</linearGradient>
<linearGradient id="paint92_linear" x1="251.503" y1="308.803" x2="825.927" y2="902.566" gradientUnits="userSpaceOnUse">
<stop offset="0.00295869" stop-color="#015D74"/>
<stop offset="0.3604" stop-color="#2E8788"/>
<stop offset="0.7878" stop-color="#5FB49E"/>
<stop offset="1" stop-color="#72C6A6"/>
</linearGradient>
<linearGradient id="paint93_linear" x1="262.893" y1="303.344" x2="836.559" y2="896.325" gradientUnits="userSpaceOnUse">
<stop offset="0.00295869" stop-color="#015D74"/>
<stop offset="0.3604" stop-color="#2E8788"/>
<stop offset="0.7878" stop-color="#5FB49E"/>
<stop offset="1" stop-color="#72C6A6"/>
</linearGradient>
<linearGradient id="paint94_linear" x1="275.427" y1="298.835" x2="846.144" y2="888.768" gradientUnits="userSpaceOnUse">
<stop offset="0.00295869" stop-color="#015D74"/>
<stop offset="0.3604" stop-color="#2E8788"/>
<stop offset="0.7878" stop-color="#5FB49E"/>
<stop offset="1" stop-color="#72C6A6"/>
</linearGradient>
<linearGradient id="paint95_linear" x1="287.709" y1="296.656" x2="853.249" y2="881.237" gradientUnits="userSpaceOnUse">
<stop offset="0.00295869" stop-color="#015D74"/>
<stop offset="0.3604" stop-color="#2E8788"/>
<stop offset="0.7878" stop-color="#5FB49E"/>
<stop offset="1" stop-color="#72C6A6"/>
</linearGradient>
<linearGradient id="paint96_linear" x1="300.013" y1="296.54" x2="858.13" y2="873.447" gradientUnits="userSpaceOnUse">
<stop offset="0.00295869" stop-color="#015D74"/>
<stop offset="0.3604" stop-color="#2E8788"/>
<stop offset="0.7878" stop-color="#5FB49E"/>
<stop offset="1" stop-color="#72C6A6"/>
</linearGradient>
<linearGradient id="paint97_linear" x1="312.8" y1="298.056" x2="861.229" y2="864.95" gradientUnits="userSpaceOnUse">
<stop offset="0.00295869" stop-color="#015D74"/>
<stop offset="0.3604" stop-color="#2E8788"/>
<stop offset="0.7878" stop-color="#5FB49E"/>
<stop offset="1" stop-color="#72C6A6"/>
</linearGradient>
<linearGradient id="paint98_linear" x1="326.311" y1="300.957" x2="862.784" y2="855.492" gradientUnits="userSpaceOnUse">
<stop offset="0.00295869" stop-color="#015D74"/>
<stop offset="0.3604" stop-color="#2E8788"/>
<stop offset="0.7878" stop-color="#5FB49E"/>
<stop offset="1" stop-color="#72C6A6"/>
</linearGradient>
<linearGradient id="paint99_linear" x1="340.689" y1="305.097" x2="862.94" y2="844.932" gradientUnits="userSpaceOnUse">
<stop offset="0.00295869" stop-color="#015D74"/>
<stop offset="0.3604" stop-color="#2E8788"/>
<stop offset="0.7878" stop-color="#5FB49E"/>
<stop offset="1" stop-color="#72C6A6"/>
</linearGradient>
<linearGradient id="paint100_linear" x1="356.008" y1="310.382" x2="861.793" y2="833.195" gradientUnits="userSpaceOnUse">
<stop offset="0.00295869" stop-color="#015D74"/>
<stop offset="0.3604" stop-color="#2E8788"/>
<stop offset="0.7878" stop-color="#5FB49E"/>
<stop offset="1" stop-color="#72C6A6"/>
</linearGradient>
<linearGradient id="paint101_linear" x1="372.358" y1="316.7" x2="859.443" y2="820.185" gradientUnits="userSpaceOnUse">
<stop offset="0.00295869" stop-color="#015D74"/>
<stop offset="0.3604" stop-color="#2E8788"/>
<stop offset="0.7878" stop-color="#5FB49E"/>
<stop offset="1" stop-color="#72C6A6"/>
</linearGradient>
<clipPath id="clip0">
<rect width="844.85" height="799.04" fill="white" transform="translate(1131.18 691.989) rotate(150)"/>
</clipPath>
</defs>
</svg>
